<svg xmlns="http://www.w3.org/2000/svg" viewBox="0 0 170 170"><g transform="translate(0,-882.36216)"><g style="fill-rule:evenodd"><path d="m84.999999 882.36215c46.943941 0 85 38.05606 85 85 0 46.94395-38.05606 84.99995-85 84.99995-46.943936 0-84.999999-38.056-84.999999-84.99995 0-46.94394 38.05606-85 84.999999-85" style="fill:#e8e9e7"/><path d="m139.04098 959.9151c2.70499 0 4.91706 2.21374 4.91706 4.91706v5.06123c0 2.70332-2.21207 4.91664-4.91706 4.91664-4.15748 0-8.31579 0-12.47327 0-2.70499 0-4.91706-2.21332-4.91706-4.91664v-5.06123c0-2.70332 2.21207-4.91706 4.91706-4.91706 4.15748 0 8.31579 0 12.47327 0" style="fill:#fbfcfc"/></g><path d="m84.999999 960.98427c-1.762075 0-3.359983.71458-4.511644 1.86624-1.151661 1.15124-1.866241 2.74957-1.866241 4.51164 0 1.76208.71458 3.3579 1.866241 4.50956 1.151661 1.15125 2.749569 1.86833 4.511644 1.86833 1.762075 0 3.3604-.71708 4.511645-1.86833 1.151661-1.15166 1.86624-2.74748 1.86624-4.50956 0-1.76207-.714579-3.3604-1.86624-4.51164-1.151245-1.15166-2.74957-1.86624-4.511645-1.86624" style="fill:#45363b"/><g style="fill:none;stroke-miterlimit:2.613126;stroke:#45363b;stroke-linecap:round;stroke-linejoin:round"><g style="stroke-width:6.249136"><path d="m85.00125 967.36215v-25.90487"/><path d="m128.8377 942.05353l4.19748-2.42374m-22.72531-16.10409l2.42333-4.19748m-27.731951-2.57749v-4.85289m-25.308626 11.62786l-2.423738-4.19748m-16.10409 22.72531l-4.19748-2.42374m-2.57707 27.73236h-4.85331m11.62786 25.30863l-4.19748 2.42332m22.725305 16.1045l-2.423738 4.1975m27.732364 2.5771v4.8533m25.308621-11.6279l2.42333 4.1975m16.1045-22.72532l4.19748 2.42332"/></g><path d="m85.00125 967.36215l-21.875309 20.56657" style="stroke-width:8.332458"/></g></g></svg>