<svg xmlns="http://www.w3.org/2000/svg" viewBox="0 0 400 400.00001" height="400"><g transform="matrix(4.1666753 0 0-4.1666753 0 400.00004)"><g style="fill-rule:evenodd"><path d="m47.9999 95.9998c26.5096 0 47.9999-21.4903 47.9999-47.9999 0-26.5096-21.4903-47.9999-47.9999-47.9999-26.5096 0-47.9999 21.4903-47.9999 47.9999 0 26.5096 21.4903 47.9999 47.9999 47.9999" style="fill:#e8e9e7"/><path d="m61.2524 76.5641h2.1331v-.002c.3935 0 .7237-.3064.7469-.7041.1602-2.6615-.6117-4.4331-1.6585-5.2799l-.0003.0003c-.5119-.4135-1.0888-.6202-1.671-.6202-.5857 0-1.1645.2069-1.6747.6197l.0014.0017-.0014.0011c-1.0375.8399-1.8048 2.5923-1.6583 5.2231l-.0003.0102c0 .4142.3359.7501.7501.7501h3.033" style="fill:#45363b"/></g><g style="fill:#45363b"><path d="m60.1081 76.0382c0-.4141-.3359-.75-.7501-.75-.4141 0-.75.3359-.75.75v2.2454c0 .4141.3359.75.75.75.4142 0 .7501-.3359.7501-.75v-2.2454"/><path d="m62.9739 76.0382c0-.4141-.3359-.75-.75-.75-.4142 0-.7501.3359-.7501.75v2.2454c0 .4141.3359.75.7501.75.4141 0 .75-.3359.75-.75v-2.2454"/><path d="m59.5392 71.8121c-.1083.3977.1267.8084.5244.9167.3977.1083.8084-.1267.9167-.5244.0031-.0122 1.1764-4.2092-.4297-6.6186l-.0306-.0426c-.6809-.9935-1.6787-1.5431-2.6436-2.0746-1.1075-.6106-2.1603-1.1909-2.1603-2.4276 0-.756-.1817-1.6107-.5199-2.4483-.4365-1.0823-1.1429-2.1504-2.0605-2.9506-.955-.8325-2.1362-1.3822-3.4857-1.3822-.6492 0-1.3349.1296-2.0489.4176-.6134.2474-1.1724.5669-1.6793.9334-.559.4042-1.0584.8686-1.5009 1.3592-.2764.3073-.2517.781.0555 1.0574.3073.2763.781.2517 1.0574-.0556.3753-.4161.7973-.8087 1.2668-1.1483.4158-.3008.8688-.5607 1.3572-.7577.523-.2109 1.0225-.3059 1.4922-.3059.9564 0 1.8059.4006 2.5015 1.0069.7331.6392 1.3014 1.5026 1.6563 2.3825.2653.6577.4082 1.3178.4082 1.8916 0 2.1197 1.4326 2.9092 2.9398 3.74.8085.4453 1.645.9062 2.1237 1.599l.0233.0374c1.2279 1.842.2389 5.3847.2364 5.3947"/></g><path d="m67.913 59.6047c1.4414-2.3834 1.5353-20.4293.0936-23.0477-1.3437-2.4398-16.9249-11.5441-19.9134-11.6047-2.7845-.0565-18.4598 8.8851-20.0064 11.4428-1.4414 2.3834-1.5352 20.4293-.0935 23.0477 1.3436 2.4398 16.9248 11.5441 19.9133 11.6048 2.7845.0564 18.4598-8.8852 20.0064-11.4429" style="fill:#f59610;fill-rule:evenodd"/><path d="m68.5545 59.9913c.7926-1.3104 1.2124-6.6076 1.2336-11.8746.021-5.2231-.3461-10.5046-1.1253-11.92-.7407-1.3444-5.1185-4.358-9.6693-7.0098-4.5093-2.6274-9.2659-4.9487-10.8856-4.9816-1.5367-.0309-6.3337 2.2524-10.9026 4.8657-4.5323 2.5923-8.9221 5.5516-9.76 6.9375-.7925 1.3105-1.2124 6.6076-1.2336 11.8746-.021 5.2231.3461 10.5046 1.1253 11.92.7407 1.3445 5.1186 4.358 9.6693 7.0098 4.5094 2.6274 9.2659 4.9487 10.8856 4.9816 1.5367.0309 6.3337-2.2524 10.9026-4.8657 4.5323-2.5923 8.9221-5.5516 9.76-6.9375m-.2602-11.8803c-.0204 5.0429-.3691 10.0262-1.0228 11.107-.7027 1.1619-4.8682 3.9209-9.2208 6.4103-4.3812 2.5058-8.8719 4.6976-10.1293 4.6723-1.3572-.0275-5.8303-2.2566-10.1651-4.7826-4.3577-2.5393-8.4991-5.3322-9.1068-6.4355-.6568-1.1931-.9641-6.1806-.944-11.1937.0205-5.0428.3691-10.0262 1.0228-11.107.7027-1.1619 4.8682-3.9209 9.2208-6.4103 4.3812-2.5058 8.8719-4.6975 10.1293-4.6723 1.3573.0275 5.8303 2.2566 10.1651 4.7826 4.3577 2.5393 8.4991 5.3322 9.1068 6.4355.6568 1.1931.9641 6.1807.944 11.1937" style="fill:#45363b"/><path d="m46.796 58.3512c-.0076.6508.514 1.1851 1.1651 1.1925.6508.0077 1.1851-.5139 1.1928-1.165l.0504-3.4158c.0077-.6511-.5142-1.1851-1.165-1.1928-.6511-.0076-1.1852.5139-1.1928 1.165l-.0505 3.4161m-8.3585-6.2212c-.5692.3163-.7738 1.0346-.4578 1.6038.3164.5692 1.0349.7742 1.6041.4578l2.9838-1.6645c.5689-.3163.7738-1.0346.4575-1.6038-.3161-.5692-1.0346-.7742-1.6038-.4578l-2.9838 1.6645m3.3457 4.2279c-.3342.5587-.1522 1.2841.4068 1.6183.5587.3342 1.2838.1522 1.618-.4068l1.7518-2.9327c.3342-.5587.152-1.2841-.4067-1.6183-.5587-.3342-1.2841-.152-1.6183.4067l-1.7516 2.9328m-4.1346-9.5619c-.6508-.0076-1.1851.514-1.1925 1.1651-.0077.6508.5139 1.1851 1.165 1.1928l3.4158.0504c.6511.0077 1.1851-.5142 1.1928-1.165.0077-.6511-.5139-1.1852-1.165-1.1928l-3.4161-.0505m6.2212-8.3585c-.3163-.5692-1.0346-.7738-1.6038-.4578-.5692.3164-.7742 1.0349-.4578 1.6041l1.6645 2.9838c.3163.5689 1.0346.7738 1.6038.4575.5692-.3161.7742-1.0346.4578-1.6038l-1.6645-2.9838m-4.2278 3.3457c-.5588-.3342-1.2841-.1522-1.6183.4068-.3343.5587-.1523 1.2838.4067 1.618l2.9327 1.7518c.5588.3342 1.2841.152 1.6183-.4067.3343-.5587.152-1.2841-.4067-1.6183l-2.9327-1.7516m9.5618-4.1346c.0076-.6508-.5139-1.1851-1.1651-1.1925-.6508-.0077-1.1851.5139-1.1928 1.165l-.0504 3.4158c-.0077.6511.5142 1.1851 1.165 1.1928.6511.0077 1.1852-.5139 1.1928-1.165l.0505-3.4161m8.3585 6.2212c.5692-.3163.7739-1.0346.4578-1.6038-.3164-.5692-1.0349-.7742-1.6041-.4578l-2.9838 1.6645c-.5689.3163-.7738 1.0346-.4575 1.6038.3161.5692 1.0347.7742 1.6039.4578l2.9837-1.6645m-3.3457-4.2278c.3342-.5588.1522-1.2841-.4068-1.6183-.5587-.3343-1.2838-.1523-1.618.4067l-1.7518 2.9327c-.3342.5588-.152 1.2841.4067 1.6183.5587.3343 1.2841.152 1.6183-.4067l1.7516-2.9327m4.1346 9.5618c.6508.0076 1.1851-.5139 1.1925-1.1651.0077-.6508-.5139-1.1851-1.165-1.1928l-3.4158-.0504c-.6511-.0077-1.1851.5142-1.1928 1.165-.0076.6511.5139 1.1852 1.165 1.1928l3.4161.0505m-6.2212 8.3585c.3163.5692 1.0346.7739 1.6038.4578.5692-.3164.7742-1.0349.4578-1.6041l-1.6645-2.9838c-.3163-.5689-1.0346-.7738-1.6038-.4575-.5692.3161-.7742 1.0347-.4578 1.6039l1.6645 2.9837m4.2279-3.3457c.5587.3342 1.2841.1522 1.6183-.4068.3342-.5587.1522-1.2838-.4068-1.618l-2.9327-1.7518c-.5587-.3342-1.2841-.152-1.6183.4067-.3342.5587-.152 1.2841.4067 1.6183l2.9328 1.7516" style="fill:#fbfcfc"/><path d="m20.8953 54.3954c.5295.4649 1.1928.8292 2.0129 1.0171.1054.0247.2367.0493.3951.0726.1338.0204.271.0363.4113.0479 3.7894.303 4.5185-3.066 4.6007-3.528.0448-.4694.413-.8504.8847-.883.2477-.017.4901-.0624.7242-.1318.2387-.0703.4589-.1636.6579-.275.4944-.2789.8975-.686 1.1588-1.1783.2469-.4661.3697-1.0171.3249-1.6192-.0456-.6151-.2035-.9961-.4717-1.211-.32-.2556-.8453-.3775-1.5508-.4291-.4655-.034-4.4167-.0717-8.0328-.0774-2.71-.0051-5.2368.0082-5.9707.0538-.3804.0236-.7151.1072-.9878.2387-.2384.1154-.4247.2653-.5412.436-.0887.1307-.134.2792-.125.4379.0068.1157.0391.2416.0998.3756.0998.2197.239.3779.3918.4927.2177.1638.4728.2534.6893.3025.3787.0629.6979.3605.7787.7713.1848.9167.5015 1.5125.8697 1.8895.4243.4349.94.584 1.3813.6081.3745-.0091.7356.2111.8963.5865.3124.733.7691 1.4434 1.4026 1.9995l-.002.0023.002.0008" style="fill:#fff;fill-rule:evenodd"/><path d="m20.4259 54.9777c.3144.2727.669.5156 1.0647.7154.377.1911.7928.3439 1.2481.4482l-.0003.0006c.047.011.1202.0258.2177.0436.0941.0173.174.0309.2358.04v.0005c.0681.0103.1449.0207.2296.0304.0871.0099.1639.0178.2316.0235l.0281.0017c2.1963.1675 3.5243-.7447 4.3155-1.7688.7735-1.0012 1.0094-2.1115 1.0567-2.3788.0051-.0287.0082-.0573.0099-.0857.0097-.0476.0332-.0901.0652-.1221.0326-.0326.0754-.0542.1214-.0573.1411-.0096.2902-.0292.445-.057l.0028-.0005v.0005c.152-.0277.2982-.0629.4374-.104.148-.0436.2875-.093.4167-.1471.1389-.0578.2719-.1228.3966-.1925.0204-.0113.0402-.0238.0589-.0368.2889-.1698.55-.3725.7767-.603.2469-.2508.4561-.534.6188-.8402l.0227-.0464c.1488-.2903.2599-.6033.3257-.9326.0048-.0241.0085-.0482.0108-.072.057-.3144.0751-.6404.0507-.9723l-.0003-.0029h.0003c-.0286-.3849-.0964-.7072-.2024-.9754l-.0187-.043c-.1273-.3034-.3044-.54-.5289-.7198l-.0034-.0025.0005-.0006c-.2435-.1944-.5465-.3333-.9062-.4286-.3084-.0819-.6619-.1326-1.0576-.1616-.2268-.0164-1.3448-.0345-2.8678-.0493-1.499-.0142-3.3999-.0252-5.2177-.028-1.45-.0029-2.848-.0003-3.9459.0096-.9847.0088-1.7317.0235-2.0687.0442-.2307.0142-.453.0479-.661.0981l-.0312.0082c-.2112.053-.4051.1225-.5769.2055-.17.0822-.3245.1797-.4597.2883-.1489.1196-.2753.2543-.3742.3997-.0125.0181-.0238.0368-.0346.0556-.0748.1199-.1315.2449-.1681.3727-.0425.1497-.0607.3079-.0513.4725.0062.1117.0244.2246.0539.3354l.0119.0402c.0258.0899.0586.1792.0983.2665.0768.1695.1724.3192.2787.4499.1057.1298.2236.2398.3475.3327.1661.125.3387.2186.506.288.1576.0652.3186.1126.4674.1463l.0411.0079v.0009c.0389.0062.0749.0255.1026.053.0309.0306.0542.0734.0638.1236.0045.0232.0102.0462.0167.0686.099.4717.2305.8694.3836 1.2027.1905.4136.4192.7407.6687.9961.267.2733.5592.4652.854.595.3476.1528.7016.2214 1.0253.2387.0233.0011.0465.0014.0695.0003.0314.0022.0643.0139.0938.0331.0354.0233.0652.0573.0828.099.1814.426.4099.8492.6894 1.2481l.0014.002-.0014.0008c.242.345.5258.6727.854.9689.0168.0178.0346.0351.0533.0516l.0247.0207m1.7382-.6203c-.2738-.138-.519-.3041-.7362-.4892l-.0405-.0383c-.252-.2211-.4745-.4776-.669-.7546l-.0014.0009c-.2134-.3047-.3912-.6364-.536-.9763-.1401-.3274-.3668-.5884-.639-.7667-.2707-.1769-.5901-.2733-.9187-.2744-.1544-.0097-.3225-.0428-.487-.1151-.1343-.0593-.2667-.1454-.3852-.2668-.136-.1391-.2659-.3288-.3818-.5805-.1114-.2421-.2075-.5335-.2806-.8804l-.008-.0508c-.0691-.354-.2423-.6619-.4799-.8969-.2443-.2423-.5564-.4067-.8966-.4665-.0601-.0151-.1264-.036-.1947-.0641-.0683-.0283-.1332-.0621-.184-.1003-.0286-.0216-.0575-.0488-.0839-.0811-.0258-.0318-.051-.0723-.0734-.1216-.0102-.0227-.0184-.0425-.0238-.059l-.0048-.0193-.004-.0153c.0167-.0224.04-.0456.0686-.0683.0462-.0371.1046-.0734.1729-.1063.0862-.0414.1806-.0762.2803-.102l.029-.0063c.1187-.0286.2522-.0484.3974-.0572.3461-.0213 1.063-.0357 1.9927-.0442 1.0965-.0097 2.49-.0122 3.934-.0097 1.8085.0026 3.7054.0136 5.2058.0281 1.4581.0139 2.5378.032 2.7743.0493.3092.0224.5723.059.782.1145.1588.042.2792.0927.3558.1537l.0003-.0006c.0272.0232.053.0624.0776.1185l.001.0266c.0513.1296.0856.3067.1026.5361h.0002c.0151.2089.0063.4045-.0246.5845-.0057.019-.0099.0385-.0139.0584-.0391.1955-.1023.3767-.1854.5405l-.0161.0287c-.0978.1839-.22.3506-.3615.4943-.1366.1389-.2897.2597-.4555.3586l-.0462.0238c-.076.0425-.1562.0816-.2384.1159-.0879.0369-.1766.0686-.2642.0944-.0972.0287-.1927.0522-.2849.0689v.0003c-.083.0147-.1763.0264-.2783.0335-.4218.0289-.7968.212-1.0761.4909-.2633.2622-.4419.6126-.4946.9989l-.0023.0111c-.0343.1942-.2058 1.0009-.7636 1.7229-.5355.6931-1.4562 1.3082-3.0235 1.1883l-.0138-.0012c-.0726-.0059-.1353-.0121-.1846-.0178-.0519-.006-.1114-.0142-.1769-.0241v.0006l-.0031-.0006c-.0918-.0133-.153-.0232-.1862-.0292-.0377-.0068-.0868-.0176-.1474-.0318l-.0003.0006-.0026-.0006c-.335-.0765-.6386-.1879-.911-.3257" style="fill:#45363b"/><path d="m63.5817 40.9955c.7426.6522 1.6733 1.1631 2.8236 1.4267.1479.0348.3319.0691.5544.1017.1874.0287.3796.0511.5766.0672 5.3155.4255 6.3385-4.3007 6.4539-4.949.0627-.6585.5794-1.1925 1.2407-1.2384.3476-.0239.6877-.0874 1.0162-.1851.3348-.0984.6435-.2294.9227-.3856.6937-.3911 1.2589-.962 1.626-1.6528.3461-.654.5182-1.4267.4555-2.2714-.0643-.8629-.2854-1.3972-.6616-1.6986-.4493-.3588-1.1857-.5298-2.1756-.6023-.6531-.0476-6.1954-.1007-11.2683-.1086-3.8012-.0068-7.346.0116-8.3752.0757-.5341.0329-1.0035.1502-1.3862.3348-.3342.1618-.5955.3724-.7588.6117-.1247.1831-.1882.3914-.1755.6142.0097.1625.0548.3388.1401.5267.14.3084.3353.5301.5493.6914.3056.2296.6633.3555.9669.4241.5315.0884.9791.5057 1.0928 1.0822.2594 1.2858.7033 2.1218 1.2197 2.6504.5953.61 1.3187.8189 1.9378.853.5253-.0125 1.0318.2962 1.2572.8229.4385 1.0281 1.0788 2.0247 1.9678 2.8046l-.0029.0031.0029.0014" style="fill:#fff;fill-rule:evenodd"/><path d="m63.1383 41.6007c.4181.3603.8884.6809 1.4137.9465.5085.2565 1.0689.4629 1.6835.6038v.0005c.0691.0162.1666.0363.2925.0593.1205.0221.2268.0408.32.0541v.0003c.0939.0142.1979.0281.3113.0414.1145.013.2202.0238.3155.0317l.0263.0017c2.96.2291 4.7438-.9921 5.804-2.3638 1.0423-1.3487 1.3589-2.8445 1.4232-3.2048.0057-.0323.0091-.0647.0105-.0964.0213-.1386.0862-.2636.1798-.3569.0952-.0952.2225-.1579.3625-.1675.1939-.0131.3926-.0389.5933-.0754l.0278-.0057c.1947-.036.3804-.0811.5558-.1329.1956-.0576.381-.1233.5534-.1956.1839-.0768.3597-.1624.5249-.2549.0196-.011.0383-.0226.0565-.0351.3892-.2262.7423-.4992 1.0482-.8104.3257-.3308.6012-.7042.8164-1.1089l.021-.0431c.1973-.381.3449-.7997.4351-1.2478.089-.4439.1199-.9088.0847-1.3848-.0377-.5113-.1264-.9346-.2636-1.2824-.1596-.403-.3858-.7134-.6766-.9465-.0162-.013-.0329-.0255-.0499-.0368-.3033-.2299-.6755-.3963-1.1132-.5119-.413-.1097-.8903-.1781-1.4281-.2175-.3203-.0232-1.8799-.0484-4.0028-.0688-2.1036-.0199-4.769-.0355-7.3182-.0394-2.0316-.004-3.9903-.0006-5.5304.0133-1.3717.0122-2.414.0329-2.889.0621-.3065.0187-.5998.0632-.8742.1292-.2883.0695-.5545.1636-.7926.2787-.2177.1054-.4156.2293-.5873.3679-.1854.1491-.3422.3164-.4646.4958-.012.0173-.0227.0349-.0329.0527-.0933.1468-.1644.3013-.2104.4609-.0507.1783-.0722.3677-.0612.5636l.0003.0028h-.0003c.0077.1307.0298.2662.0661.4034l.0008.0025-.0008.0003c.0331.1247.0793.2537.1383.3844.0972.2137.216.4014.3495.5649.1324.1622.2798.3002.4343.4161.189.1421.3892.2537.5867.3405.2282.0998.4573.1689.6645.2154l.0439.0085v.0003c.1137.0187.2203.0751.3042.1582.0847.0839.1471.197.1729.3291.0042.0221.0093.0436.0156.0646.1349.6491.3141 1.1948.5235 1.6503.252.5477.5528.9783.8802 1.3136.3447.3529.7223.6007 1.1038.7688.4513.1984.9116.2871 1.332.3098.0258.0014.0513.0014.0765 0 .1052.0017.2107.0354.3025.0955.0969.0635.1783.1568.2279.2733.2475.5805.5573 1.1557.9366 1.6965l.0014.002-.0014.0009c.3277.4668.7095.9087 1.1506 1.307.0275.0315.0581.0612.0915.0887l.034.0264m2.0872-.3892c-.411-.2078-.7784-.4578-1.1041-.737-.0153-.0156-.0312-.0309-.0479-.0456-.3736-.3277-.7016-.7053-.9868-1.1115l-.0014.0008c-.3129-.4467-.5726-.9303-.7832-1.4247-.1715-.4016-.4496-.7219-.7841-.9411-.335-.2188-.7296-.3376-1.1352-.3364-.2512-.0148-.525-.0686-.7929-.1863-.2211-.0975-.4388-.2395-.6349-.4405-.2135-.2185-.4159-.5122-.5933-.898-.1673-.3634-.3107-.8005-.4193-1.3229l-.0082-.0519c-.0856-.4348-.2976-.8135-.589-1.1024-.2977-.2951-.6798-.4969-1.0959-.5703-.1185-.0281-.2478-.0678-.3736-.1228-.1015-.0445-.201-.0992-.288-.1646-.0593-.0446-.1174-.0993-.1707-.1645-.0524-.0643-.1017-.1431-.1442-.2367-.0247-.0549-.044-.1074-.0567-.1559l-.0006.0003c-.0102-.0391-.0167-.0759-.0184-.1077h-.0003c-.0009-.0221.0023-.0456.0088-.0686.0062-.0221.015-.0431.0252-.0618l.0128-.0181c.0402-.059.0966-.1182.1658-.1738.083-.0669.1845-.1298.3005-.1859.1474-.0712.3132-.1296.4938-.1732.1851-.0445.3897-.0752.6105-.0885.4842-.0297 1.4967-.0502 2.8131-.0621 1.5384-.0136 3.4929-.017 5.5185-.0133 2.5396.0037 5.2013.0193 7.3063.0394 2.0583.0196 3.5796.0448 3.9093.0689.451.0329.8382.087 1.1526.1704.2488.0657.4444.1462.5808.2454l.0261.0222c.0853.0683.1584.1768.2196.3313.0828.2101.1378.4862.1639.8374.0258.3515.0056.6823-.0553.9862-.0601.2993-.161.5839-.2968.8478l-.0187.0332c-.1502.2826-.3393.5397-.559.763-.2146.2189-.4581.4085-.7225.5636l-.0482.0246c-.1165.0652-.2396.1253-.3668.1783-.1313.0547-.2656.1032-.4008.1429-.1398.0414-.2761.0751-.4065.0995l-.0247.004c-.1335.0243-.2755.0422-.4238.0521-.5156.0355-.9748.2594-1.3172.6013-.3283.3276-.5502.7653-.6109 1.2492l-.0011.0062c-.0511.2872-.3036 1.4791-1.1302 2.5489-.8039 1.0403-2.1799 1.9644-4.5108 1.7833l-.0133-.0011c-.1009-.0082-.1908-.0173-.2684-.0261-.0786-.0091-.165-.0213-.2586-.0352v.0006l-.0031-.0006c-.1207-.0175-.2126-.0326-.2704-.043-.0646-.0117-.1398-.0281-.2222-.0474l-.0003.0006-.0026-.0006c-.4946-.1131-.9431-.2775-1.3467-.4813" style="fill:#45363b"/></g></svg>