<svg xmlns="http://www.w3.org/2000/svg" height="400" viewBox="0 0 400 400.00001"><g transform="matrix(4.1666753,0,0,-4.1666753,0,400.00004)"><g id="1" style="fill-rule:evenodd"><path d="m47.9999 95.9998c26.5096 0 47.9999-21.4903 47.9999-47.9999 0-26.5096-21.4903-47.9999-47.9999-47.9999-26.5096 0-47.9999 21.4903-47.9999 47.9999 0 26.5096 21.4903 47.9999 47.9999 47.9999" style="fill:#e8e9e7"/><path d="m61.2524 76.5641h2.1331v-.002c.3935 0 .7237-.3064.7469-.7041.1602-2.6615-.6117-4.4331-1.6585-5.2799l-.0003.0003c-.5119-.4135-1.0888-.6202-1.671-.6202-.5857 0-1.1645.2069-1.6747.6197l.0014.0017-.0014.0011c-1.0375.8399-1.8048 2.5923-1.6583 5.2231l-.0003.0102c0 .4142.3359.7501.7501.7501h3.033" style="fill:#45363b"/></g><g style="fill:#45363b"><path d="m60.1081 76.0382c0-.4141-.3359-.75-.7501-.75-.4141 0-.75.3359-.75.75v2.2454c0 .4141.3359.75.75.75.4142 0 .7501-.3359.7501-.75v-2.2454"/><path d="m62.9739 76.0382c0-.4141-.3359-.75-.75-.75-.4142 0-.7501.3359-.7501.75v2.2454c0 .4141.3359.75.7501.75.4141 0 .75-.3359.75-.75v-2.2454"/><path d="m59.5392 71.8121c-.1083.3977.1267.8084.5244.9167.3977.1083.8084-.1267.9167-.5244.0031-.0122 1.1764-4.2092-.4297-6.6186l-.0306-.0426c-.6809-.9935-1.6787-1.5431-2.6436-2.0746-1.1075-.6106-2.1603-1.1909-2.1603-2.4276 0-.756-.1817-1.6107-.5199-2.4483-.4365-1.0823-1.1429-2.1504-2.0605-2.9506-.955-.8325-2.1362-1.3822-3.4857-1.3822-.6492 0-1.3349.1296-2.0489.4176-.6134.2474-1.1724.5669-1.6793.9334-.559.4042-1.0584.8686-1.5009 1.3592-.2764.3073-.2517.781.0555 1.0574.3073.2763.781.2517 1.0574-.0556.3753-.4161.7973-.8087 1.2668-1.1483.4158-.3008.8688-.5607 1.3572-.7577.523-.2109 1.0225-.3059 1.4922-.3059.9564 0 1.8059.4006 2.5015 1.0069.7331.6392 1.3014 1.5026 1.6563 2.3825.2653.6577.4082 1.3178.4082 1.8916 0 2.1197 1.4326 2.9092 2.9398 3.74.8085.4453 1.645.9062 2.1237 1.599l.0233.0374c1.2279 1.842.2389 5.3847.2364 5.3947"/></g></g><path d="m282.97142 151.64661c6.00585 9.93085 6.3971 85.12226.39 96.03228-5.59876 10.16586-70.52056 48.10052-82.97267 48.35302-11.60211.23542-76.91599-37.02133-83.36017-47.67843-6.00585-9.93086-6.39668-85.12226-.38959-96.03229 5.59835-10.16585 70.52015-48.10051 82.97226-48.35343 11.6021-.235 76.91599 37.02174 83.36017 47.67885" style="fill:#f59610;fill-rule:evenodd"/><path d="m285.64434 150.03577c3.30251 5.46001 5.05168 27.53173 5.14001 49.4776.0875 21.76297-1.44208 43.76926-4.68876 49.66677-3.08625 5.60168-21.32712 18.15838-40.28883 29.20756-18.78879 10.94753-38.608 20.61963-45.35676 20.75671-6.40293.12875-26.39047-9.38502-45.4276-20.27379-18.88462-10.80127-37.17549-23.13171-40.66675-28.90631-3.30209-5.46043-5.05167-27.53172-5.14001-49.4776-.0875-21.76296 1.44209-43.76926 4.68876-49.66677 3.08626-5.60209 21.32755-18.15837 40.28884-29.20756 18.7892-10.94752 38.60799-20.61963 45.35676-20.75671 6.40293-.12875 26.39047 9.38502 45.42759 20.27379 18.88462 10.80127 37.17549 23.13172 40.66675 28.90631m-1.08417 49.50135c-.085-21.01212-1.53792-41.77592-4.26167-46.27926-2.92793-4.84126-20.28421-16.33712-38.42008-26.70964-18.25504-10.44085-36.96633-19.57337-42.20551-19.46795-5.65501.11458-24.29296 9.40252-42.35467 19.92754-18.15712 10.58044-35.41299 22.21754-37.94508 26.81464-2.73667 4.97126-4.01709 25.75255-3.93334 46.64051.0854 21.01171 1.53792 41.77592 4.26168 46.27926 2.92792 4.84126 20.28421 16.33712 38.42008 26.70964 18.25504 10.44086 36.96632 19.57296 42.2055 19.46796 5.65543-.11459 24.29297-9.40252 42.35467-19.92754 18.15712-10.58044 35.41299-22.21755 37.94508-26.81464 2.73667-4.97126 4.01709-25.75297 3.93334-46.64052" style="fill:#45363b"/><path d="m194.78555 155.16543c-.033-2.81881 2.22629-5.13302 5.0464-5.16507 2.81881-.0334 5.13302 2.22585 5.16637 5.04595l.21829 14.79486c.0334 2.8201-2.22714 5.13302-5.04595 5.16637-2.82012.033-5.13345-2.22585-5.16638-5.04596l-.21873-14.79615m-36.20315 26.94587c-2.46538-1.36999-3.35155-4.48116-1.98287-6.94654 1.37042-2.46537 4.48246-3.35328 6.94784-1.98287l12.92372 7.20945c2.46408 1.36999 3.35156 4.48116 1.98157 6.94653-1.36912 2.46539-4.48116 3.3533-6.94653 1.98288l-12.92373-7.20945m14.49122-18.31229c-1.44752-2.4199-.65922-5.56183 1.76197-7.00934 2.4199-1.44752 5.56052-.65923 7.00804 1.76197l7.58757 12.7024c1.44753 2.41988.65836 5.56181-1.76153 7.00933-2.4199 1.44753-5.56182.65837-7.00934-1.76153l-7.58671-12.70283m-17.90818 41.41544c-2.81881.033-5.13303-2.22629-5.16507-5.0464-.0334-2.81881 2.22585-5.13302 5.04596-5.16637l14.79484-.21829c2.82012-.0334 5.13303 2.22714 5.16638 5.04595.0334 2.82012-2.22586 5.13345-5.04597 5.16638l-14.79614.21873m26.94587 36.20315c-1.36999 2.46538-4.48117 3.35155-6.94653 1.98287-2.46538-1.37042-3.3533-4.48246-1.98288-6.94784l7.20946-12.92372c1.36998-2.46408 4.48115-3.35156 6.94653-1.98157 2.46537 1.36912 3.35329 4.48116 1.98287 6.94653l-7.20945 12.92373m-18.31186-14.49122c-2.42034 1.44752-5.56183.65922-7.00935-1.76197-1.44795-2.4199-.65964-5.56052 1.76155-7.00804l12.7024-7.58757c2.42033-1.44753 5.56181-.65836 7.00934 1.76153 1.44795 2.4199.65835 5.56182-1.76154 7.00934l-12.7024 7.58671m41.415 17.90818c.033 2.81881-2.22586 5.13303-5.0464 5.16507-2.8188.0334-5.13301-2.22585-5.16636-5.04596l-.21831-14.79484c-.0334-2.82012 2.22716-5.13303 5.04597-5.16638 2.8201-.0334 5.13345 2.22586 5.16638 5.04597l.21872 14.79614m36.20316-26.94587c2.46537 1.36999 3.35199 4.48117 1.98287 6.94653-1.37042 2.46538-4.48246 3.3533-6.94784 1.98288l-12.92372-7.20946c-2.46408-1.36998-3.35157-4.48115-1.98158-6.94653 1.36913-2.46537 4.48159-3.35329 6.94697-1.98287l12.9233 7.20945m-14.49122 18.31186c1.44751 2.42034.65923 5.56183-1.76198 7.00935-2.4199 1.44795-5.56052.65964-7.00804-1.76155l-7.58757-12.7024c-1.44751-2.42033-.65835-5.56181 1.76154-7.00934 2.4199-1.44795 5.56183-.65835 7.00935 1.76154l7.5867 12.7024m17.90818-41.415c2.81881-.033 5.13302 2.22586 5.16507 5.0464.0334 2.8188-2.22585 5.13301-5.04595 5.16636l-14.79486.21831c-2.8201.0334-5.13302-2.22716-5.16637-5.04597-.033-2.8201 2.22585-5.13345 5.04596-5.16638l14.79615-.21872m-26.94587-36.20316c1.36999-2.46537 4.48116-3.35199 6.94654-1.98287 2.46537 1.37042 3.35328 4.48246 1.98287 6.94784l-7.20945 12.92372c-1.36999 2.46408-4.48116 3.35157-6.94653 1.98158-2.46539-1.36913-3.3533-4.48159-1.98288-6.94697l7.20945-12.9233m18.31229 14.49122c2.4199-1.44751 5.56183-.65923 7.00934 1.76198 1.44752 2.4199.65923 5.56052-1.76197 7.00804l-12.7024 7.58757c-2.41988 1.44751-5.56181.65835-7.00933-1.76154-1.44753-2.4199-.65837-5.56183 1.76153-7.00935l12.70283-7.5867" id="0" style="fill:#fbfcfc"><animateTransform attributeName="transform" attributeType="XML" type="rotate" from="0 200 200" to="360 200 200" dur="2s" repeatCount="indefinite"/></path><path d="m87.06393 173.35207c2.206255-1.93709 4.970011-3.45501 8.387101-4.23793.439168-.10291.986252-.20541 1.646254-.3025.557501-.085 1.129169-.15125 1.713753-.19958 15.789202-1.2625 18.827122 12.77503 19.16962 14.70003.18667 1.95584 1.72084 3.54334 3.68626 3.67918 1.03208.0708 2.04209.26 3.01751.54916.99458.29292 1.91208.68167 2.74125 1.14584 2.06 1.16208 3.73959 2.85834 4.82834 4.90959 1.02876 1.94209 1.54042 4.23793 1.35376 6.74668-.19 2.56292-.84792 4.15043-1.96542 5.04585-1.33334 1.065-3.52209 1.57292-6.46168 1.78792-1.93959.14166-18.40296.29875-33.470073.3225-11.29169.0213-21.820046-.0342-24.877969-.22417-1.585003-.0983-2.979589-.44667-4.115841-.99458-.993336-.48084-1.769587-1.10542-2.255005-1.81668-.369584-.54458-.558335-1.16333-.520834-1.82458.02833-.48209.162917-1.00667.415834-1.56501.415834-.91541.995835-1.57458 1.632503-2.05292.907085-.6825 1.970004-1.05583 2.872089-1.26042 1.57792-.26208 2.907923-1.50208 3.24459-3.21375.770002-3.81959 2.089588-6.3021 3.623758-7.87294 1.76792-1.81208 3.916675-2.43333 5.755429-2.53375 1.560419.0379 3.065006-.87959 3.734591-2.44376 1.301669-3.05417 3.20459-6.01417 5.844178-8.33126l-.0083-.001.0083-.003" style="fill:#fff;fill-rule:evenodd"/><path d="m85.10809 170.92582c1.310003-1.13626 2.787506-2.14834 4.436259-2.98084 1.570837-.79626 3.30334-1.43292 5.200428-1.86751l-.0012-.002c.195833-.0458.500834-.1075.907085-.18167.392084-.0721.725001-.12875.982502-.16666v-.002c.28375-.0429.603751-.0863.956669-.12666.362917-.0413.682918-.0742.965002-.0979l.117083-.007c9.151269-.69792 14.684609 3.10292 17.981289 7.37001 3.22292 4.17168 4.20584 8.79794 4.40292 9.91169.0213.11958.0342.23875.0413.35708.0404.19834.13834.37542.27167.50876.13584.13583.31417.22583.50584.23875.58791.04 1.20917.12166 1.85417.2375l.0117.002v-.002c.63334.11541 1.24251.26208 1.82251.43333.61666.18167 1.19792.3875 1.73625.61292.57875.24083 1.13292.51167 1.6525.80208.085.0471.1675.0992.24542.15334 1.20375.7075 2.29167 1.55208 3.23626 2.5125 1.02875 1.045 1.90042 2.22501 2.57834 3.50084l.0946.19334c.62 1.20958 1.08292 2.51375 1.35709 3.88584.02.10041.0354.20083.045.3.2375 1.31.31291 2.66834.21125 4.05126l-.0001.0121h.0001c-.11917 1.60375-.40167 2.94667-.84334 4.06418l-.0779.17916c-.53041 1.26417-1.26833 2.25001-2.20375 2.99918l-.0142.0104.002.002c-1.01459.81-2.27709 1.38875-3.77584 1.78584-1.28501.34125-2.75793.5525-4.40668.67333-.945.0683-5.60335.14375-11.94919.20542-6.24585.0592-14.166281.105-21.740463.11667-6.04168.0121-11.866692.0001-16.441284-.04-4.102926-.0367-7.215432-.0979-8.619602-.18417-.961252-.0592-1.887503-.19958-2.754172-.40875l-.13-.0342c-.880002-.22083-1.68792-.51041-2.403755-.85625-.708335-.3425-1.352086-.74875-1.915421-1.20125-.620418-.49834-1.147086-1.05959-1.55917-1.66542-.05208-.0754-.09917-.15334-.144167-.23167-.311667-.49958-.547917-1.02042-.700418-1.55292-.177084-.62375-.252917-1.28292-.21375-1.96875.02583-.46542.101667-.93584.224584-1.39751l.04958-.1675c.1075-.37458.244167-.74666.409584-1.11041.320001-.70626.718335-1.33001 1.161253-1.87459.440417-.54084.931668-.99917 1.447919-1.38625.692085-.52084 1.411253-.91084 2.108338-1.20001.656668-.27166 1.327503-.46917 1.947504-.60958l.17125-.0329v-.004c.162084-.0258.312084-.10625.427501-.22083.12875-.1275.225834-.30584.265834-.515.01875-.0967.0425-.1925.06958-.28584.4125-1.96542.960418-3.62251 1.598336-5.01126.793752-1.72333 1.746671-3.08625 2.786256-4.15042 1.112502-1.13876 2.330005-1.93834 3.558341-2.47917 1.448336-.63667 2.923339-.92251 4.272092-.99459.09708-.005.19375-.006.289584-.0001.130833-.009.267917-.0579.390834-.13792.1475-.0971.271667-.23875.345001-.4125.755835-1.775 1.70792-3.53834 2.872506-5.20043l.0058-.008-.0058-.003c1.00834-1.43751 2.190838-2.80292 3.55834-4.03709.07-.0742.144167-.14625.222084-.215l.102917-.0863m7.242515 2.58458c-1.140836.57501-2.162504 1.26709-3.067506 2.03834l-.168751.15959c-1.050002.92125-1.977087 1.99-2.787505 3.14417l-.0058-.004c-.889168 1.26958-1.630003 2.65167-2.233338 4.06792-.583751 1.36417-1.528336 2.45168-2.662505 3.19459-1.127919.73709-2.458755 1.13876-3.827925 1.14334-.643335.0404-1.343753.17833-2.029171.47958-.559584.24709-1.111252.60584-1.605003 1.11167-.566668.57959-1.107919 1.37001-1.590837 2.41876-.464167 1.00875-.864585 2.22292-1.169169 3.66834l-.03333.21167c-.287917 1.475-1.00959 2.75792-1.999588 3.73709-1.017918 1.00958-2.318338 1.69458-3.735841 1.94375-.250417.0629-.526668.15-.811251.26708-.284584.11792-.555002.25876-.766669.41792-.119167.09-.239584.20334-.349584.33792-.1075.1325-.2125.30125-.305834.50667-.0425.0946-.07667.17708-.09917.24583l-.02.0804-.01667.0637c.06958.0933.166667.19.285834.28458.1925.15459.435834.30584.720418.44292.359167.1725.752501.3175 1.167919.425l.120833.0263c.494585.11917 1.050836.20167 1.655837.23833 1.442087.0888 4.429176.14875 8.302934.18417 4.56876.0404 10.375022.0508 16.391701.0404 7.535432-.0108 15.4392-.0567 21.69087-.11709 6.07543-.0579 10.57419-.13333 11.55961-.20541 1.28834-.0933 2.38459-.24584 3.25834-.47709.66167-.175 1.16334-.38625 1.48251-.64041l.0001.002c.11333-.0967.22083-.26001.32333-.49376l.004-.11083c.21375-.54.35666-1.27792.4275-2.23375h.00083c.0629-.87042.0263-1.68542-.1025-2.43543-.0237-.0792-.0412-.16041-.0579-.24333-.16291-.81458-.42625-1.56959-.7725-2.25209l-.0671-.11958c-.4075-.76625-.91667-1.46084-1.50625-2.05959-.56917-.57875-1.20709-1.08208-1.89793-1.49417l-.1925-.0992c-.31666-.17708-.65083-.34-.99333-.48291-.36625-.15375-.73584-.28584-1.10084-.39334-.405-.11958-.80292-.2175-1.18708-.28708v-.0001c-.34584-.0613-.73459-.11-1.15959-.13958-1.7575-.12042-3.32001-.88334-4.48376-2.04543-1.09708-1.0925-1.84125-2.5525-2.06084-4.16209l-.001-.0462c-.14292-.80917-.8575-4.17042-3.18167-7.17876-2.23126-2.88793-6.06751-5.45085-12.597942-4.95126l-.0575.005c-.3025.0246-.563751.0504-.769168.0742-.216251.025-.464168.0592-.737085.10042v-.002l-.01292.002c-.3825.0554-.637501.0967-.775835.12167-.157083.0283-.361667.0733-.614168.1325l-.0012-.002-.01083.002c-1.395836.31875-2.660839.78292-3.795841 1.35708" style="fill:#45363b"/><path d="m264.9243 229.1851c3.09417-2.7175 6.9721-4.84626 11.76502-5.94459.61625-.145 1.38292-.28792 2.31001-.42375.78083-.11959 1.58167-.21292 2.4025-.28 22.14797-1.77292 26.41047 17.91962 26.89131 20.62087.26125 2.74376 2.41417 4.96876 5.16959 5.16001 1.44834.0996 2.86543.36417 4.23418.77125 1.395.41 2.68125.95584 3.84459 1.60667 2.89042 1.62959 5.24543 4.00835 6.77501 6.88668 1.44209 2.72501 2.15917 5.9446 1.89792 9.46419-.26791 3.59543-1.18916 5.82168-2.75667 7.07752-1.87209 1.495-4.94043 2.2075-9.06502 2.50958-2.72125.19834-25.81422.41959-46.95134.45251-15.83837.0283-30.6084-.0483-34.89674-.31542-2.22542-.13709-4.18126-.62584-5.77585-1.395-1.3925-.67417-2.48125-1.55167-3.16167-2.54876-.51959-.76292-.78417-1.63084-.73125-2.55917.0404-.67709.22833-1.41167.58375-2.19459.58333-1.285 1.39708-2.20875 2.28875-2.88084 1.27334-.95667 2.76376-1.48125 4.02876-1.76709 2.21459-.36833 4.07959-2.10708 4.55334-4.50917 1.08084-5.35751 2.93043-8.84085 5.0821-11.04336 2.48042-2.54167 5.49459-3.41209 8.07418-3.55417 2.18876.0521 4.29918-1.23417 5.23835-3.42876 1.82708-4.28376 4.495-8.43627 8.19918-11.68586l-.0121-.0129.0121-.006" style="fill:#fff;fill-rule:evenodd"/><path d="m263.0768 226.66343c1.74208-1.50125 3.70167-2.83709 5.89042-3.94376 2.11876-1.06875 4.45376-1.92875 7.0146-2.51584v-.002c.28792-.0675.69417-.15125 1.21875-.24708.50209-.0921.94501-.17 1.33334-.22542v-.0001c.39125-.0592.82459-.11708 1.29709-.1725.47708-.0542.9175-.0992 1.31458-.13208l.10959-.007c12.33335-.95458 19.76587 4.13376 24.18338 9.84919 4.34293 5.61959 5.66209 11.85211 5.93001 13.35336.0238.13458.0379.26958.0437.40167.0888.5775.35917 1.09833.74917 1.48708.39667.39667.92709.65792 1.51042.69792.80792.0546 1.63584.16209 2.47209.31417l.11583.0238c.81125.15 1.58501.33792 2.31584.55375.815.24 1.5875.51375 2.30584.815.76625.32 1.49875.67667 2.18709 1.06209.0817.0458.15958.0942.23541.14625 1.62167.9425 3.09293 2.08 4.36751 3.37667 1.35709 1.37834 2.50501 2.93418 3.40168 4.62043l.0875.17958c.82208 1.58751 1.43708 3.33209 1.81292 5.19918.37083 1.84959.49958 3.78667.35291 5.77001-.15708 2.13042-.52666 3.89418-1.09833 5.34335-.665 1.67917-1.6075 2.9725-2.81917 3.94375-.0675.0542-.13709.10625-.20792.15334-1.26375.95792-2.81459 1.65125-4.63834 2.13292-1.72084.45708-3.7096.74208-5.95043.90625-1.33459.0967-7.83294.20167-16.67837.28667-8.76502.0829-19.87088.14792-30.49256.16417-8.46502.0167-16.62629.002-23.04339-.0554-5.71542-.0508-10.05835-.13709-12.03752-.25875-1.27709-.0779-2.49917-.26334-3.64251-.53834-1.20125-.28958-2.31042-.68166-3.3025-1.16125-.90709-.43917-1.73167-.95542-2.44709-1.53292-.7725-.62125-1.42584-1.31833-1.93584-2.06584-.05-.0721-.0946-.14541-.13708-.21958-.38875-.61167-.68501-1.25542-.87667-1.92042-.21125-.74292-.30084-1.53209-.255-2.34834l.0001-.0117h-.0001c.0321-.54458.12416-1.10916.27541-1.68083l.003-.0104-.003-.0001c.13792-.51958.33042-1.05708.57626-1.60167.405-.89042.9-1.6725 1.45625-2.35375.55167-.67584 1.16583-1.25084 1.80959-1.73376.7875-.59208 1.62167-1.05708 2.44458-1.41875.95084-.41583 1.90542-.70375 2.76876-.8975l.18292-.0354v-.0001c.47375-.0779.91792-.31292 1.2675-.65917.35292-.34958.61292-.82083.72042-1.37125.0175-.0921.0387-.18167.065-.26917.56208-2.70459 1.30875-4.97834 2.18125-6.87626 1.05-2.28209 2.30334-4.07626 3.66751-5.47335 1.43625-1.47042 3.00959-2.50292 4.59918-3.20334 1.88042-.82666 3.79834-1.19625 5.55001-1.29083.1075-.006.21375-.006.31875 0 .43833-.007.87792-.1475 1.26042-.39792.40375-.26458.74292-.65333.94958-1.13875 1.03125-2.41876 2.32209-4.81543 3.90251-7.06877l.006-.008-.006-.004c1.36542-1.945 2.95626-3.78626 4.79418-5.44584.11458-.13126.24208-.25501.38125-.36959l.14167-.11m8.69668 1.62167c-1.7125.86584-3.24334 1.9075-4.60043 3.07084-.0637.065-.13.12875-.19958.19-1.55667 1.36542-2.92334 2.93876-4.11168 4.63126l-.006-.003c-1.30375 1.86125-2.38584 3.87626-3.26334 5.93626-.71458 1.67334-1.87334 3.00792-3.26709 3.92126-1.39584.91167-3.04001 1.40667-4.73001 1.40167-1.04667.0617-2.1875.28583-3.30376.77625-.92125.40625-1.82833.99792-2.64542 1.83542-.88958.91042-1.73292 2.13417-2.47209 3.74167-.69708 1.51417-1.29458 3.33543-1.74708 5.5121l-.0342.21625c-.35667 1.81167-1.24 3.38959-2.45417 4.59334-1.24042 1.22959-2.83251 2.07042-4.56626 2.37626-.49375.11708-1.0325.2825-1.55667.51166-.42292.18542-.8375.41334-1.2.68584-.24709.18583-.48917.41375-.71125.68542-.21834.26791-.42376.59625-.60084.98625-.10292.22875-.18333.4475-.23625.64958l-.002-.0001c-.0425.16292-.0696.31625-.0767.44875h-.0001c-.004.0921.001.19001.0367.28584.0258.0921.0625.17958.105.2575l.0533.0754c.1675.24583.4025.4925.69084.72416.34583.27875.76875.54084 1.25208.77459.61417.29667 1.30501.54 2.05751.72167.77125.18541 1.62375.31333 2.54375.36875 2.01751.12375 6.23627.20917 11.72128.25875 6.41001.0567 14.55378.0708 22.9938.0554 10.58168-.0154 21.67212-.0804 30.44298-.16417 8.57626-.0817 14.91503-.18667 16.28878-.28709 1.87917-.13708 3.49251-.3625 4.80251-.71 1.03667-.27375 1.85167-.60916 2.42-1.0225l.10875-.0925c.35542-.28458.66001-.73667.91501-1.38042.345-.87542.57416-2.02584.68291-3.48917.1075-1.46459.0233-2.84293-.23041-4.10918-.25042-1.24708-.67084-2.43292-1.23667-3.53251l-.0779-.13833c-.62583-1.1775-1.41375-2.24875-2.32917-3.17917-.89417-.91209-1.90875-1.70209-3.01042-2.34834l-.20084-.1025c-.48541-.27167-.99833-.52208-1.52833-.74292-.54709-.22792-1.10667-.43-1.67001-.59542-.5825-.1725-1.15042-.31291-1.69375-.41458l-.10292-.0167c-.55625-.10125-1.14792-.17583-1.76583-.21708-2.14834-.14792-4.06168-1.08084-5.48835-2.50542-1.36792-1.36501-2.2925-3.18876-2.54542-5.20501l-.005-.0258c-.21292-1.19667-1.26501-6.16293-4.70918-10.62044-3.34959-4.33459-9.08294-8.18501-18.79504-7.43043l-.0554.005c-.42041.0342-.795.0721-1.11833.10875-.3275.0379-.6875.0888-1.0775.14666v-.002l-.0129.002c-.50292.0729-.88584.13584-1.12667.17917-.26917.0488-.5825.11708-.92584.1975l-.0001-.003-.0108.003c-2.06084.47125-3.92959 1.15625-5.61126 2.00542" style="fill:#45363b"/></svg>