<svg xmlns="http://www.w3.org/2000/svg" viewBox="0 0 110 90.000001"><g style="fill-rule:evenodd"><g style="fill:#e6e6e6"><path id="2" d="m64.999601-.00009c24.852917 0 44.999999 20.14708 44.999999 44.99999 0 24.8525-20.14708 45.0001-44.999999 45.0001-24.852917 0-45-20.1476-45-45.0001 0-24.85291 20.14708-44.99999 45-44.99999"/><path id="3" d="m30.845851 63.4912c-2.734584-5.5817-4.270834-11.8571-4.270834-18.4913 0-6.6354 1.5375-12.91203 4.271667-18.4937 2.328333-.2125 4.645417-2.59708 6.851667-2.48167 2.133333.0192 23.976666 10.20959 23.976666 14.95627 0 4.6466 0 7.2946 0 11.9412 0 5.7709-21.247083 14.8913-23.579583 15.0304-2.327083.1396-4.78375-2.2358-7.249583-2.4612"/></g><path id="1" d="m40.755017 46.8741v.9225h7.164584c1.725833 0 3.125416 1.3996 3.125416 3.1254 0 1.7254-1.399583 3.125-3.125416 3.125h-7.164584v1.715h-.0083c0 1.6396-1.276667 3.0154-2.93375 3.1121-11.08917.6675-18.47125-2.5487-21.999167-6.9104h.0012c-.975833-1.207-1.675-2.5016-2.0975-3.8375h-10.5925c-1.725417 0-3.125-1.3995-3.125-3.125 0-1.7258 1.399583-3.1254 3.125-3.1254h10.5875c.422917-1.345 1.123333-2.6441 2.1-3.8525l.0071.001.005-.001c3.499584-4.32288 10.800834-7.51997 21.762917-6.90955l.0425-.0001c1.725417 0 3.125 1.39958 3.125 3.12542v1.61916h7.164584c1.725833 0 3.125416 1.39959 3.125416 3.12507 0 1.7258-1.399583 3.1254-3.125416 3.1254h-7.164584v4.7679z" style="fill:#564a4c"/><g transform="translate(-690.90466,-3916)" style="shape-rendering:geometricPrecision;image-rendering:optimizeQuality"><path d="m750 3963c-2-1-2-3 0-4 1-1 3-1 4 0l6 6 15-15c1-1 3-1 4 0 1 1 1 3 0 5l-17 17c-1 1-3 1-4 0l-8-9" style="fill:#3c6;fill-rule:nonzero"/></g></g></svg>