<svg xmlns="http://www.w3.org/2000/svg" viewBox="0 0 170 170"><g transform="translate(0,-882.36216)"><path d="m84.999999 882.36215c46.943941 0 85 38.05606 85 85 0 46.94395-38.05606 84.99995-85 84.99995-46.943936 0-84.999999-38.056-84.999999-84.99995 0-46.94394 38.05606-85 84.999999-85" style="fill:#e8e9e7;fill-rule:evenodd"/><g transform="matrix(4.1666462,0,0,-4.1666462,0.00124999,1052.3609)"><path d="m18.0746 28.5491c.5275.4632 1.188.826 2.0046 1.0131.1052.0247.2359.0491.3937.0723.1333.0204.2699.036.4097.0476 3.7743.3022 4.5008-3.0537 4.5824-3.5141.0445-.4674.4116-.8467.8813-.8793.2466-.017.4882-.0621.7214-.1315.2379-.0697.457-.1627.6554-.2735.4924-.2781.8938-.6835 1.1543-1.1739.246-.4643.3679-1.0131.3234-1.6129-.0453-.6126-.2027-.9921-.4697-1.2061-.3189-.2546-.8419-.3759-1.5449-.4275-.4637-.034-4.3991-.0714-8.001-.0771-2.6992-.0051-5.2163.0082-5.9471.0536-.379.0235-.7124.1068-.9842.2378-.2373.1148-.4229.2645-.5389.4343-.0884.1301-.1335.2781-.1244.4362.0068.1154.0388.2404.0995.3739.0992.2191.2381.3765.39.491.2169.163.4709.2525.6866.301.3773.0629.695.3592.7758.7685.1843.913.4995 1.5066.866 1.8822.4226.4331.9366.5814 1.3762.6055.3728-.0088.7325.2103.8927.5842.3112.7302.7659 1.4377 1.3972 1.9916l-.002.0023.002.0008" style="fill:#fff;fill-rule:evenodd"/><path d="m17.6068 29.1291c.3133.2716.6665.5136 1.0605.7126.3756.1905.7897.3427 1.2433.4465l-.0003.0006c.0467.011.1196.0258.2168.0433.0936.0173.1732.0309.235.04v.0006c.0678.0102.1443.0207.2285.03.0867.0099.1633.0179.2307.0235l.0281.0017c2.1875.167 3.5104-.7418 4.2984-1.7617.7705-.9972 1.0055-2.1033 1.0525-2.3695.0051-.0286.0083-.057.001-.0853.0096-.0473.0331-.0899.0649-.1216.0326-.0326.0751-.0541.1207-.0573.1406-.0093.2892-.0289.4434-.0567l.0028-.0005v.0005c.1514-.0275.2971-.0626.4357-.1034.1474-.0437.2863-.0927.415-.1466.1383-.0575.271-.1224.3951-.1919.0202-.011.04-.0235.0587-.0365.2877-.1693.5477-.3711.7736-.6007.246-.2497.4544-.5318.6165-.8368l.0224-.0462c.1483-.2891.2591-.6009.3246-.9289.0048-.0241.0085-.0482.0108-.0717.0566-.3133.0748-.6381.0504-.9686l-.0003-.0029h.0003c-.0286-.3835-.0961-.7044-.2015-.9714l-.0187-.0431c-.1267-.3022-.3033-.5377-.527-.7169l-.0034-.0025.0006-.0006c-.2424-.1936-.5443-.3319-.9026-.4269-.3073-.0816-.6593-.1321-1.0533-.161-.226-.0161-1.3397-.0343-2.8568-.049-1.493-.0142-3.3863-.025-5.197-.0278-1.4443-.0028-2.8367-.0003-3.9303.0093-.981.0088-1.7249.0236-2.0608.0443-.2296.0141-.451.0476-.6582.0975l-.0311.0082c-.2104.053-.4034.1222-.5746.2047-.1695.0819-.3232.1791-.4578.2871-.1483.1194-.2744.2534-.3728.3983-.0125.0181-.0238.0365-.0346.0553-.0745.1193-.1309.244-.1672.3713-.0425.1491-.0607.3067-.0513.4705.0062.1114.0244.2237.0536.3342l.0119.04c.0258.0896.0586.1786.098.2653.0766.169.1718.3181.2776.4482.1054.1293.2228.239.3461.3317.1655.1244.3376.2177.504.2868.157.0649.3174.112.4657.1457l.0408.0077v.0008c.0389.0063.0746.0255.1024.053.0306.0304.0538.0732.0634.1231.0046.0232.0103.0459.0168.0683.0983.47.2293.866.3818 1.1979.1899.4121.4175.7378.6661.9924.2659.2721.557.4632.8507.5924.3461.1523.6988.2206 1.0213.2379.0233.0011.0462.0014.0692.0003.0312.0022.0641.0138.0935.0328.0352.0233.065.0573.0823.0987.1808.4243.4084.8458.6868 1.2433l.0014.0019-.0014.0009c.2412.3435.5238.6698.8507.9649.0167.0179.0345.0352.053.0516l.0246.0204m1.7314-.6177c-.2727-.1374-.517-.303-.7333-.4872l-.0402-.0383c-.2512-.2203-.4729-.4757-.6665-.7515l-.0014.0009c-.2126-.3036-.3897-.6339-.534-.9726-.1395-.326-.3654-.5862-.6364-.7636-.2696-.1764-.5879-.2722-.915-.2733-.154-.0096-.3215-.0428-.485-.1148-.1338-.059-.2659-.1449-.3838-.2656-.1355-.1386-.2648-.3274-.3805-.5783-.1108-.2412-.2066-.5315-.2795-.877l-.0079-.0505c-.0689-.3526-.2412-.6593-.4779-.8935-.2435-.2412-.5542-.405-.8929-.4646-.0601-.015-.1262-.036-.1942-.0637-.068-.0284-.1327-.0618-.1831-.1001-.0286-.0213-.0573-.0485-.0836-.0808-.0258-.0315-.0508-.072-.0732-.121-.0102-.0227-.0184-.0423-.0238-.0587l-.0048-.0193-.004-.0153c.0168-.0221.04-.0453.0683-.068.0462-.0369.1044-.0732.1724-.1057.0859-.0414.18-.076.2792-.1018l.0289-.0062c.1182-.0284.2512-.0482.3957-.057.3447-.0213 1.0591-.0355 1.9851-.044 1.0919-.0096 2.4801-.0122 3.9184-.0096 1.8014.0026 3.6907.0136 5.1854.0278 1.4522.0139 2.5276.032 2.7632.0493.3081.0221.57.0587.779.114.1581.0419.278.0924.3543.153l.0003-.0005c.0272.0232.053.062.0774.1179l.0099.0266c.051.129.0853.3056.1023.5341h.0003c.0147.208.0062.4028-.0247.5819-.0056.019-.0099.0386-.0139.0584-.0388.1948-.1017.375-.1845.5383l-.0162.0286c-.0975.1832-.2191.3493-.36.4924-.136.1384-.2885.2585-.4538.3572l-.0459.0238c-.0757.0422-.1556.0811-.2375.1154-.0876.0365-.1758.0683-.2631.0941-.0969.0283-.1919.0519-.2837.0686v.0003c-.0828.0144-.1758.026-.2773.0331-.4201.0289-.7937.2112-1.0718.489-.2624.2614-.4402.6103-.4926.995l-.0023.011c-.0343.1936-.2052.997-.7608 1.7161-.5332.6905-1.4505 1.3031-3.0115 1.1838l-.0139-.0012c-.0723-.0059-.1347-.0122-.1837-.0178-.0516-.006-.1108-.0142-.1763-.0238v.0002l-.0031-.0002c-.0913-.0134-.1523-.0233-.1854-.0292-.0374-.0068-.0865-.0176-.1469-.0318l-.0002.0006-.0026-.0006c-.3336-.0762-.6361-.1871-.9074-.3243" style="fill:#45363b"/></g><path d="m84.52167 965.19341c.559997 8.80412-1.579159 17.83575-6.637884 25.75987l-3.512483-2.41748c-1.981657-1.35708-4.666643-.0367-4.850809 2.30165l-2.194573 14.84075c-.347081 2.3667 1.99874 4.1833 4.17873 3.3412l.0025.001 15.388674-5.9762c2.390405-.9204 2.669154-4.14955.571664-5.50413l-4.471645-3.07665c5.913721-9.17704 8.394126-19.66407 7.700796-29.88069-2.034157.28458-4.09248.48917-6.17497.60458" style="fill:#45363b"/></g></svg>