<svg xmlns="http://www.w3.org/2000/svg" viewBox="0 0 170 170"><g transform="translate(0,-882.36216)"><path d="m84.999999 882.36215c46.943941 0 85 38.05606 85 85 0 46.94395-38.05606 84.99995-85 84.99995-46.943936 0-84.999999-38.056-84.999999-84.99995 0-46.94394 38.05606-85 84.999999-85" style="fill:#e6e6e6;fill-rule:evenodd"/><g transform="matrix(4.1666462,0,0,-4.1666462,0.00124999,1052.3609)" style="fill:#564a4c"><path d="m20.3998 13.3654c-.4708 0-.8974-.1908-1.205-.4984-.3076-.3075-.4983-.7341-.4983-1.205 0-.4708.1907-.8969.4983-1.2044.3076-.3076.7342-.4989 1.205-.4989.4708 0 .8975.1913 1.205.4989.3076.3075.4983.7336.4983 1.2044 0 .4709-.1907.8975-.4983 1.205-.3075.3076-.7342.4984-1.205.4984"/><path d="m20.3998 30.8412h.0003c.9368 0 1.703-.7662 1.703-1.703v-12.7874c0-.9368-.7662-1.7031-1.703-1.7031h-.0003c-.9368 0-1.703.7663-1.703 1.7031v12.7874c0 .9368.7662 1.703 1.703 1.703" style="fill-rule:evenodd"/></g></g></svg>