<svg xmlns="http://www.w3.org/2000/svg" viewBox="0 0 170 170"><defs><clipPath id="0"><path d="m-9-9h59v59h-59v-59"/></clipPath><clipPath id="1"><path d="m28.5296 21.5889l-.6375 4.2169c-.2288 1.5148-.1361 2.7297-1.3303 2.209-1.5242-.6639-4.2044-1.4995-7.0178-.8133-2.6974.6577-4.5612-.0547-5.5797-.6817l1.446-9.5661c.928.6554 2.8922 1.6042 5.8753.8768 2.5838-.6299 5.0551.0229 6.6212.6477 1.2926.5159.8297 1.741.6228 3.1107"/></clipPath></defs><g transform="translate(0,-882.36216)"><g transform="matrix(4.1666462,0,0,-4.1666462,0.00124999,1052.3609)" style="clip-path:url(#0)"><g style="fill-rule:evenodd"><path d="m20.3998 40.7999c11.2666 0 20.4001-9.1335 20.4001-20.4001 0-11.2666-9.1335-20.4001-20.4001-20.4001-11.2666 0-20.4001 9.1335-20.4001 20.4001 0 11.2666 9.1335 20.4001 20.4001 20.4001" style="fill:#e6e6e6"/><path d="m28.5296 21.5889l-.6375 4.2169c-.2288 1.5148-.1361 2.7297-1.3303 2.209-1.5242-.6639-4.2044-1.4995-7.0178-.8133-2.6974.6577-4.5612-.0547-5.5797-.6817l1.446-9.5661c.928.6554 2.8922 1.6042 5.8753.8768 2.5838-.6299 5.0551.0229 6.6212.6477 1.2926.5159.8297 1.741.6228 3.1107" style="fill:#fff"/></g><g style="clip-path:url(#1)"><path d="m16.816 25.071l-.3518 2.3267c-1.0962-.1497-1.9304-.5272-2.4999-.8779l.3518-2.3264c.5695.3507 1.4034.728 2.4999.8776l.3515-2.3267c-1.0965-.1496-1.9304-.5269-2.4999-.8776l.3515-2.3266c.5698.3506 1.4037.7282 2.4999.8779l.3517-2.3267c-1.0964-.1497-1.9304-.527-2.4998-.8776l.2165-1.4321c.512.3614 1.3388.8121 2.4778 1.0219l-.1945 1.2878c.8541.1162 1.8669.0944 3.0382-.186l-.3515 2.3267c.0139-.0034.0275-.0068.0414-.0102.9454-.2305 1.876-.2894 2.7524-.2407l.3515-2.3264c-.8764-.049-1.8068.001-2.7524.2407l-.0414.0099.1755-1.1625c.1244-.0249.2506-.0533.3784-.0844.83-.2024 1.6483-.2727 2.4287-.2537l-.1888 1.25c1.0143.0564 1.9562.2569 2.7658.5021l.2004-1.3275c1.0415.2871 1.8924.6616 2.4389.9354l-.2109 1.3935c-.4595-.2471-1.32-.6661-2.4284-1.0014l-.3515 2.3263c1.1084.3354 1.969.7543 2.4282 1.0018l-.3515 2.3264c-.4592-.2472-1.3201-.6661-2.4285-1.0015l-.3515 2.3267c1.1084.3353 1.969.7543 2.4282 1.0015l-.3515 2.3267c-.4592-.2475-1.3201-.6665-2.4282-1.0018l.3515-2.3264c-.8095-.2452-1.7515-.4459-2.7657-.502l-.3515 2.3264c-.8765-.0488-1.8071.0102-2.7525.2406-.0139.0034-.0277.0068-.0416.0102l.3517-2.3266c-1.1712.2803-2.1843.3021-3.0381.1859m.703-4.653l-.3515 2.3263c.854.1163 1.8669.0947 3.0381-.1859l-.3515 2.3267c.0139-.0034.0275-.0068.0414-.001.9457-.2307 1.876-.2897 2.7525-.2406l.3515-2.3267c-.8765-.049-1.8068.0099-2.7525.2407l-.0411.0099h-.0003.0003l.3512-2.3264c-1.1712.2803-2.1843.3022-3.0381.186m8.598.0651c-.8099-.2449-1.7515-.4456-2.7658-.502l-.3517 2.3267c1.0142.0564 1.9562.2568 2.7657.502l.3518-2.3267" style="fill:#564a4c;fill-rule:evenodd"/></g><g style="fill:#564a4c"><path d="m27.7886 21.4775l-.6375 4.2169c-.0377.2511-.0675.494-.095.7219-.0552.4587-.1032.8524-.1851 1.0401-.028.0646.0309-.1092-.0105-.127-.8053-.3507-1.9176-.7478-3.2011-.9658-1.2969-.2202-2.7717-.2593-4.2911.1114-1.044.2543-1.9497.2843-2.7159.1908-.7679-.0938-1.3904-.3104-1.8697-.5465l1.2047-7.9699c.5454.2557 1.2203.4856 2.0228.6052.9638.144 2.1155.1278 3.4512-.1976 1.0185-.2483 2.0234-.2795 2.9526-.1885 1.2543.1227 2.3745.4677 3.2176.8039.532.2123.4093.8918.2647 1.6886-.0425.2361-.0876.4827-.1077.6165m.8444 4.4397l.6376-4.2169c.0408-.2704.0691-.424.0963-.5757.2617-1.4431.4853-2.6742-1.1849-3.3406-.9459-.3773-2.2064-.7648-3.6274-.9037-1.0778-.1054-2.2482-.068-3.4447.2237-1.1225.2735-2.0835.288-2.8831.1686-1.0919-.1627-1.8783-.578-2.3593-.9124-.0978-.0754-.2152-.1279-.3458-.1474-.4091-.0616-.7909.2205-.8524.6295l-1.446 9.5661.0023.0003c-.0431.2869.0839.5848.3461.7466.6596.406 1.6305.8439 2.8993.9987.9204.1125 2.0047.0771 3.2488-.2259 1.2937-.3155 2.5668-.2795 3.6935-.0882 1.1407.1939 2.1317.5477 2.8497.8603 1.0732.468 1.6305.1537 1.9789-.6463.1737-.3982.2332-.8895.3024-1.4618.0258-.2137.0536-.4416.0887-.6749"/><path d="m17.168 10.3385c.0615-.409-.2205-.7908-.6295-.8524-.4091-.0615-.7909.2206-.8524.6296l-2.7366 18.1046c-.0615.4091.2205.7909.6296.8524.409.0615.7909-.2205.8524-.6296l2.7365-18.1046"/></g></g></g></svg>