<svg xmlns="http://www.w3.org/2000/svg" viewBox="0 0 400 400.00001" height="400"><defs><clipPath id="2"><path d="m97.0226 1136.5288l-.8805 5.826c-.3163 2.0929-.1879 3.7715-1.838 3.0524-2.1061-.9173-5.809-2.0719-9.6962-1.1237-3.7267.9085-6.3017-.075-7.7088-.9419l1.9976-13.2168c1.2821.9053 3.996 2.2164 8.1176 1.2115 3.5696-.8703 6.984.032 9.1479.8946 1.7861.7129 1.1464 2.4055.8604 4.2979"/></clipPath><clipPath id="1"><path d="m95.3487 1130.5794c1.4414-2.3833 1.5352-20.4293.0935-23.0476-1.3436-2.4398-16.9248-11.5441-19.9133-11.6048-2.7845-.056-18.4598 8.8852-20.0064 11.4429-1.4414 2.3834-1.5353 20.4293-.0936 23.0477 1.3437 2.4398 16.9249 11.5441 19.9134 11.6047 2.7845.056 18.4598-8.8852 20.0064-11.4429"/></clipPath><clipPath><path d="m67.913 59.6047c1.4414-2.3834 1.5353-20.4293.0936-23.0477-1.3437-2.4398-16.9249-11.5441-19.9134-11.6047-2.7845-.0565-18.4598 8.8851-20.0064 11.4428-1.4414 2.3834-1.5352 20.4293-.0935 23.0477 1.3436 2.4398 16.9248 11.5441 19.9133 11.6048 2.7845.0564 18.4598-8.8852 20.0064-11.4429"/></clipPath><clipPath id="0"><path d="m-9-9h860v1209h-860v-1209"/></clipPath></defs><g transform="matrix(4.1666753,0,0,-4.1666753,-114.31565,4862.4042)"><g style="clip-path:url(#0)"><g style="fill-rule:evenodd"><path d="m75.4356 1166.9746c26.5096 0 47.9999-21.4903 47.9999-47.9999 0-26.5096-21.4903-47.9999-47.9999-47.9999-26.5096 0-47.9999 21.4903-47.9999 47.9999 0 26.5096 21.4903 47.9999 47.9999 47.9999" style="fill:#e6e6e6"/><path d="m95.3487 1130.5794c1.4414-2.3833 1.5352-20.4293.0935-23.0476-1.3436-2.4398-16.9248-11.5441-19.9133-11.6048-2.7845-.056-18.4598 8.8852-20.0064 11.4429-1.4414 2.3834-1.5353 20.4293-.0936 23.0477 1.3437 2.4398 16.9249 11.5441 19.9134 11.6047 2.7845.056 18.4598-8.8852 20.0064-11.4429" style="fill:#ccc"/></g><g style="clip-path:url(#1)"><g><path d="m75.5289 1121.7895h-12.0518c-1.5112 0-2.7474-1.2362-2.7474-2.7471v-26.6462c0-.7053.5772-1.2821 1.2821-1.2821h4.4397c.7038 0 .5782 1.2863 1.2821 1.2821h15.5905c.7042 0 .578-1.2821 1.2821-1.2821h4.4397c.7049 0 1.2821.5768 1.2821 1.2821v26.6462c0 1.5109-1.2362 2.7471-2.7474 2.7471h-12.0517" style="fill:#fff;fill-rule:evenodd"/><path d="m75.5289 1121.0394h-12.0518c-.5485 0-1.0483-.225-1.4103-.587h-.0028c-.3603-.3603-.5842-.8595-.5842-1.41v-26.6462c0-.1474.0592-.2806.1539-.3753h.0028c.0964-.096.2296-.1568.3753-.1568h4.4397c.1301 0-.0859.099-.042.1968.2441.5417.4887 1.0837 1.3241 1.0794h15.5905c.8357 0 1.08-.5377 1.3241-1.0794.0439-.098-.1726-.1968-.042-.1968h4.4397c.1457 0 .2789.06.3753.1568h.0028c.0947.095.1539.2279.1539.3753v26.6462c0 .5505-.2239 1.0497-.5842 1.41h-.0028c-.362.362-.8618.587-1.4103.587h-12.0517m-12.0518 1.5001h12.0518 12.0517c.9621 0 1.8369-.3934 2.4704-1.027h-.0014c.6344-.6349 1.0284-1.5091 1.0284-2.4687v-26.6462c0-.5567-.2293-1.0647-.5981-1.4341h.0014c-.3679-.3679-.8762-.5967-1.4354-.5967h-4.4397c-.8331 0-1.0783.5426-1.322 1.0851l-.0012-.0005c-.0448.1.1775.2015.044.2007h-.0029-15.5905-.0029c-.1338.0008.0888-.1012.044-.2007l-.0012.0005c-.244-.5428-.4895-1.0851-1.322-1.0851h-4.4397c-.5592 0-1.0675.2288-1.4354.5967h.0014c-.3688.3694-.5981.8774-.5981 1.4341v26.6462c0 .9596.394 1.8338 1.0284 2.4687h-.0014c.6335.6336 1.5083 1.027 2.4704 1.027" style="fill:#564a4c"/><g style="fill:#f7a21c;fill-rule:evenodd"><path d="m88.0503 1098.4873v.001 18.2296 2.3167c0 .2537-.2157.4692-.4694.4692h-24.1038c-.2537 0-.4694-.2155-.4694-.4692v-2.3167-18.2296-.001-2.3168c0-.2537.2157-.4691.4694-.4691h24.1038c.2537 0 .4694.2154.4694.4691v2.3168"/><path d="m75.5289 1099.2569c1.3115 0 2.3748-1.0633 2.3748-2.3749 0-1.3116-1.0633-2.3749-2.3748-2.3749-1.3116 0-2.3749 1.0633-2.3749 2.3749 0 1.3116 1.0633 2.3749 2.3749 2.3749"/></g><g style="fill:#564a4c"><path d="m73.7365 1121.9652c.0068.029 2.5143 10.0449-3.5226 10.0449-.4445 0-.8459-.053-1.2039-.1522-.9728-.271-1.7002-.9066-2.1866-1.8043-.5225-.9641-.7804-2.2331-.7804-3.6938 0-1.3567.2214-2.8619.6585-4.4306l-1.4412-.3985c-.4762 1.7093-.7174 3.3497-.7174 4.8291 0 1.7022.318 3.2133.9624 4.4025.6806 1.2557 1.7129 2.1486 3.1062 2.5367.4969.1386 1.0318.2112 1.6024.2112 7.9628 0 4.9839-11.8627 4.9756-11.8965l-1.453.3515"/><path d="m68.6716 1106.123c-.4142 0-.7501.3359-.7501.75 0 .4141.3359.7501.7501.7501h13.7145c.4142 0 .7501-.336.7501-.7501 0-.4141-.3359-.75-.7501-.75h-13.7145"/></g></g></g><g style="fill:#564a4c"><path d="m95.9902 1130.9661c.7925-1.3105 1.2124-6.6076 1.2336-11.8746.021-5.2232-.3461-10.5047-1.1253-11.92-.7407-1.3445-5.1186-4.358-9.6693-7.0098-4.5094-2.6274-9.2659-4.9487-10.8856-4.9816-1.5367-.031-6.3337 2.2524-10.9026 4.8657-4.5323 2.5922-8.9221 5.5516-9.76 6.9375-.7926 1.3104-1.2124 6.6075-1.2336 11.8746-.021 5.2231.3461 10.5046 1.1253 11.92.7407 1.3444 5.1185 4.3579 9.6693 7.0098 4.5093 2.6274 9.2659 4.9487 10.8856 4.9816 1.5367.031 6.3337-2.2524 10.9026-4.8657 4.5323-2.5923 8.9221-5.5517 9.76-6.9375m-.2602-11.8803c-.0205 5.0428-.3691 10.0261-1.0228 11.107-.7027 1.1619-4.8682 3.9209-9.2208 6.4103-4.3812 2.5058-8.8719 4.6975-10.1293 4.6723-1.3573-.027-5.8303-2.2567-10.1651-4.7826-4.3577-2.5393-8.4991-5.3323-9.1068-6.4355-.6568-1.1931-.9641-6.1807-.944-11.1937.0204-5.0429.3691-10.0262 1.0228-11.107.7027-1.162 4.8682-3.9209 9.2208-6.4103 4.3812-2.5058 8.8719-4.6976 10.1293-4.6723 1.3572.027 5.8303 2.2566 10.165 4.7826 4.358 2.5392 8.4992 5.3322 9.1069 6.4355.6568 1.1931.9641 6.1806.944 11.1937"/><path d="m58.1219 1102.8393c.2168-2.0914 1.0768-4.1295 2.5795-5.792l.7299.7072c.4119.3974 1.0953.1931 1.2311-.3492l1.103-3.4013c.1751-.5426-.3042-1.0621-.8499-.9505h-.0003l-3.8534.7957c-.5984.1216-.7917.8694-.352 1.2711l.9292.9c-1.7533 1.923-2.7511 4.2897-2.9923 6.7184.4893.014.9811.047 1.4752.1023"/><path d="m88.1008 1127.2652l1.4482-.3167c.1644-.035.269-.1975.2333-.3619-.0261-.1219-.1219-.2107-.2364-.2342l-1.4451-.3158-.3166-1.4482c-.0355-.1644-.1976-.269-.362-.2336-.1216.026-.2104.1219-.2342.2367l-.3157 1.4451-1.4483.3164c-.1644.036-.269.1978-.2335.362.0263.1219.1221.2106.2366.2341l1.4452.3161.3166 1.4482c.0354.1644.1976.2687.362.2333.1216-.026.2103-.1219.2341-.2364l.3158-1.4451"/></g><g><path d="m46.7371 1105.1008c.0535.1465.125.2891.2137.4252-.0414.044-.0805.09-.1182.1372h.0017c-.2429.305-.415.6659-.4842 1.0426-.0731.3997-.0343.8192.1503 1.2135.0411.089.0898.1758.1454.2599-.0831.1724-.1451.3637-.1837.5644-.0652.341-.0686.7285.0057 1.0928.0811.3988.2579.7784.5505 1.0633.2985.2911.695.4742 1.2024.4742h6.0407c-.5919.8481-1.0951 1.8028-1.3748 2.8029-.3459 1.2353-.3581 2.5367.1998 3.7967.248.561.595.9216.9672 1.1183.2936.1553.6021.208.8969.1754h.0258c.303-.038.5845-.1669.8143-.3657.2892-.2505.4989-.6134.5653-1.044.3741-2.421 1.4377-3.6073 2.7037-5.019.5941-.6622 1.2299-1.3711 1.8527-2.2396h-.0023c.4283-.5925.7316-2.0472.8014-3.661.0518-1.2007-.0151-2.5234-.2438-3.6598-.2489-1.235-.7041-2.2802-1.4275-2.8074-.3127-.2279-.6682-.3617-1.0661-.379v.0006l-.0298-.0006-9.1576-.001c-.6735 0-1.1804.205-1.5477.5168-.2651.2245-.4505.5028-.5684.7999-.1139.2852-.1644.5814-.1644.8578 0 .1363.013.2718.0363.4019-.1117.07-.2146.1497-.3084.2387-.2891.2755-.4864.6364-.5735 1.027-.0853.3832-.0652.7965.0766 1.1829" style="fill:#fff"/><path d="m60.6399 1101.3409l3.1989-.036c.3767 0 1.4663 1.6804 1.4663 4.8881 0 3.2076-1.0896 4.888-1.4663 4.888l-2.7856.031c.2035-1.2619.3112-2.5568.3112-3.8778 0-2.0347-.2514-4.0093-.7245-5.8932" style="fill:#e6e6e6;fill-rule:evenodd"/><g style="fill:#564a4c"><path d="m47.607 1104.9432c-.1837-.1188-.301-.2713-.3597-.4315-.0539-.1468-.0621-.3027-.0303-.4453.03-.1349.0969-.2591.1944-.3518.0893-.085.2101-.1442.3563-.1601.4108-.044.7087-.4125.6651-.8232-.0168-.1562-.0803-.2959-.1752-.407-.0502-.062-.0822-.207-.0822-.3884 0-.1318.0204-.2645.0663-.3796.0408-.1029.1046-.1992.1947-.2755.1438-.1222.3722-.2027.7115-.2027l9.8981.001c.125.001.2395.049.3421.1242.447.3257.7608 1.1313.9621 2.1302.2225 1.1055.2868 2.4123.235 3.6111-.0644 1.4884-.2869 2.7507-.5854 3.1603h-.0031-.0026c-.6556.9148-1.3008 1.6336-1.9034 2.3057-1.5336 1.7102-2.8219 3.1471-3.2953 6.2102-.0156.1009-.0581.1806-.1151.2299-.0289.025-.0615.041-.0924.045l-.0062.0009c-.0306 0-.0681-.001-.1094-.03-.1239-.065-.2552-.2208-.3751-.4921-.4493-1.0148-.434-2.0834-.1465-3.1096.3832-1.3697 1.2401-2.6699 2.1503-3.6989.2733-.309.2444-.7812-.0646-1.0545-.142-.1258-.3189-.1874-.4949-.1874h-8.0915c-.1225 0-.2072-.033-.2614-.086-.0856-.083-.1431-.2217-.1752-.3796-.0399-.1959-.0368-.411.0003-.6049.0318-.1656.0627-.2818.0814-.2928.354-.2118.4694-.6713.2577-1.0253-.0477-.08-.1078-.1471-.1764-.2016l.0006-.0005c-.1154-.092-.1936-.19-.2392-.2878-.0598-.1281-.0712-.2721-.0454-.4138.0303-.1667.1091-.3297.2211-.4697h.0011.002c.1097-.1375.2475-.2506.3997-.3217.3736-.1747.5349-.6194.3603-.993-.0615-.1316-.1562-.2367-.2699-.3101l.0003-.0003zm-1.7657.084c.0581.1587.1355.3135.2316.4609-.0448.048-.0873.098-.1281.1488h.002c-.2637.3306-.4502.722-.525 1.1305-.0794.4334-.0374.8884.1627 1.3158.0448.096.0975.1905.1579.2821-.0901.1868-.1576.3943-.1993.612-.0708.3696-.0745.7897.006 1.1849.0881.4325.2798.8441.5969 1.1528.3238.3158.7538.5142 1.304.5142h6.5503c-.6418.9199-1.1874 1.9551-1.4908 3.0396-.375 1.3397-.388 2.7508.2169 4.117.269.6084.6452.9993 1.0485 1.2127.3186.1684.6531.2256.9726.1902h.0281c.3285-.042.6338-.1811.8832-.3966.3135-.2715.5409-.665.6129-1.1318.4056-2.6255 1.559-3.9119 2.9319-5.4426.644-.7183 1.3337-1.4867 2.0089-2.4287h-.0026c.4646-.6426.7934-2.2201.8691-3.9699.0561-1.3022-.0161-2.7363-.2644-3.9688-.2699-1.3391-.7634-2.4724-1.5478-3.0441-.3393-.2472-.7245-.3923-1.1562-.411v.0005l-.0323-.0005-9.9304-.001c-.7302 0-1.2798.2223-1.6781.5605-.2874.2435-.4884.5453-.6165.8674-.1233.3092-.178.6304-.178.93 0 .148.0139.2948.0391.436-.121.075-.2327.1624-.3342.2588-.3138.2987-.5275.6902-.6219 1.1137-.0927.4156-.0709.8637.083 1.2827"/><path d="m62.3906 1103.2027c0 .3019.2449.5462.5465.5462.3016 0 .5462-.2443.5462-.5462 0-.3022-.2446-.5462-.5462-.5462-.3019 0-.5465.2443-.5465.5462" style="fill-rule:evenodd"/><path d="m60.5866 1100.5549c-.4142 0-.7501.3359-.7501.75 0 .4142.3359.7501.7501.7501h3.2522c.0139 0 .0924.4169.3356 1.2276.2174.7249.3807 1.6963.3807 2.9107 0 1.2143-.1633 2.1855-.3807 2.9103-.2432.8107-.3217 1.2277-.3356 1.2277h-3.4217c-.4142 0-.7501.3359-.7501.75 0 .4142.3359.7501.7501.7501h3.4217c.4634 0 1.3155-.7813 1.7711-2.3003.2545-.8482.4453-1.9667.4453-3.3378 0-1.3712-.1908-2.49-.4453-3.3381-.4556-1.5191-1.3071-2.3003-1.7711-2.3003h-3.2522"/></g></g><path d="m97.0226 1136.5288l-.8805 5.826c-.3163 2.0929-.1879 3.7715-1.838 3.0524-2.1061-.9173-5.809-2.0719-9.6962-1.1237-3.7267.9085-6.3017-.075-7.7088-.9419l1.9976-13.2168c1.2821.9053 3.996 2.2164 8.1176 1.2115 3.5696-.8703 6.984.032 9.1479.8946 1.7861.7129 1.1464 2.4055.8604 4.2979" style="fill:#fff;fill-rule:evenodd"/><g style="clip-path:url(#2)"><path d="m80.8387 1141.3397l-.4858 3.2145c-1.5146-.2066-2.6669-.7282-3.4538-1.2126l.4856-3.2145c.7869.4844 1.9392 1.006 3.454 1.2126l.4859-3.2144c-1.5149-.2067-2.6672-.7283-3.454-1.2127l.4858-3.2145c.7869.4847 1.9392 1.006 3.4537 1.2127l.4859-3.2145c-1.5146-.2067-2.6668-.728-3.4537-1.2127l.2993-1.9783c.707.4992 1.8493 1.122 3.4231 1.412l-.2687 1.779c1.1801.1607 2.5792.1307 4.1975-.2568l-.4852 3.2145c.0189 0 .0379-.001.0569-.014 1.3062-.3187 2.5917-.4 3.803-.3325l.4856-3.2145c-1.211-.068-2.4965.014-3.8027.3325l-.0573.014h-.0003.0003l.2427-1.6061c.1718-.035.3458-.073.5227-.1168 1.1466-.2795 2.2773-.3765 3.3556-.3504l-.261 1.7269c1.4014.078 2.7028.3549 3.8213.6936l.277-1.834c1.4389.3968 2.6144.9142 3.3695 1.2926l-.2914 1.9253c-.6346-.3416-1.8238-.9204-3.3551-1.3839l-.4858 3.2145c1.5313.4635 2.7204 1.0423 3.3551 1.3839l-.4859 3.2145c-.6344-.3416-1.8238-.9205-3.3551-1.3839l-.4855 3.2145c1.5312.4634 2.7204 1.0423 3.3548 1.3838l-.4856 3.2145c-.6347-.3418-1.8238-.9204-3.3551-1.3838l.4859-3.2145c-1.1189-.3388-2.42-.6157-3.8214-.6937l-.4859 3.2145c-1.2109-.067-2.4965.014-3.8027.3325-.0192 0-.0382.001-.0575.014l.4859-3.2145c-1.6183.3875-3.0178.4176-4.1976.2568zm.9714-6.4289l-.4855 3.2145c1.1797.1607 2.5792.1306 4.1975-.2569l-.4856 3.2145c.0193 0 .038-.001.0573-.014 1.3062-.3186 2.5917-.3999 3.8027-.3325l.4858-3.2145c-1.2109-.067-2.4964.014-3.8029.3326l-.057.014h-.0003.0003l.4856-3.2144c-1.6183.3874-3.0181.4175-4.1979.2568zm11.8792.09c-1.1186-.3387-2.4199-.6157-3.8211-.6936l-.4859 3.2144c1.4012.078 2.7026.3549 3.8211.6937l.4859-3.2145" style="fill:#564a4c;fill-rule:evenodd"/></g><g style="fill:#564a4c"><path d="m96.2816 1136.4177l-.8805 5.826c-.0518.3439-.0921.6766-.1301.9893-.0791.6551-.1474 1.2169-.2781 1.5165-.0326.075-.1357.083-.39-.028-1.0964-.4774-2.6099-1.0174-4.356-1.3142-1.7598-.2987-3.7587-.352-5.8147.1494-1.4805.3609-2.7661.4031-3.854.2704-1.1948-.1457-2.1487-.5051-2.8616-.8815l1.7533-11.5983c.7846.4088 1.8056.796 3.0602.9831 1.3006.1939 2.8554.1721 4.6599-.2679 1.4414-.3512 2.861-.3954 4.1735-.2673 1.7645.1726 3.3392.6574 4.5235 1.1299.953.3801.7634 1.4244.5411 2.6487-.0561.3101-.1139.6276-.1465.8439m.6015 6.0488l.8804-5.826c.0516-.343.0941-.5769.1352-.8031.3399-1.8708.6293-3.4665-1.4612-4.3007-1.2869-.5136-3.0022-1.0409-4.9334-1.2297-1.461-.1426-3.0467-.092-4.6656.3025-1.5914.388-2.9557.4082-4.0918.2389-1.5707-.2344-2.7014-.8339-3.3911-1.3158-.0978-.076-.2163-.129-.3475-.1488-.409-.062-.7909.2205-.8524.6296l-1.9942 13.1927c-.0541.2956.0735.6074.3447.7741.8802.5417 2.1799 1.1265 3.8906 1.3351 1.2421.1517 2.7057.1044 4.3869-.3055 1.8303-.4465 3.6275-.396 5.2172-.1262 1.6035.2727 2.9953.7693 4.0045 1.2087 1.2855.5607 1.9491.1948 2.3584-.7452.2225-.5102.3024-1.1696.3954-1.9383.036-.2985.0746-.6163.1239-.9423"/><path d="m80.8401 1121.7934c.0615-.409-.2205-.7908-.6295-.8523-.4091-.062-.7909.2205-.8524.6295l-3.75 24.5628c-.0615.4091.2206.7909.6296.8524.409.062.7909-.2205.8524-.6296l3.7499-24.5628"/><path d="m53.9144 1138.9859l2.139-.4678c.2429-.052.3972-.2919.345-.5349-.0388-.1797-.1803-.3106-.3495-.3455l-2.1345-.4666-.4674-2.139c-.0525-.2429-.292-.3971-.5347-.345-.18.039-.3109.1803-.3458.3495l-.4668 2.1345-2.1391.4675c-.2426.052-.3971.2919-.3447.5346.0389.18.18.3109.3493.3458l2.1345.4669.4677 2.139c.0524.2426.2919.3971.5349.3447.1797-.039.3106-.18.3455-.3495l.4666-2.1342"/><path d="m60.783 1141.8154l1.3547-.2962c.1539-.033.2514-.1848.2183-.3388-.0244-.1139-.114-.197-.2211-.2188l-1.3519-.2956-.2962-1.3547c-.0332-.1539-.1848-.2515-.3385-.2183-.1139.024-.197.114-.2191.2211l-.2956 1.3519-1.3547.2962c-.1536.033-.2514.1848-.2183.3384.0247.114.114.197.2211.2191l1.3519.2957.2962 1.3547c.0332.1536.1848.2514.3387.2182.114-.024.197-.1139.2189-.2211l.2956-1.3518"/><path d="m89.822 1109.8984c-1.5134 1.4596-3.4846 2.4639-5.705 2.7666l-.1024-1.0111c-.0589-.5695-.7132-.8535-1.1664-.5264l-3.0353 1.8899c-.4836.3022-.4519 1.0086.0374 1.2747h-.0009l3.4591 1.8749c.5361.2925 1.1656-.1548 1.0885-.745l-.1306-1.2869c2.5798-.3407 4.8682-1.5075 6.6177-3.2091-.3654-.3257-.72-.6684-1.0621-1.029"/></g><g><g><path d="m90.9584 1110.975c.5241.4601 1.1801.8204 1.9913 1.0063.1043.024.2342.049.3909.072.1321.02.2679.036.4068.047 3.7483.2999 4.4697-3.0331 4.551-3.49.0442-.4644.4088-.8411.8751-.8734.2449-.017.485-.062.7166-.1304.2361-.069.4538-.1618.6508-.2718.489-.2761.8875-.6786 1.1463-1.1659.2444-.4612.3654-1.006.3212-1.6016-.0451-.6086-.2013-.9853-.4663-1.1979-.3169-.2529-.8362-.3736-1.5344-.4246-.4603-.034-4.3687-.071-7.9461-.077-2.6807-.001-5.1803.001-5.9062.053-.3765.023-.7076.106-.9774.2361-.2359.114-.4201.2625-.5352.4315-.0879.1289-.1327.2758-.1236.4331.0068.1145.0386.2387.0987.3713.0986.2175.2364.3739.3875.4876.2154.1619.4677.2506.6817.2991.375.062.6905.3566.7707.763.1829.9068.4958 1.4965.8601 1.8692.4198.43.93.5774 1.3665.6015.3702-.001.7277.2089.8864.5803.3093.7251.7609 1.4278 1.3876 1.9777h-.002l.002.0008z" style="fill:#fff;fill-rule:evenodd"/><path d="m90.4941 1111.551c.3109.2699.6619.5103 1.0533.7078.3728.1891.7841.3402 1.2345.4434l-.0003.0005c.0465.011.1191.026.2155.043.0929.017.172.031.2333.04v.0006c.0671.001.1431.02.227.03.0862.001.1622.018.2291.023h.0277c2.1728.1655 3.4864-.7368 4.269-1.7499.7654-.9904.9987-2.0888 1.0454-2.3533.0051-.028.0083-.056.001-.085.0093-.047.0325-.089.0643-.121.0323-.032.0745-.054.1199-.057.1398-.001.2872-.029.4405-.056l.0026-.0006v.0006c.1505-.027.295-.062.4328-.1029.1463-.043.2843-.092.4122-.1457.1374-.057.269-.1213.3923-.1902.0201-.011.0397-.024.0584-.037.2857-.1681.5439-.3685.7682-.5964.2443-.2483.4512-.5284.6122-.8311l.0224-.046c.1472-.2872.2571-.5967.3221-.9227.005-.024.008-.048.0107-.071.0564-.3109.0743-.6335.0502-.9618h-.0003.0003c-.0283-.3807-.0952-.6996-.2001-.9649l-.0187-.043c-.1259-.3002-.3011-.5343-.523-.7121h-.003l.0005-.0006c-.2409-.1922-.5408-.3297-.8966-.4241-.305-.081-.6548-.1312-1.0462-.1596-.2242-.016-1.3303-.034-2.8369-.049-1.4828-.014-3.3631-.025-5.1614-.027-1.4343 0-2.8173-.0003-3.9033.001-.9742.001-1.7129.023-2.0463.044-.2285.014-.4482.048-.654.097l-.0309.001c-.2089.052-.4008.1213-.5706.2035-.1683.081-.3211.1777-.4549.2852-.1471.1182-.2722.2514-.3699.3951-.0125.018-.0239.037-.0343.055-.074.1188-.1302.2424-.1664.3688-.042.148-.0599.3044-.0508.4674.0063.1106.0241.2223.0533.3317l.0119.04c.0255.089.0578.1771.0972.2636.076.1675.1704.3158.2756.445.1046.1284.2214.2373.3438.3291.1644.1236.3351.2163.5006.2849.1559.065.3152.1114.4623.1446l.0409.001v.0009c.0382.001.0739.025.1014.052.0304.03.0536.073.063.1222.0045.023.0102.046.0167.068.0978.4666.2279.86.3793 1.1897.1885.409.4147.7328.6616.9853.2639.2705.553.4601.8447.5888.3438.1511.6939.2188 1.0142.2358.023 0 .046 0 .0686.0003.0312 0 .0638.014.093.033.0352.023.0644.057.0819.098.1795.4215.4054.8402.6821 1.2348h.0011l-.0011.0009c.2392.3413.5201.6653.8447.9584.0164.018.0343.035.0527.051l.0244.02zm1.7195-.6134c-.271-.1366-.5134-.301-.7282-.4842l-.04-.038c-.2495-.2188-.4694-.4725-.6619-.7463l-.0014.0008c-.2112-.3016-.387-.6295-.5304-.9657-.1383-.324-.3628-.5823-.6318-.7586-.2679-.1749-.584-.2704-.9088-.2715-.1528-.001-.3192-.042-.4819-.1137-.1329-.059-.2639-.144-.381-.2639-.1346-.1378-.263-.3254-.3778-.5743-.11-.2395-.2053-.5278-.2775-.8711l-.008-.05c-.0683-.3501-.2395-.6545-.4745-.8872-.2418-.2395-.5505-.4023-.887-.4615-.0595-.015-.1253-.035-.1927-.063-.0675-.028-.1318-.062-.182-.1-.0284-.021-.057-.048-.0831-.08-.0255-.032-.0504-.072-.0725-.1205-.0102-.022-.0182-.042-.0236-.058l-.0048-.019-.0039-.015c.0167-.022.0396-.045.068-.068.0456-.036.1035-.072.1709-.1051.0853-.041.1786-.075.2772-.101l.0287-.001c.1176-.028.2497-.048.3931-.056.3425-.021 1.0517-.035 1.9713-.044 1.0848-.001 2.4633-.012 3.8916-.001 1.789 0 3.6655.013 5.1497.028 1.4423.014 2.5104.032 2.7443.049.3061.022.5663.058.7738.1132.1571.042.2761.092.3518.1522l.0003-.0006c.0269.023.0524.062.0768.1171l.001.026c.0508.1282.0845.3033.1015.5304h.0003c.0147.2066.006.4-.0244.578-.006.019-.001.038-.0139.058-.0385.1936-.1012.3728-.1834.5349l-.0159.028c-.0966.1819-.2177.3466-.3574.4889-.1352.1372-.2866.2568-.4507.3546l-.0457.024c-.0751.042-.1544.081-.2358.1148-.087.036-.1746.068-.2614.093-.096.028-.1907.052-.2817.068v.0002c-.0822.014-.1746.026-.2755.033-.4173.029-.7881.2098-1.0645.4859-.2605.2593-.4371.6057-.4892.9881l-.0023.011c-.034.1922-.2035.9901-.7554 1.7045-.5295.6854-1.4403 1.294-2.9908 1.1752l-.0137-.0008c-.072-.001-.1337-.012-.1825-.018-.0513-.001-.1103-.014-.1752-.024v.0006l-.0028-.0006c-.091-.013-.1517-.023-.1843-.029-.0374-.001-.0859-.017-.146-.031l-.0002.0006-.0026-.0006c-.3314-.076-.6316-.1856-.9011-.322" style="fill:#564a4c"/></g><path d="m92.5869 1103.3986c.1335-2.0985-.3764-4.2511-1.582-6.1399l-.8374.5763c-.4722.3235-1.112.001-1.1562-.5488l-.523-3.537c-.0825-.5641.4765-.9973.9961-.7966h.0005l3.6678 1.4244c.5698.2191.6364.9887.1363 1.3116l-1.0658.7333c1.4097 2.1875 2.0007 4.6871 1.8354 7.1221-.4847-.068-.9754-.1162-1.4717-.144" style="fill:#564a4c"/></g><g style="fill:#fff"><path d="m73.8201 1114.8043l1.8831-.4118c.2137-.046.3495-.2568.3033-.4706-.034-.1582-.1585-.2738-.3076-.3044l-1.8788-.4108-.4116-1.883c-.0462-.2137-.2571-.3495-.4708-.3033-.1582.034-.2735.1584-.3042.3075l-.411 1.8788-1.883.4116c-.2138.046-.3495.2571-.3033.4709.034.1581.1584.2735.3075.3041l1.8788.411.4119 1.8831c.0459.2137.2568.3495.4705.3033.1582-.034.2739-.1584.3045-.3076l.4107-1.8788"/><path d="m79.6969 1099.7617c.3008-.4972.3203-4.261.0196-4.8072-.2801-.5089-3.53-2.4078-4.1534-2.4205-.5808-.012-3.8502 1.8532-4.1728 2.3867-.3008.4972-.3203 4.2611-.0196 4.8073.2801.5088 3.53 2.4077 4.1533 2.4205.5809.012 3.8503-1.8533 4.1729-2.3868" style="fill-rule:evenodd"/></g><path d="m80.3384 1100.1484c.22-.364.3362-1.5937.3407-2.7805.0048-1.1722-.0955-2.3908-.3064-2.7737-.2069-.3759-1.2138-1.0919-2.2388-1.6892-1.0097-.5882-2.1138-1.1092-2.556-1.118-.4309-.001-1.5531.5043-2.5804 1.0916-1.0159.5809-2.0205 1.2779-2.2487 1.6555-.22.3639-.3362 1.5936-.3407 2.7805-.0049 1.1721.0955 2.3907.3064 2.7737.2069.3759 1.2138 1.0919 2.2388 1.6891 1.0097.5882 2.1138 1.1092 2.556 1.118.4309.001 1.5531-.5043 2.5804-1.0916 1.0159-.5808 2.0205-1.2778 2.2487-1.6554m-4.9575-1.7657c.0451-.018.0873-.04.1264-.066.0541.043.1151.078.1823.1052l3.0444 1.2234c-.3229.2271-.8433.5462-1.3881.8575-.8397.4802-1.6558.9011-1.8071.8983-.1786 0-1.0004-.4326-1.8355-.919-.5504-.3209-1.0737-.6463-1.3864-.8686l3.064-1.2313zm3.7896-.1718l-2.8879-1.1605c.0051-.035.0079-.07.0079-.106l.015-3.3412c.3164.1635.6959.3739 1.0783.5967.8323.485 1.6025.9805 1.6765 1.1148.0884.1608.1289 1.0854.125 2.0475-.0012.2942-.0063.5839-.0148.8487m-4.3588-4.6157l-.015 3.3435c0 .023.0008.045.0028.068l-2.8888 1.1608c-.0071-.2651-.0099-.5542-.0088-.8467.0037-.9627.0488-1.8786.1298-2.0129.0927-.1537.8731-.65 1.7096-1.1282.3818-.2183.7586-.4244 1.0704-.584" style="fill:#564a4c"/></g></g></svg>