<svg xmlns="http://www.w3.org/2000/svg" viewBox="0 0 170 170"><g transform="translate(0,-882.36216)"><path d="m84.999999 882.36215c46.943941 0 85 38.05606 85 85 0 46.94395-38.05606 84.99995-85 84.99995-46.943936 0-84.999999-38.056-84.999999-84.99995 0-46.94394 38.05606-85 84.999999-85" style="fill:#e8e9e7;fill-rule:evenodd"/><g transform="matrix(4.1666462,0,0,-4.1666462,0.00124999,1052.3609)" style="fill:#45363b"><path d="m26.6233 26.945l2.8854-.6307c.3274-.0709.5357-.3937.4648-.7211-.0521-.2427-.2429-.4196-.4711-.4666l-2.8791-.6293-.6307-2.8854c-.0706-.3274-.3938-.5357-.7212-.4649-.2426.0522-.4195.243-.4665.4711l-.6293 2.8792-2.8854.6307c-.3277.0706-.5358.3937-.4652.7211.0524.2427.2429.4196.4711.4666l2.8795.6293.6307 2.8854c.0708.3277.3937.5357.7211.4652.2426-.0525.4195-.243.4666-.4714l.6293-2.8792"/><path d="m20.0752 20.2062l2.1765-.4759c.2469-.0533.4039-.2971.3506-.5443-.0394-.1828-.1831-.3163-.3554-.3518l-2.1717-.4748-.4759-2.1764c-.0533-.2469-.2971-.4039-.544-.3507-.1831.0394-.3163.1832-.3517.3555l-.4751 2.1716-2.1765.476c-.2471.0533-.4042.297-.3506.5439.0394.1832.1831.3164.3552.3518l2.1719.4751.4759 2.1764c.0533.2472.2971.404.544.3507.1831-.0394.3166-.1831.352-.3555l.4748-2.1716"/><path d="m13.4391 25.0756l1.3036-.2852c.1483-.0318.2421-.1777.2103-.3257-.0238-.1097-.1097-.1896-.2131-.2109l-1.3008-.2843-.2852-1.304c-.032-.1479-.178-.242-.326-.21-.1094.0235-.1893.1097-.2106.2129l-.2846 1.3011-1.3039.2849c-.148.032-.2421.178-.2101.3259.0235.1097.1097.1897.2129.2109l1.3011.2844.2852 1.3039c.032.148.1777.2421.3259.21.1095-.0235.1894-.1097.2107-.2128l.2846-1.3011"/><path d="m25.2193 13.1168l1.3039-.2852c.148-.0318.2421-.1777.2101-.326-.0236-.1094-.1097-.1893-.2129-.2106l-1.3011-.2846-.2849-1.3037c-.032-.1482-.178-.242-.326-.2103-.1097.0238-.1896.11-.2109.2132l-.2843 1.3008-1.3039.2852c-.148.032-.2421.178-.2101.3259.0235.1095.1097.1894.2129.2107l1.3011.2846.2852 1.3039c.0317.148.1777.2421.3257.21.1097-.0235.1896-.1097.2109-.2128l.2843-1.3011"/></g></g></svg>