<svg xmlns="http://www.w3.org/2000/svg" viewBox="0 0 170 170"><g transform="translate(0,-882.36216)"><path d="m84.999999 882.36215c46.943941 0 85 38.05606 85 85 0 46.94395-38.05606 84.99995-85 84.99995-46.943936 0-84.999999-38.056-84.999999-84.99995 0-46.94394 38.05606-85 84.999999-85" style="fill:#e8e9e7;fill-rule:evenodd"/><path d="m98.02285 1019.9127c-.164166.1017-.337915.1867-.516248.255-5.427056 2.6671-10.03203 4.4825-12.247856 4.5271-3.537483.07-14.00326-4.8567-23.86155-10.4941-9.770368-5.5875-19.282822-12.0529-21.19239-15.2137l.0079-.005c-.249165-.41458-.460414-.86458-.635413-1.34166l.0037-.0001-.0037-.0104c-.164166-.45375-.311666-.93667-.437915-1.43875l.0058-.0001c-.129999-.51708-.128749-1.07458.03083-1.62291.104999-.36374.217082-.70041.335415-1.00749l.0046.0001c.149999-.39208.295415-.71583.428748-.95916 1.700825-3.09082 11.204945-9.69204 21.02823-15.41534 9.717869-5.66331 20.07282-10.66912 23.768216-10.74328 3.537483-.07 14.00202 4.85539 23.86072 10.49286 9.7712 5.58872 19.2849 12.05411 21.19364 15.21368l-.008.005c.24208.40041.45458.85624.63541 1.35374.16417.45333.31042.93625.43833 1.43958l-.006.0001c.13.51708.12875 1.07374-.0304 1.62291-.10542.3625-.2175.70041-.33542 1.00624l-.005-.0001c-.15.39083-.295.71708-.42875.96041-.93416 1.69584-4.22122 4.45124-8.62079 7.53874-.21583.2021-.45708.3683-.71583.4983-3.46748 2.3967-7.55288 4.9654-11.69369 7.3796-3.70998 2.1624-7.5133 4.227-11.00203 5.9599zm-7.649963-3.1737c-1.642908-1.2225-3.644982-2.7071-5.893721-4.3179-2.03749 1.4717-3.847897 2.8179-5.340807 3.9271l-.06958.052c2.879153 1.3038 5.072475 2.0904 6.067054 2.0704.961245-.019 2.820403-.6637 5.237057-1.7316zm-17.60533-3.4312c.68958-.4984 1.593326-1.1717 2.65957-1.9629 1.067912-.7938 2.293739-1.7042 3.644983-2.6942-1.887491-1.2754-3.863315-2.5662-5.882888-3.8158-2.112073 1.5225-3.984981 2.9171-5.52164 4.0591l-1.287493.9559c2.182489 1.2245 4.344145 2.3949 6.387468 3.4579m-12.292856-6.875c.695413-.4725 1.913324-1.3771 3.48165-2.5417.997078-.7416 2.133322-1.585 3.37915-2.5004-1.785825-1.0041-3.54665-1.95246-5.224975-2.83454-2.260822 1.62504-4.262895 3.11334-5.887888 4.32164l-.690829.5138c1.556659.9895 3.220817 2.0124 4.942892 3.0412m-10.439949-6.72872c.663747-.48209 1.502493-1.10542 2.477071-1.82958.990829-.73583 2.11624-1.57332 3.352901-2.4804-4.00873-1.95791-6.702884-3.1379-6.717884-3.14499l-.05917-.0271c-1.886241 1.41458-3.190401 2.57332-3.635399 3.31498l.08625.22792.0033.005.0083-.005c.525831.87083 2.155406 2.26082 4.484561 3.93915zm5.03289-11.5962c1.707908.79958 3.962481 1.88166 6.527885 3.17499 1.675825-1.17041 3.44415-2.37624 5.271224-3.57165-3.754982-1.82374-6.244553-2.91749-6.259969-2.92332l-.1275-.06c-1.894574 1.14541-3.721648 2.28665-5.41164 3.37998m11.978691-7.21871c1.641659.77499 3.712065 1.77416 6.03747 2.94707 1.477909-.87292 2.962485-1.71624 4.423311-2.52541-3.2929-1.58499-5.424556-2.5204-5.438723-2.52624-.211666-.0946-.406665-.20916-.584997-.34124-1.442076.77208-2.931236 1.59416-4.437062 2.44582m11.482444-5.99414c1.580409.74541 3.554982 1.69833 5.770805 2.81249 2.396655-1.22125 4.561644-2.27624 6.319136-3.11124-2.726237-1.21874-4.796644-1.94874-5.754556-1.92999-1.102077.0225-3.386233.86583-6.335385 2.22874m19.289905 3.23998l-.07458.0342c-.01542.006-2.66832 1.17041-6.628301 3.1029 1.47291.80292 2.978736 1.64499 4.484562 2.51916 2.535821-1.29458 4.818726-2.40499 6.643716-3.2704-1.50582-.83292-2.991651-1.63375-4.425394-2.38583zm11.05828 6.18289c-.88583.39583-3.49832 1.57791-7.0108 3.30457 1.83665 1.18374 3.62456 2.38582 5.32789 3.56373 2.79457-1.42458 5.27372-2.62207 7.16329-3.5129-1.71957-1.09124-3.56789-2.2229-5.48038-3.3554m11.52536 7.43246c-.84583.37709-3.66249 1.64791-7.45872 3.52332 1.64166 1.19666 3.11707 2.29249 4.37248 3.22665l2.06457 1.52877c2.71166-1.92418 4.6179-3.50918 5.17081-4.43542-.0463-.12625-.0779-.20417-.09-.22292l-.003-.005-.008.005c-.4925-.81499-1.95125-2.08374-4.04748-3.6204zm-6.52456 11.95534l-.27291-.2021c-1.85999-1.3829-4.21748-3.1345-6.89288-5.03952-1.67833.89041-3.42165 1.84582-5.18248 2.84872 1.62416 1.1833 3.08374 2.27 4.32873 3.1946 1.29583.9629 2.35041 1.7471 3.07082 2.2575 1.71499-1.03 3.38165-2.06 4.94872-3.0592m-10.81869 6.4829l-.91208-.6779c-1.75499-1.305-3.951649-2.9375-6.441637-4.7183-2.01249 1.265-3.972897 2.5616-5.837888 3.8362 1.699575 1.2363 3.225401 2.3704 4.518728 3.3317.889579.6616 1.665409 1.2391 2.298322 1.7008 2.027073-1.0571 4.184565-2.2333 6.374555-3.4725m-35.21191-15.63867c1.657908.9 3.359983 1.85041 5.060808 2.84041 1.731658-1.21083 3.564566-2.46124 5.45789-3.7004-1.719575-.96041-3.408733-1.86833-5.02206-2.71291-1.88624 1.17292-3.729981 2.37999-5.496639 3.5729m11.788275-7.28288c1.559159.84917 3.152485 1.74208 4.74581 2.66916 1.563742-.92583 3.134568-1.82124 4.681644-2.67499-1.627492-.89875-3.220818-1.75041-4.74206-2.54165-1.514159.79957-3.088318 1.65124-4.685394 2.54748m-.910412 13.68205c1.982907 1.2741 3.910397 2.5712 5.738722 3.8362 1.803741-1.2617 3.718315-2.5621 5.694138-3.8491-1.848324-1.24379-3.777064-2.49587-5.747055-3.70878-1.95624 1.22583-3.865814 2.48249-5.685805 3.72168m11.705776-7.30416c1.90374 1.22833 3.755815 2.47457 5.513306 3.69206 1.674575-.98957 3.35915-1.94499 5.01039-2.85082-1.795404-1.19791-3.661645-2.39915-5.562052-3.55748-1.604992.85125-3.273734 1.76083-4.961642 2.71624" style="fill:#45363b"/><g style="fill-rule:evenodd"><path d="m85.71458 919.10739h.0012c5.922054 0 10.76703 4.84456 10.76703 10.76661v17.06117c0 5.92205-4.844976 10.76661-10.76703 10.76661h-.0012c-5.922054 0-10.76703-4.84456-10.76703-10.76661v-17.06117c0-5.92205 4.844976-10.76661 10.76703-10.76661" style="fill:#fff"/><g style="fill:#e8e9e7"><path d="m75.4688 956.4572h21.01406v19.59324h-21.01406v-19.59324"/><path d="m96.48286 967.0384v9.01204c3.842061 3.07999 6.303301 7.81288 6.303301 13.1216 0 9.28496-7.525795 16.81076-16.810332 16.81076-9.284955 0-16.810751-7.5258-16.810751-16.81076 0-5.30872 2.461238-10.04161 6.303719-13.1216v-9.01204h21.01406"/></g><path d="m81.77335 981.87916c3.48165 0 6.303303 2.82124 6.303303 6.30331 0 3.48206-2.821653 6.30371-6.303303 6.30371-3.482066 0-6.304552-2.82165-6.304552-6.30371 0-3.48207 2.822486-6.30331 6.304552-6.30331" style="fill:#fff"/></g><g style="fill:#45363b"><path d="m85.975828 914.67949c3.739148 0 7.147881 1.53625 9.622036 4.00957l.0062-.006c2.469571 2.46957 4.00373 5.87956 4.00373 9.62829v46.32852c1.783326 1.67499 3.262066 3.68165 4.337066 5.92081 1.25999 2.62082 1.96665 5.54414 1.96665 8.6112 0 5.48873-2.23249 10.46954-5.8408 14.08366l-.006.001-.006.001h-.002c-3.614147 3.6071-8.593706 5.8379-14.08076 5.8379-5.488723 0-10.469532-2.2321-14.08368-5.8404l-.0058-.001-.0058-.001h-.0025c-3.607065-3.61412-5.837888-8.59368-5.837888-14.08116 0-3.06706.706247-5.99038 1.966241-8.6112 1.074994-2.23916 2.553737-4.24582 4.337062-5.92081v-46.32852c0-3.75123 1.534159-7.1608 4.0029-9.62954 2.468321-2.46832 5.878304-4.00248 9.629536-4.00248zm-7.382047 17.15409h8.840373c1.725825 0 3.125401 1.39957 3.125401 3.12498 0 1.72582-1.399576 3.1254-3.125401 3.1254h-8.840373v4.25415h3.908314c1.725408 0 3.124984 1.39957 3.124984 3.1254 0 1.72541-1.399576 3.12498-3.124984 3.12498h-3.908314v4.2579h8.840373c1.725825 0 3.125401 1.39958 3.125401 3.1254 0 1.72541-1.399576 3.12498-3.125401 3.12498h-8.840373v4.25332h3.908314c1.725408 0 3.124984 1.39957 3.124984 3.12498 0 1.72541-1.399576 3.1254-3.124984 3.1254h-3.908314v6.44997h-.01083c-.000833.91041-.397914 1.81416-1.162077 2.42832-1.602492 1.285-2.909986 2.91457-3.799565 4.7679-.852496 1.77415-1.331243 3.78414-1.331243 5.92538 0 3.78915 1.528742 7.2108 3.995813 9.67829l.01167.0117c2.467488 2.4671 5.889138 3.9954 9.678286 3.9954 3.788731 0 7.210381-1.5283 9.677869-3.9954l.01167-.0117c2.467488-2.46749 3.995814-5.88914 3.995814-9.67829 0-2.14124-.478331-4.15123-1.331243-5.92538-.857496-1.78833-2.105823-3.36624-3.632066-4.62998-.809996-.56583-1.34041-1.50333-1.34041-2.56624v-47.73893c0-2.02541-.832496-3.8729-2.170823-5.21081l.0058-.006-.0058-.006c-1.329993-1.33083-3.175817-2.15916-5.210807-2.15916-2.028324 0-3.875398.83291-5.212475 2.16999-1.337076 1.33708-2.169572 3.18415-2.169572 5.21206v3.52207z"/><path d="m124.88439 943.2406l7.94412 1.73749c.90125.19459 1.47416 1.08417 1.28041 1.98541-.14416.66833-.66958 1.155-1.29791 1.28374l-7.92662 1.73375-1.73749 7.94412c-.19334.90125-1.08292 1.47416-1.98541 1.28041-.66708-.14416-1.155-.66958-1.28375-1.29791l-1.73374-7.92662-7.94412-1.7375c-.90125-.19333-1.47416-1.08291-1.28042-1.9854.14417-.66708.67-1.155 1.29833-1.28375l7.92621-1.73374 1.73749-7.94412c.19459-.90125 1.08417-1.47416 1.98541-1.28042.66833.14417 1.155.67 1.28375 1.29833l1.73374 7.92621"/><path d="m52.50349 952.01514l7.156215 1.56458c.812496.17625 1.328743.97708 1.153744 1.78957-.129999.60125-.60208 1.03916-1.169161 1.15625l-7.140798 1.56124-1.564992 7.15663c-.174999.8125-.975829 1.32874-1.788325 1.15375-.602497-.13-1.040411-.6025-1.157494-1.16917l-1.561242-7.14121-7.156215-1.56458c-.812913-.175-1.328744-.97582-1.154161-1.78832.129999-.6025.602497-1.04041 1.169161-1.15749l7.141215-1.56125 1.564992-7.15663c.175832-.81249.976662-1.32874 1.789158-1.15374.601247.13 1.039578.60249 1.156244 1.16916l1.561659 7.14121"/></g></g></svg>