<svg xmlns="http://www.w3.org/2000/svg" viewBox="0 0 400 400.00001" height="400"><g transform="translate(0,-652.36216)"><g style="fill-rule:evenodd"><path d="m200 652.3622c110.45689 0 200 89.54311 200 200 0 110.4569-89.54311 200-200 200-110.4569 0-200-89.5431-200-200 0-110.45689 89.5431-200 200-200" style="fill:#e8e9e7"/><path d="m282.97142 804.00877c6.00585 9.93085 6.3971 85.12226.39 96.03228-5.59876 10.16586-70.52056 48.10052-82.97267 48.35302-11.60211.23542-76.91599-37.02133-83.36017-47.67843-6.00585-9.93086-6.39668-85.12226-.38959-96.03229 5.59835-10.16585 70.52015-48.10051 82.97226-48.35343 11.6021-.235 76.91599 37.02174 83.36017 47.67885" style="fill:#cdc4c0"/></g><path d="m285.64434 802.39793c3.30251 5.46001 5.05168 27.53173 5.14001 49.4776.0875 21.76297-1.44208 43.76926-4.68876 49.66677-3.08625 5.60168-21.32712 18.15838-40.28883 29.20756-18.78879 10.94753-38.608 20.61963-45.35676 20.75671-6.40293.12875-26.39047-9.38502-45.4276-20.27379-18.88462-10.80127-37.17549-23.13171-40.66675-28.90631-3.30209-5.46043-5.05167-27.53172-5.14001-49.4776-.0875-21.76296 1.44209-43.76926 4.68876-49.66677 3.08626-5.60209 21.32755-18.15837 40.28884-29.20756 18.7892-10.94752 38.60799-20.61963 45.35676-20.75671 6.40293-.12875 26.39047 9.38502 45.42759 20.27379 18.88462 10.80127 37.17549 23.13172 40.66675 28.90631m-1.08417 49.50135c-.085-21.01212-1.53792-41.77592-4.26167-46.27926-2.92793-4.84126-20.28421-16.33712-38.42008-26.70964-18.25504-10.44085-36.96633-19.57337-42.20551-19.46795-5.65501.11458-24.29296 9.40252-42.35467 19.92754-18.15712 10.58044-35.41299 22.21754-37.94508 26.81464-2.73667 4.97126-4.01709 25.75255-3.93334 46.64051.0854 21.01171 1.53792 41.77592 4.26168 46.27926 2.92792 4.84126 20.28421 16.33712 38.42008 26.70964 18.25504 10.44086 36.96632 19.57296 42.2055 19.46796 5.65543-.11459 24.29297-9.40252 42.35467-19.92754 18.15712-10.58044 35.41299-22.21755 37.94508-26.81464 2.73667-4.97126 4.01709-25.75297 3.93334-46.64052" style="fill:#45363b"/><g><path d="m183.54955 847.57386c3.46417-3.04126 7.80251-5.42335 13.16586-6.65293.69083-.16209 1.54833-.3225 2.58542-.47375.87417-.13459 1.77167-.23875 2.68917-.31417 24.78547-1.98292 29.55631 20.05504 30.0934 23.0763.29208 3.07084 2.70125 5.56209 5.78626 5.77584 1.61959.11084 3.20667.4075 4.73751.86209 1.56125.45958 3.00126 1.07 4.30292 1.7975 3.23501 1.82501 5.87002 4.48709 7.58127 7.70793 1.61459 3.04959 2.41667 6.65335 2.12376 10.59128-.29876 4.02376-1.33126 6.51459-3.08501 7.92043-2.09417 1.6725-5.52876 2.46959-10.14461 2.80751-3.045.22291-28.88756.47-52.54135.50666-17.72587.0329-34.25466-.0546-39.05342-.35208-2.48959-.15458-4.67959-.70167-6.46293-1.5625-1.55917-.75376-2.77667-1.73501-3.53834-2.85126-.58125-.85417-.87792-1.825-.81875-2.86417.045-.75709.25625-1.57917.65333-2.45667.65292-1.43751 1.56376-2.47084 2.56168-3.22334 1.42542-1.07001 3.09334-1.65709 4.50959-1.97709 2.47792-.41209 4.56501-2.35876 5.09418-5.04585 1.20916-5.99626 3.27959-9.89418 5.68667-12.35877 2.77709-2.84542 6.15002-3.82001 9.03669-3.97834 2.44834.0592 4.81084-1.38042 5.86209-3.83584 2.04418-4.79543 5.03002-9.44211 9.17461-13.07878l-.0129-.0142.0129-.006z" style="fill:#fff;fill-rule:evenodd"/><path d="m181.65621 845.0926c1.94417-1.68542 4.13376-3.18459 6.58585-4.42209 2.34333-1.18458 4.93001-2.13542 7.7671-2.78625l-.0001-.003c.32-.0742.77-.16625 1.33458-.27042.54917-.10042 1.05375-.18667 1.49417-.25042v-.002c.44042-.0658.9175-.13083 1.43875-.19125.50042-.0579.99292-.1075 1.47042-.14625 13.71128-1.09625 21.95797 4.53876 26.84881 10.86961 4.80584 6.21959 6.26918 13.11961 6.5646 14.78169.0233.13459.0375.26917.0437.4025.10625.74167.44875 1.41042.94708 1.90876.50667.50542 1.18126.83875 1.92751.88917.89417.0604 1.80708.17833 2.72834.34625l.10291.0213c.9.16541 1.76084.37458 2.57709.61667.89542.26208 1.74584.56583 2.54292.89875.84584.35208 1.65001.74542 2.40834 1.16917 1.87209 1.055 3.58001 2.36458 5.06793 3.87875 1.4825 1.50709 2.7475 3.21959 3.74292 5.09668.95334 1.79876 1.66542 3.78043 2.09167 5.90668v.002l.0133-.002c.40125 2.00667.53958 4.14084.37416 6.36835-.17333 2.335-.57625 4.26876-1.20458 5.85834-.71584 1.80959-1.73625 3.20668-3.05209 4.25918-1.40917 1.12542-3.17376 1.93334-5.27376 2.48959-1.90126.50541-4.10418.81958-6.59168 1.00167-1.49376.10875-8.73877.22666-18.60087.32125-9.81502.0933-22.26047.16666-34.16007.18541-9.47836.0175-18.61546.0001-25.79672-.0638-6.37668-.0567-11.22378-.1525-13.44087-.28958-1.40792-.0863-2.75292-.28792-4.01-.59167-1.31792-.3175-2.53209-.7475-3.6221-1.27292-.99125-.47875-1.88875-1.04292-2.66708-1.67042-.83376-.67083-1.54001-1.42292-2.09292-2.23209-.0483-.0708-.0921-.14291-.13459-.21625-.41708-.65208-.73708-1.34625-.94375-2.07042l-.004.0001c-.22667-.7925-.32333-1.63458-.27375-2.5075.0342-.5975.13458-1.20709.29625-1.82001.15375-.58375.36375-1.16833.625-1.74708.4475-.98501.985-1.83667 1.57917-2.56418l.16292-.18416c.555-.64834 1.16208-1.20459 1.79625-1.68209.93584-.705 1.94209-1.24584 2.93167-1.65709l-.002-.005c.93459-.38833 1.88501-.66833 2.76376-.86708l.18333-.0354v-.00083c.60834-.10042 1.17501-.39917 1.62042-.84001.44542-.44166.77459-1.03583.91042-1.72667.0179-.0933.0404-.18416.0662-.27291.6225-3.00459 1.44917-5.53002 2.42001-7.63919 1.15542-2.5125 2.53375-4.48834 4.03251-6.02126 1.56958-1.61 3.29042-2.73792 5.03042-3.50334 2.06084-.90708 4.15959-1.31 6.08002-1.415.11125-.006.22083-.005.32958.0001.56458-.007 1.13167-.18542 1.62167-.50667.5125-.33542.94042-.82667 1.20125-1.43875 1.15292-2.70584 2.58667-5.37043 4.33001-7.85419l.13125-.17375c1.50709-2.12125 3.24292-4.11834 5.22501-5.90168.10042-.11375.21042-.22333.32959-.32375l.13333-.10625zm9.3921 1.14334c-1.9475.9825-3.68626 2.16584-5.22876 3.48876-.0683.0746-.14167.14541-.21958.2125-1.73501 1.5225-3.24918 3.24834-4.55668 5.09084l-.10375.15833c-1.48833 2.12001-2.71334 4.39585-3.69709 6.70627-.77125 1.80209-2.01834 3.23959-3.51834 4.22126-1.50125.98375-3.27292 1.51417-5.09168 1.50917-1.21792.07-2.54542.32833-3.84459.9-1.0725.47125-2.12625 1.16-3.07667 2.13542-1.02542 1.04917-1.99167 2.45084-2.83709 4.29001-.795 1.72417-1.47292 3.80084-1.98667 6.28001l-.0342.215c-.385 1.95459-1.33708 3.65293-2.64459 4.94876-1.33583 1.32376-3.04834 2.22626-4.91126 2.55584-.515.12042-1.08042.29167-1.65708.53167l-.002-.005-.0108.005c-.54792.22667-1.09125.51708-1.57417.87958-.26125.19625-.51625.43001-.75375.70292l-.1075.13834c-.27292.33416-.52084.725-.72375 1.1725-.12875.28583-.22584.54458-.285.77125-.0567.21375-.0908.40875-.10042.57542-.008.14875.0108.30458.0546.45708l-.004.0001.004.0104c.0354.1275.0908.25167.15917.37083l.0675.0958c.20917.30708.49625.60708.84792.89042.40875.32958.90625.63916 1.47167.91208.71.3425 1.50833.62333 2.3775.83375.8825.2125 1.85917.35792 2.91167.42167 2.25459.13917 6.97794.23375 13.1242.28917 7.17543.0638 16.29337.0804 25.74714.0638 11.86044-.0175 24.28921-.0908 34.11007-.18542 9.5921-.0908 16.67753-.20875 18.2117-.32125 2.12584-.15458 3.95209-.40958 5.44376-.80542 1.29459-.3425 2.29834-.77375 2.98001-1.31792.43583-.34875.81125-.90375 1.12417-1.69625.39916-1.01084.66375-2.33876.78917-4.02751.12166-1.63334.0188-3.20334-.27751-4.68418l.0129-.002c-.3-1.49625-.81375-2.915-1.50584-4.22001-.70666-1.3325-1.61-2.55375-2.67083-3.63209-1.06751-1.08667-2.30751-2.035-3.67668-2.80625-.55625-.31042-1.14208-.5975-1.74917-.85042-.6225-.25958-1.2625-.49-1.9075-.67917-.66375-.19583-1.31334-.35667-1.93709-.47333l-.1075-.0179c-.64125-.11667-1.31667-.20208-2.02209-.24917-2.3125-.15958-4.37001-1.16333-5.90543-2.69625-1.4775-1.47792-2.47667-3.45251-2.745-5.63543l-.003-.0188c-.24083-1.35709-1.435-6.99085-5.34334-12.04836-3.82084-4.94418-10.3571-9.33794-21.43004-8.45335-.43917.0354-.85876.0779-1.25084.12292-.37542.0425-.78875.10041-1.21875.16541v-.002l-.0129.002c-.56833.0825-.99458.1525-1.2875.20542-.31292.0579-.65917.13125-1.04167.22083l-.0001-.002-.0104.002c-2.33625.53501-4.45542 1.31251-6.36293 2.27626" style="fill:#45363b"/></g><path d="m240.01841 765.96786c1.71834-.0754 3.17334 1.25792 3.24793 2.97542.0754 1.71834-1.25792 3.17334-2.97668 3.24792-1.21875.0529-2.4425.15709-3.65667.31292-1.23417.15833-2.44709.365-3.62459.62-11.62919 2.51334-21.14546 9.50794-27.12422 18.78212-5.58293 8.66085-8.07877 19.31921-6.32585 30.17257l4.20001-.82792c1.68875-.32959 3.32709.77125 3.65792 2.46.1075.55042.0637 1.09709-.105 1.59459l-3.88959 14.54878c-.44625 1.65834-2.15334 2.64334-3.81126 2.19667-.53625-.14375-1.00167-.41917-1.37125-.78292l-.005.005-11.80044-11.63711c-1.22834-1.205-1.24709-3.17959-.0425-4.40918.47958-.48791 1.08209-.78542 1.70917-.88958l5.34668-1.05334c-2.07501-12.50086.77833-24.78922 7.21335-34.76799 6.83501-10.60169 17.72128-18.60004 31.03214-21.47754 1.38792-.3 2.76876-.53709 4.13626-.71209 1.38667-.17833 2.78626-.2975 4.18959-.35791" style="fill:#45363b"/><g><g style="fill-rule:evenodd"><path d="m300.91479 760.43326l-19.53921-19.54004h-41.20008c-2.10376 0-3.82209 1.71959-3.82209 3.82209v73.05932c0 2.1025 1.71833 3.82209 3.82209 3.82209h56.91845c2.1025 0 3.82084-1.71959 3.82084-3.82209v-57.34137" style="fill:#f59610"/><path d="m281.37558 740.89322v15.71795c0 2.1025 1.71876 3.82209 3.82209 3.82209h15.71837l-19.54046-19.54004" style="fill:#e8e9e7"/></g><path d="m284.50101 748.43574v8.17543c0 .19125.0746.365.19375.49125l.0117.0121c.12625.11917.3.19334.49125.19334h8.1746l-8.87126-8.8721zm-6.25043-4.41751h-38.07508c-.19167 0-.365.0746-.49167.19375l-.0117.0117c-.11791.12542-.19375.29876-.19375.49167v73.05932c0 .19125.0746.365.19375.49125l.0117.0121c.12667.11917.3.19376.49167.19376h56.91845c.18875 0 .365-.0804.49-.20584l.065-.0625c.0888-.11792.14083-.26792.14083-.42875v-54.21636h-12.59211c-1.90375 0-3.63875-.78292-4.89667-2.03834l-.0117-.0121c-1.25584-1.25751-2.03875-2.99251-2.03875-4.89668v-12.59294zm25.78922 16.49545v57.26095c0 1.805-.7025 3.45834-1.84459 4.69626-.0604.0729-.12542.14417-.19375.2125-1.25667 1.25667-2.99542 2.03875-4.90751 2.03875h-56.91845c-1.90417 0-3.63918-.78333-4.8971-2.03875l-.0117-.0117c-1.25542-1.25792-2.03876-2.99292-2.03876-4.89709v-73.05932c0-1.90417.78209-3.63792 2.03876-4.89709l.0117-.0117c1.25792-1.25583 2.99293-2.03875 4.8971-2.03875h41.20008v.003l.0746.0001.0754.002.0746.005.0754.006.0746.008.0746.009.0742.0121.0733.0129.0746.0154.0729.0175.0733.0179.0721.0213.0721.0225.0721.0233.0708.0263.0708.0271.0708.0296.0696.0317.0688.0333.0683.0342.0675.0367.0671.0387.0662.0404.065.0412.065.0438.0638.0458.0625.0475.0612.0496.0617.0508.0592.0517.0587.0546.0579.0567 19.48587 19.48712h.0001l.0271.0271h.0001l.0258.0271h.0001l.0262.0271h.0001l.0517.0567h.0001l.025.0283h.00084l.025.0283h.0001l.0979.11834h.0001l.0696.0921h.0001l.0663.0958h.0001l.0838.12959h.0001l.0188.0333h.0001l.0379.0671h.00083l.0179.0342h.0001l.0354.0688h.0001l.0163.0354h.0001l.065.14167h.0001l.0142.0354h.0001l.0142.0367h.0001l.0412.11h.0001l.0117.0375h.0001l.0117.0367h.0001l.0342.11333h.0001l.02.0771h.0001l.001.0387h.0001l.008.0392h.0001l.0167.0779h.0001l.007.0387h.0001l.006.0404h.0001l.006.0387h.0001l.006.0404h.0001l.005.04h.0001l.003.04h.0001l.005.0404h.0001l.002.04h.0001l.003.0412h.0001l.002.0404h.0001l.00083.0412h.0001l.0001.0412h.0001l.0001.0412h.0001v.0417h.00084v.0412l.0001.0412-.0001.0804z" style="fill:#45363b"/><g style="fill:#fff;fill-rule:evenodd"><path d="m253.50761 773.99454h27.92964c1.88042 0 3.41792 1.53792 3.41792 3.41834 0 1.88042-1.5375 3.41792-3.41792 3.41792h-27.92964c-1.88042 0-3.41793-1.5375-3.41793-3.41792 0-1.88042 1.53751-3.41834 3.41793-3.41834"/><path d="m253.50761 787.95082h27.92964c1.88042 0 3.41792 1.5375 3.41792 3.41792 0 1.88042-1.5375 3.41793-3.41792 3.41793h-27.92964c-1.88042 0-3.41793-1.53751-3.41793-3.41793 0-1.88042 1.53751-3.41792 3.41793-3.41792"/><path d="m253.50761 801.90668h27.92964c1.88042 0 3.41792 1.5375 3.41792 3.41792 0 1.88043-1.5375 3.41835-3.41792 3.41835h-27.92964c-1.88042 0-3.41793-1.53792-3.41793-3.41835 0-1.88042 1.53751-3.41792 3.41793-3.41792"/></g></g><g><path d="m109.60898 816.99046c2.20625-1.93709 4.97001-3.45459 8.3871-4.23792.43917-.1025.98625-.20542 1.64625-.30209.5575-.085 1.12917-.15125 1.71375-.19958 15.7892-1.26292 18.82671 12.77461 19.16921 14.70003.18667 1.95584 1.72125 3.54292 3.68626 3.67876 1.0325.0713 2.0425.26 3.01792.54958.99459.29292 1.91209.68125 2.74126 1.14542 2.06 1.16209 3.73959 2.85834 4.82834 4.91001 1.02875 1.94167 1.54042 4.23793 1.35375 6.74626-.19041 2.56293-.84833 4.15043-1.96542 5.04585-1.33333 1.06542-3.52209 1.57334-6.46209 1.78834-1.93917.14166-18.40254.29875-33.47007.32208-11.29128.0213-21.819632-.0342-24.877555-.22417-1.585003-.0979-2.980006-.44666-4.116258-.99458-.993336-.48084-1.769171-1.10542-2.254588-1.81667-.369584-.54417-.558752-1.16334-.520835-1.82459.02833-.48208.162917-1.00625.415834-1.565.415835-.91542.995419-1.57459 1.632087-2.05292.907085-.68251 1.970004-1.05584 2.872506-1.26001 1.57792-.2625 2.907923-1.5025 3.24459-3.21375.770002-3.82001 2.089171-6.30252 3.623758-7.87335 1.76792-1.81167 3.916258-2.43293 5.755431-2.53334 1.56.0375 3.065-.88 3.73459-2.44376 1.30167-3.05459 3.20417-6.01418 5.84418-8.33168l-.008-.001.008-.003z" style="fill:#fff;fill-rule:evenodd"/><path d="m107.65314 814.56462c1.30959-1.13625 2.78709-2.14875 4.43626-2.98125 1.57084-.79625 3.30334-1.43251 5.20001-1.86751l-.00083-.002c.19583-.0462.50083-.1075.90708-.18208.39209-.0721.725-.12875.9825-.16625v-.003c.28334-.0425.60375-.0862.95667-.12625.3625-.0417.68292-.0746.965-.0983l.11709-.007c9.15127-.69792 14.68461 3.10292 17.98087 7.37001 3.22334 4.17168 4.20626 8.79836 4.40334 9.91211.0212.11917.0342.23833.0412.35667.04.19833.13833.37541.27167.50916.13583.13584.31417.22542.50542.23834.58833.0404 1.20958.12166 1.85458.2375l.0117.002v-.002c.63292.11583 1.2425.26208 1.8225.43333.61667.18209 1.19751.3875 1.73626.61292.57875.24125 1.1325.51167 1.65208.80209.0854.0475.16792.0992.24584.15375 1.20375.7075 2.29125 1.55167 3.23625 2.51208 1.02876 1.04542 1.90043 2.22501 2.57834 3.50084l.0946.19375c.62 1.20917 1.08292 2.51334 1.35708 3.88585.02.10041.0354.20083.045.3.23709 1.30958.31292 2.66792.21125 4.05126l-.0001.0117h.0001c-.11916 1.60376-.40166 2.94667-.84333 4.06418l-.0779.17958c-.53042 1.26375-1.26833 2.25001-2.20417 2.99876l-.0142.0104.003.003c-1.01458.81042-2.27708 1.38917-3.77584 1.78584-1.285.34125-2.75792.55292-4.40667.67334-.94501.0683-5.60335.14416-11.94919.20541-6.24585.0592-14.16628.105-21.74088.11709-6.04127.0117-11.86628.0001-16.440871-.0404-4.103341-.0367-7.215431-.0979-8.619601-.18417-.961669-.0592-1.887504-.19958-2.754589-.40875l-.129583-.0342c-.880002-.22083-1.687921-.51-2.403755-.85625-.708752-.3425-1.352503-.74875-1.915838-1.20125-.620001-.49833-1.146669-1.05917-1.558753-1.66542-.05208-.0754-.09958-.15333-.144167-.23125-.312084-.49958-.548334-1.02042-.700418-1.55334-.177084-.62375-.252917-1.2825-.213751-1.96875.02583-.46542.101251-.93542.224168-1.3975l.04958-.1675c.1075-.37459.244584-.74667.410001-1.11042.320001-.70625.717918-1.32959 1.160836-1.87417.440834-.54084.932085-.99917 1.448336-1.38667.692085-.52084 1.411253-.91084 2.108338-1.20001.656668-.27166 1.327502-.46875 1.947504-.60958l.17125-.0329v-.004c.161667-.0258.311667-.10625.427501-.22083.12875-.1275.225417-.30583.265834-.515.01875-.0967.0425-.1925.06958-.28584.412084-1.965.960419-3.62209 1.59792-5.01126.793752-1.72333 1.747087-3.08625 2.786256-4.15042 1.112919-1.13875 2.330422-1.93834 3.558757-2.47917 1.44792-.63667 2.92334-.9225 4.272093-.99459.09667-.005.193746-.006.289166-.00083.13125-.001.26833-.0579.39125-.13834.1475-.0971.27167-.23875.34459-.41208.75625-1.77542 1.70792-3.53876 2.8725-5.20043l.006-.008-.006-.004c1.00875-1.43709 2.19126-2.80251 3.55876-4.03709.0696-.0742.14417-.14625.22208-.21459l.10292-.0863zm7.24251 2.58418c-1.14125.575-2.16292 1.26708-3.0675 2.03833l-.16875.15959c-1.05.92125-1.97709 1.99-2.78751 3.14417l-.006-.004c-.88959 1.27-1.63 2.65167-2.23376 4.06793-.58333 1.36416-1.52833 2.45208-2.66208 3.195-1.12792.73667-2.45918 1.13834-3.82793 1.14334-.643751.04-1.344169.17833-2.02917.47917-.559585.24708-1.111252.60625-1.605003 1.11166-.567085.58001-1.107919 1.37001-1.590837 2.41876-.464168 1.00875-.864585 2.22292-1.169586 3.66876l-.03292.21125c-.288334 1.475-1.01 2.75792-1.999588 3.73709-1.018335 1.00958-2.318755 1.695-3.735841 1.94417-.250417.0625-.526668.15-.811252.26667-.285.11833-.555418.25875-.766668.41833-.119167.0896-.24.20292-.349584.3375-.1075.1325-.2125.30125-.305834.50709-.0425.0942-.07708.17708-.09958.24541l-.02.0804-.01625.0637c.06958.0933.166251.19.285834.28458.192501.15459.435835.30584.720418.44292.358751.1725.752085.31792 1.16792.42542l.120416.0258c.495001.11917 1.051253.20209 1.656254.23875 1.442086.0883 4.428759.14875 8.302934.18417 4.568347.04 10.375017.0508 16.391287.04 7.53543-.0104 15.43961-.0567 21.69129-.11708 6.07543-.0575 10.57419-.13334 11.55919-.20542 1.28875-.0933 2.38459-.24542 3.25876-.47709.66125-.17458 1.16333-.38625 1.48209-.64l.0001.002c.11333-.0967.22083-.25959.32375-.49375l.0412-.11084c.21375-.53958.35666-1.27792.4275-2.23334h.0001c.0625-.87041.0263-1.68542-.1025-2.43542-.0237-.0792-.0417-.16083-.0579-.24333-.16292-.815-.42667-1.57-.7725-2.25251l-.0675-.11916c-.4075-.76667-.91625-1.46126-1.50584-2.06001-.56917-.57875-1.20708-1.08167-1.89792-1.49417l-.1925-.0992c-.31667-.17709-.65083-.34-.99333-.48292-.36626-.15375-.73584-.28584-1.10084-.39334-.405-.11916-.80334-.2175-1.18709-.28708v-.0001c-.34583-.0613-.73458-.10958-1.15958-.13917-1.75751-.12041-3.32043-.88375-4.48376-2.04583-1.09709-1.09251-1.84125-2.55251-2.06084-4.1621l-.001-.0462c-.14292-.80875-.8575-4.17042-3.18168-7.17876-2.23125-2.88751-6.06751-5.45085-12.59794-4.95126l-.0579.005c-.30209.0246-.56334.0508-.76876.0742-.21625.025-.46416.0592-.73708.10041v-.002l-.0129.002c-.3825.0558-.63792.0971-.77583.12167-.15709.0283-.36167.0733-.61417.1325l-.0001-.002-.0108.002c-1.39584.31875-2.66084.78292-3.79585 1.35709" style="fill:#45363b"/></g><g style="fill:#45363b"><path d="m170.26119 802.79252l6.49834 1.42083c.73792.15917 1.20709.88709 1.04751 1.62376-.11792.54708-.54667.945-1.06167 1.05125l-6.48418 1.4175-1.42126 6.49835c-.15916.73833-.88667 1.20583-1.62375 1.0475-.54583-.11792-.945-.54667-1.05-1.06167l-1.41876-6.48418-6.49834-1.42084c-.73792-.15958-1.20584-.88708-1.0475-1.62417.11791-.54541.54666-.945 1.06166-1.05l6.48418-1.41833 1.42084-6.49877c.15958-.73792.88709-1.20708 1.62417-1.0475.54709.11833.945.54709 1.05125 1.06167l1.41751 6.4846"/><path d="m202.71875 923.49777l4.62293 1.01083c.52458.1125.8575.62959.74417 1.15542-.0837.38708-.38875.67084-.75459.74625l-4.61251 1.00875-1.00958 4.62168c-.11334.52459-.63084.8575-1.155.74542-.38876-.0842-.67209-.39-.74792-.755l-1.0075-4.6121-4.62293-1.01083c-.52417-.11375-.8575-.63084-.74375-1.15542.0837-.38833.38833-.67208.75458-.74625l4.6121-1.00875 1.01-4.62168c.11333-.52542.63083-.85875 1.155-.74542.38875.0842.67208.38875.7475.755l1.0075 4.6121"/><path d="m261.26512 846.07886l4.62293 1.01083c.52417.11208.8575.62959.74417 1.155-.0842.3875-.38875.67084-.755.74667l-4.6121 1.00875-1.01 4.62168c-.11333.52417-.63042.8575-1.155.745-.38875-.0838-.67208-.38958-.7475-.75458l-1.0075-4.6121-4.62293-1.01125c-.52458-.11333-.8575-.63083-.74417-1.155.0838-.38875.38875-.67209.75459-.74667l4.61251-1.00833 1.00958-4.62168c.11375-.52583.63084-.85875 1.15542-.74542.38834.0838.67209.38875.7475.75459l1.0075 4.61251"/></g></g><path id="0" d="m152.24155 45.617487c-1.09591.336612-2.25851-.279315-2.59514-1.375122-.33669-1.0955.27932-2.258091 1.37504-2.594729l1.06546-.326296.0733-.02221 1.01263-.301731c1.0983-.326288 2.25543.29898 2.58168 1.397308.32636 1.09829-.29905 2.255435-1.3973 2.581708l-1.01951.303536-.0309.01092-1.06545.326292zm51.89009 312.80941c2.86844-.0657 5.24847 2.20659 5.31462 5.07514.0657 2.86848-2.2066 5.24853-5.07511 5.31421-6.91866.17927-13.79434-.0587-20.57781-.71244-6.84857-.66041-13.64619-1.7355-20.34692-3.22061-2.80765-.62247-4.58041-3.40465-3.95793-6.21265.62247-2.80769 3.40498-4.5804 6.21268-3.95794 6.31912 1.40092 12.69912 2.41161 19.09761 3.02883 6.46145.622 12.92282.85172 19.33283.68563zm19.84106-.71374c2.26619-.34435 4.38464 1.21534 4.72943 3.48152.34439 2.26577-1.21523 4.38424-3.48146 4.72899-1.73529.26366-3.17683.46896-4.2905.60831-1.26282.1582-2.69828.31853-4.3038.47815-2.28558.2201-4.31868-1.45333-4.53912-3.73941-.22002-2.28559 1.45365-4.31816 3.73934-4.53868 1.18861-.11757 2.54937-.2743 4.06877-.46497 1.67738-.21022 3.02991-.39484 4.07736-.55393zm14.34744-1.79124c1.67089-.41019 3.35882.61398 3.7686 2.28477.41016 1.67085-.61406 3.35879-2.28483 3.76853-1.07966.2652-1.85797.45319-2.35394.56688-.3431.079-1.15068.25537-2.37341.51816-1.68027.35817-3.33573-.71431-3.69398-2.39411-.35828-1.67986.71424-3.33532 2.39414-3.694.32597-.0691 1.07181-.24026 2.27132-.51617 1.04663-.24126 1.8165-.42243 2.27211-.53379zm9.43861-1.53945c1.0959-.33663 2.25849.27926 2.59515 1.37507.33671 1.09551-.27935 2.25851-1.37508 2.59473l-1.06542.32636-.0738.0215-1.01267.30174c-1.09843.32669-2.25539-.29905-2.58169-1.39728-.32635-1.09829.2989-2.25499 1.39727-2.5817l1.0195-.30358.0309-.0105 1.06542-.32621zm-51.89002-312.80944c-2.86852.06572-5.24895-2.206702-5.31466-5.075198-.0658-2.868051 2.2066-5.248498 5.07508-5.314185 6.91866-.179283 13.79427.0591 20.57783.712405 6.84854.66044 13.64617 1.735575 20.34686 3.221 2.80763.622427 4.58043 3.404625 3.95789 6.21269-.62246 2.807655-3.40497 4.58037-6.21268 3.957926-6.31907-1.400926-12.69907-2.411615-19.09756-3.02902-6.46143-.622011-12.92279-.85179-19.33276-.685636zm-19.84114.713786c-2.26614.344361-4.38467-1.215308-4.72952-3.48117-.3443-2.266189 1.21537-4.384672 3.48156-4.729424 1.73527-.263612 3.17685-.468965 4.29038-.607898 1.26295-.158292 2.69844-.318926 4.3039-.478555 2.2856-.220066 4.3186 1.453746 4.53871 3.739337.22051 2.28566-1.45332 4.318627-3.73891 4.538758-1.18867.11759-2.54941.274301-4.06876.464935-1.67737.210246-3.02987.395258-4.0774.553987zm-14.3474 1.791279c-1.67091.410132-3.35892-.613626-3.76868-2.284431-.41018-1.67088.61366-3.359335 2.28454-3.769077 1.08004-.264973 1.85835-.453113 2.35429-.566748.34273-.07895 1.1501-.255371 2.37344-.518167 1.67984-.358304 3.33572.7143 3.69392 2.394212.35827 1.679826-.7143 3.335689-2.39412 3.693982-.32602.069-1.07194.239882-2.27135.516068-1.04662.241298-1.81665.422687-2.27202.534182" style="fill:#45363b"><animateTransform attributeName="transform" attributeType="XML" type="rotate" from="0 200 200" to="360 200 200" dur="2s" repeatCount="indefinite"/></path></svg>