<?xml version="1.0" encoding="UTF-8" standalone="no"?>
<!-- Created with Inkscape (http://www.inkscape.org/) -->

<svg
   xmlns:dc="http://purl.org/dc/elements/1.1/"
   xmlns:cc="http://creativecommons.org/ns#"
   xmlns:rdf="http://www.w3.org/1999/02/22-rdf-syntax-ns#"
   xmlns:svg="http://www.w3.org/2000/svg"
   xmlns="http://www.w3.org/2000/svg"
   xmlns:sodipodi="http://sodipodi.sourceforge.net/DTD/sodipodi-0.dtd"
   xmlns:inkscape="http://www.inkscape.org/namespaces/inkscape"
   width="602"
   height="135.554"
   viewBox="0 0 602.00001 135.554"
   id="svg3364"
   version="1.1"
   inkscape:version="0.91 r13725"
   sodipodi:docname="logo_grey.svg">
  <defs
     id="defs3366">
    <clipPath
       id="clipPath3404"
       clipPathUnits="userSpaceOnUse">
      <path
         style="clip-rule:evenodd"
         inkscape:connector-curvature="0"
         id="path3406"
         d="M 94.498,892.0298 53.25,903.4271 c -8.1817,2.5359 -8.0961,7.4134 -8.504,13.5221 -0.2551,3.8441 -0.5595,58.6704 -0.1026,66.7729 0.2985,5.2693 1.0636,9.6364 8.6066,12.1504 l 40.0263,11.0566 c 1.3742,0.3784 1.1497,0.358 2.5257,-0.022 l 39.9441,-11.0345 c 7.5452,-2.514 8.308,-6.8811 8.6068,-12.1504 0.4567,-8.1025 0.1548,-62.9288 -0.1037,-66.7729 -0.4068,-6.1087 -0.3192,-10.9862 -8.5031,-13.5221 L 94.498,892.0298 Z m -26.8628,33.0704 c 1.836,-0.1343 17.413,-0.2832 31.6701,-0.3053 10.6843,-0.0195 20.6473,0.0326 23.5395,0.2126 1.5009,0.0927 2.8204,0.423 3.8962,0.9414 0.9397,0.4544 1.6736,1.0463 2.1328,1.7187 0.35,0.5153 0.5286,1.1001 0.4932,1.7268 -0.0269,0.4561 -0.1542,0.9516 -0.3937,1.4803 -0.3935,0.8668 -0.9426,1.4896 -1.5441,1.9431 -0.8589,0.6449 -1.8643,0.999 -2.7178,1.1917 -1.4936,0.2483 -2.7516,1.4219 -3.0708,3.0419 -0.7288,3.6139 -1.9766,5.9632 -3.4282,7.4489 -1.673,1.7149 -3.7063,2.302 -5.4465,2.3978 -1.4763,-0.0357 -2.9004,0.8319 -3.5334,2.3122 -1.2319,2.8899 -3.0322,5.6908 -5.5301,7.8829 l 0.008,0.009 -0.008,0.004 c -2.088,1.8326 -4.703,3.2687 -7.9359,4.0099 -0.4167,0.0978 -0.9334,0.1942 -1.5585,0.286 -0.5272,0.0805 -1.0678,0.1429 -1.6208,0.1888 -14.94,1.1957 -17.8149,-12.0878 -18.1389,-13.9093 -0.1763,-1.851 -1.6288,-3.3525 -3.4875,-3.4812 -0.9768,-0.0672 -1.9329,-0.2458 -2.8562,-0.5202 -0.9411,-0.2764 -1.8088,-0.6446 -2.5937,-1.0834 -1.9494,-1.0998 -3.5379,-2.7042 -4.5691,-4.646 -0.9737,-1.838 -1.4565,-4.0096 -1.2802,-6.3836 0.18,-2.4253 0.802,-3.9268 1.8593,-4.7741 1.2622,-1.0083 3.3327,-1.4888 6.1143,-1.6926" />
    </clipPath>
  </defs>
  <sodipodi:namedview
     id="base"
     pagecolor="#ffffff"
     bordercolor="#666666"
     borderopacity="1.0"
     inkscape:pageopacity="0.0"
     inkscape:pageshadow="2"
     inkscape:zoom="1"
     inkscape:cx="619.83464"
     inkscape:cy="118.9515"
     inkscape:document-units="px"
     inkscape:current-layer="layer1"
     showgrid="false"
     inkscape:snap-page="true"
     units="px"
     inkscape:window-width="2304"
     inkscape:window-height="1233"
     inkscape:window-x="-8"
     inkscape:window-y="-8"
     inkscape:window-maximized="1" />
  <metadata
     id="metadata3369">
    <rdf:RDF>
      <cc:Work
         rdf:about="">
        <dc:format>image/svg+xml</dc:format>
        <dc:type
           rdf:resource="http://purl.org/dc/dcmitype/StillImage" />
        <dc:title></dc:title>
      </cc:Work>
    </rdf:RDF>
  </metadata>
  <g
     inkscape:label="Layer 1"
     inkscape:groupmode="layer"
     id="layer1"
     transform="translate(0,-916.80816)">
    <g
       transform="matrix(1.1595926,0,0,-1.1595926,-50.494973,2267.7559)"
       inkscape:label="logo1"
       id="g3606">
      <path
         inkscape:connector-curvature="0"
         id="path3608"
         style="fill:#cec7c4;fill-opacity:1;fill-rule:evenodd;stroke:none"
         d="m 544.7276,1111.0997 c 0,-5.0592 -1.8014,-9.1706 -5.4051,-12.3017 -3.5906,-3.138 -8.3313,-4.703 -14.2205,-4.703 -4.5159,0 -8.3679,0.8028 -11.5682,2.429 -3.1887,1.6211 -4.7878,3.5203 -4.7878,5.6988 0,1.544 0.5106,2.7969 1.5415,3.7445 1.0313,0.9516 2.4163,1.4216 4.1482,1.4216 0.8655,0 2.655,-0.4229 5.3918,-1.2793 2.7267,-0.8509 5.0264,-1.2804 6.91,-1.2804 1.6121,0 2.9747,0.4975 4.0527,1.4973 1.0925,0.9944 1.6368,2.2266 1.6368,3.7094 0,1.6002 -0.5587,2.8794 -1.6708,3.8531 -1.116,0.9672 -3.4991,2.0138 -7.1603,3.1116 -5.3099,1.5792 -9.0062,3.4509 -11.1166,5.6087 -2.1093,2.1704 -3.1655,5.085 -3.1655,8.7332 0,4.7041 1.6957,8.5493 5.0984,11.5316 3.3897,2.9878 7.8078,4.485 13.2509,4.485 4.0056,0 7.3105,-0.714 9.9065,-2.1367 2.5974,-1.4358 3.8871,-3.2123 3.8871,-5.3306 0,-1.544 -0.462,-2.7422 -1.3745,-3.6065 -0.9125,-0.8651 -2.1798,-1.3011 -3.8047,-1.3011 -0.8994,0 -2.3692,0.2937 -4.4092,0.8861 -2.0373,0.5913 -3.5788,0.8901 -4.6217,0.8901 -1.7177,0 -3.0804,-0.402 -4.1011,-1.1968 -1.0179,-0.8039 -1.5285,-1.8507 -1.5285,-3.1391 0,-2.0622 2.253,-3.8047 6.7428,-5.2143 1.0457,-0.3198 1.851,-0.5848 2.4304,-0.7623 4.8464,-1.62 8.3795,-3.6612 10.609,-6.1256 2.215,-2.4642 3.3284,-5.5341 3.3284,-9.2226 z m -5.934,-44.1697 c 0,-1.3861 0.8662,-2.3102 2.0795,-2.3102 1.2129,0 2.0792,0.9241 2.0792,2.3102 l 0,9.5882 1.184,0 c 1.0687,0 1.9928,0.5199 1.9928,1.8196 0,1.3283 -0.9241,1.8192 -1.9928,1.8192 l -1.184,0 0,2.4838 c 0,1.3861 -0.8663,2.3105 -2.0792,2.3105 -1.2133,0 -2.0795,-0.9244 -2.0795,-2.3105 l 0,-2.4838 -0.9241,0 c -1.0398,0 -1.8196,-0.7798 -1.8196,-1.8192 0,-1.1265 0.6931,-1.8196 1.8196,-1.8196 l 0.9241,0 0,-9.5882 z m -17.068,0 c 0,-1.3861 0.8666,-2.3102 2.0795,-2.3102 1.2129,0 2.0792,0.9241 2.0792,2.3102 l 0,7.2491 c 0,1.6171 0.953,2.859 2.6569,2.859 1.5018,0 2.7148,-0.9241 2.7148,-2.859 l 0,-7.2491 c 0,-1.3861 0.8665,-2.3102 2.0795,-2.3102 1.2129,0 2.0792,0.9241 2.0792,2.3102 l 0,7.971 c 0,3.5232 -2.4259,5.6027 -5.6894,5.6027 -1.9636,0 -3.2055,-0.5777 -4.0142,-1.7039 -0.1445,0.953 -0.8376,1.5307 -1.906,1.5307 -1.2129,0 -2.0795,-0.9244 -2.0795,-2.3105 l 0,-11.09 z m -3.2924,4.1587 c 1.2707,0 1.8195,0.6066 1.8195,1.8485 0,3.4656 -2.9747,7.5665 -7.48,7.5665 -4.3898,0 -7.4509,-3.8409 -7.4509,-8.0575 0,-4.5921 3.119,-7.9999 7.7975,-7.9999 3.0901,0 6.7867,1.7328 6.7867,3.5235 0,0.8951 -0.8084,1.7906 -1.7039,1.7906 -1.0972,0 -2.5701,-1.675 -4.7075,-1.675 -1.9349,0 -3.6388,0.953 -3.9276,3.0033 l 8.8662,0 z m -8.9527,2.7726 c 0.2021,1.7617 1.444,3.1768 3.2922,3.1768 1.9349,0 3.0903,-1.3572 3.3213,-3.1768 l -6.6135,0 z m -27.8691,-6.9313 c 0,-1.3861 0.8666,-2.3102 2.0795,-2.3102 1.2129,0 2.0792,0.9241 2.0792,2.3102 l 0,7.2491 c 0,1.6749 0.7509,2.859 2.4548,2.859 1.5018,0 2.4259,-1.1841 2.4259,-2.859 l 0,-7.2491 c 0,-1.3861 0.8666,-2.3102 2.0795,-2.3102 1.2129,0 2.0792,0.9241 2.0792,2.3102 l 0,7.2491 c 0,1.6749 0.9241,2.859 2.4548,2.859 1.5018,0 2.4259,-1.1841 2.4259,-2.859 l 0,-7.2491 c 0,-1.3861 0.8666,-2.3102 2.0795,-2.3102 1.2129,0 2.0792,0.9241 2.0792,2.3102 l 0,7.971 c 0,3.6389 -2.3102,5.6027 -5.6891,5.6027 -1.4154,0 -3.2346,-0.7798 -4.39,-2.1084 -1.0973,1.3864 -2.5702,2.1084 -4.303,2.1084 -1.5307,0 -2.8591,-0.6355 -3.8699,-1.7328 -0.1446,0.9819 -0.8376,1.5596 -1.906,1.5596 -1.2129,0 -2.0795,-0.9244 -2.0795,-2.3105 l 0,-11.09 z m -3.2924,4.1587 c 1.2707,0 1.8195,0.6066 1.8195,1.8485 0,3.4656 -2.9747,7.5665 -7.48,7.5665 -4.3898,0 -7.4509,-3.8409 -7.4509,-8.0575 0,-4.5921 3.119,-7.9999 7.7975,-7.9999 3.0901,0 6.7867,1.7328 6.7867,3.5235 0,0.8951 -0.8084,1.7906 -1.7039,1.7906 -1.0973,0 -2.5701,-1.675 -4.7075,-1.675 -1.9349,0 -3.6388,0.953 -3.9276,3.0033 l 8.8662,0 z m -8.9527,2.7726 c 0.2021,1.7617 1.444,3.1768 3.2922,3.1768 1.9349,0 3.0903,-1.3572 3.3213,-3.1768 l -6.6135,0 z m -5.6316,4.1587 c 0,1.3861 -0.8663,2.3105 -2.0792,2.3105 -1.1554,0 -1.8196,-0.6355 -2.0795,-1.7328 -0.7798,1.2705 -2.397,1.906 -3.812,1.906 -4.1877,0 -6.8446,-3.8988 -6.8446,-8.0864 0,-4.1298 2.0503,-7.971 6.4112,-7.971 1.9063,0 3.3213,0.6934 4.1876,1.9638 l 0.0578,0 0,-0.9819 c 0,-2.1081 -1.5018,-3.2921 -3.5235,-3.2921 -2.3969,0 -3.8698,1.2996 -5.1981,1.2996 -0.8088,0 -1.675,-1.0397 -1.675,-1.8195 0,-2.2816 4.8517,-3.119 6.5557,-3.119 4.7361,0 7.9996,2.5124 7.9996,7.5087 l 0,12.0141 z m -4.1587,-5.6605 c 0,-2.0217 -1.0397,-4.1009 -3.2635,-4.1009 -2.166,0 -3.2344,2.0217 -3.2344,4.2452 0,1.9352 1.0684,4.1876 3.2344,4.1876 2.2816,0 3.2635,-2.3102 3.2635,-4.3319 z m -12.4183,5.2563 c 0,1.0684 0,2.7147 -1.9928,2.7147 -1.0108,0 -1.8771,-0.7222 -1.9927,-1.7328 -0.9241,1.2994 -2.4259,1.906 -3.9563,1.906 -3.8123,0 -6.8735,-3.4945 -6.8735,-8.0575 0,-4.6785 2.9744,-7.9999 6.8735,-7.9999 1.5882,0 2.8879,0.6644 3.9563,1.9352 0.2888,-1.0976 0.7798,-1.7617 1.9927,-1.7617 1.9928,0 1.9928,1.6461 1.9928,2.7147 l 0,10.2813 z m -10.6566,-5.1696 c 0,1.9928 1.0109,4.2452 3.2922,4.2452 2.1949,0 3.2057,-2.2524 3.2057,-4.2452 0,-1.9927 -1.0398,-4.1876 -3.2057,-4.1876 -2.2527,0 -3.2922,2.1949 -3.2922,4.1876 z m -19.6095,-5.5162 c 0,-1.3861 0.8666,-2.3102 2.0795,-2.3102 1.213,0 2.0792,0.9241 2.0792,2.3102 l 0,7.2491 c 0,1.6171 0.953,2.859 2.6569,2.859 1.5018,0 2.7148,-0.9241 2.7148,-2.859 l 0,-7.2491 c 0,-1.3861 0.8665,-2.3102 2.0795,-2.3102 1.2129,0 2.0792,0.9241 2.0792,2.3102 l 0,7.971 c 0,3.5232 -2.4259,5.6027 -5.6894,5.6027 -1.9636,0 -3.2054,-0.5777 -4.0142,-1.7039 -0.1445,0.953 -0.8376,1.5307 -1.906,1.5307 -1.2129,0 -2.0795,-0.9244 -2.0795,-2.3105 l 0,-11.09 z m -2.368,10.6858 c 0,1.0684 0,2.7147 -1.9928,2.7147 -1.0108,0 -1.8771,-0.7222 -1.9928,-1.7328 -0.924,1.2994 -2.4258,1.906 -3.9563,1.906 -3.8123,0 -6.8734,-3.4945 -6.8734,-8.0575 0,-4.6785 2.9744,-7.9999 6.8734,-7.9999 1.5883,0 2.888,0.6644 3.9563,1.9352 0.2889,-1.0976 0.7799,-1.7617 1.9928,-1.7617 1.9928,0 1.9928,1.6461 1.9928,2.7147 l 0,10.2813 z m -10.6566,-5.1696 c 0,1.9928 1.0108,4.2452 3.2921,4.2452 2.1949,0 3.2058,-2.2524 3.2058,-4.2452 0,-1.9927 -1.0398,-4.1876 -3.2058,-4.1876 -2.2526,0 -3.2921,2.1949 -3.2921,4.1876 z m -29.1399,-5.2562 c -0.0289,-0.1732 -0.0289,-0.3464 -0.0289,-0.491 0,-1.2708 0.9241,-2.0792 2.0795,-2.0792 1.4729,0 2.0503,0.6641 2.2524,2.0214 l 1.7042,11.7541 0.0575,0 3.4657,-12.1005 c 0.2021,-0.6931 0.7509,-1.675 2.3105,-1.675 1.5593,0 2.1081,0.9819 2.3102,1.675 l 3.4657,12.1005 0.0578,0 1.7039,-11.7541 c 0.2021,-1.3573 0.7798,-2.0214 2.2527,-2.0214 1.1551,0 2.0792,0.8084 2.0792,2.0792 0,0.1446 0,0.3178 -0.0289,0.491 l -2.6858,16.1149 c -0.1732,1.0398 -1.2994,2.2238 -2.8301,2.2238 -1.444,0 -2.5705,-1.0395 -2.888,-2.0792 l -3.4078,-11.4364 -0.0578,0 -3.4078,11.4364 c -0.3178,1.0397 -1.444,2.0792 -2.888,2.0792 -1.5307,0 -2.6572,-1.184 -2.8304,-2.2238 l -2.6858,-16.1149 z m -16.9526,-0.26 c 0,-1.3861 0.8666,-2.3102 2.0795,-2.3102 1.213,0 2.0792,0.9241 2.0792,2.3102 l 0,6.3825 c 0,1.6461 1.2708,2.1949 2.5127,2.7726 1.2418,0.5777 2.4837,0.6641 2.4837,2.0216 0,1.5016 -1.0109,2.2238 -2.0217,2.2238 -1.2994,0 -2.137,-0.5777 -2.9168,-1.7328 l -0.0579,0 c 0,1.3283 -0.9241,1.7328 -2.0214,1.7328 -1.0397,0 -2.1373,-0.6933 -2.1373,-2.0795 l 0,-11.321 z m -3.2346,4.1587 c 1.2708,0 1.8196,0.6066 1.8196,1.8485 0,3.4656 -2.9747,7.5665 -7.4801,7.5665 -4.3897,0 -7.4509,-3.8409 -7.4509,-8.0575 0,-4.5921 3.119,-7.9999 7.7976,-7.9999 3.09,0 6.7867,1.7328 6.7867,3.5235 0,0.8951 -0.8085,1.7906 -1.7039,1.7906 -1.0973,0 -2.5702,-1.675 -4.7075,-1.675 -1.9349,0 -3.6388,0.953 -3.9277,3.0033 l 8.8662,0 z m -8.9527,2.7726 c 0.2022,1.7617 1.444,3.1768 3.2922,3.1768 1.9349,0 3.0903,-1.3572 3.3214,-3.1768 l -6.6136,0 z m -10.8011,-6.9313 c 0,-1.3861 0.8663,-2.3102 2.0795,-2.3102 1.213,0 2.0792,0.9241 2.0792,2.3102 l 0,9.5882 1.1841,0 c 1.0686,0 1.9927,0.5199 1.9927,1.8196 0,1.3283 -0.9241,1.8192 -1.9927,1.8192 l -1.1841,0 0,2.4838 c 0,1.3861 -0.8662,2.3105 -2.0792,2.3105 -1.2132,0 -2.0795,-0.9244 -2.0795,-2.3105 l 0,-2.4838 -0.9241,0 c -1.0397,0 -1.8195,-0.7798 -1.8195,-1.8192 0,-1.1265 0.693,-1.8196 1.8195,-1.8196 l 0.9241,0 0,-9.5882 z m -17.068,0 c 0,-1.3861 0.8666,-2.3102 2.0795,-2.3102 1.213,0 2.0793,0.9241 2.0793,2.3102 l 0,7.2491 c 0,1.6171 0.953,2.859 2.6569,2.859 1.5018,0 2.7147,-0.9241 2.7147,-2.859 l 0,-7.2491 c 0,-1.3861 0.8666,-2.3102 2.0795,-2.3102 1.2129,0 2.0792,0.9241 2.0792,2.3102 l 0,7.971 c 0,3.5232 -2.4259,5.6027 -5.6894,5.6027 -1.9636,0 -3.2054,-0.5777 -4.0141,-1.7039 -0.1446,0.953 -0.8377,1.5307 -1.9061,1.5307 -1.2129,0 -2.0795,-0.9244 -2.0795,-2.3105 l 0,-11.09 z m -6.4692,0 c 0,-1.3861 0.8666,-2.3102 2.0795,-2.3102 1.213,0 2.0792,0.9241 2.0792,2.3102 l 0,11.09 c 0,1.3861 -0.8662,2.3105 -2.0792,2.3105 -1.2129,0 -2.0795,-0.9244 -2.0795,-2.3105 l 0,-11.09 z m 2.0795,19.6384 c -1.2418,0 -2.3394,-1.0973 -2.3394,-2.2816 0,-1.2705 1.0976,-2.3969 2.3394,-2.3969 1.2997,0 2.3392,1.0975 2.3392,2.3969 0,1.213 -1.0973,2.2816 -2.3392,2.2816 z M 301.6318,1066.93 c 0,-1.3861 0.8666,-2.3102 2.0795,-2.3102 1.213,0 2.0792,0.9241 2.0792,2.3102 l 0,6.3825 c 0,1.6461 1.2708,2.1949 2.5126,2.7726 1.2419,0.5777 2.4838,0.6641 2.4838,2.0216 0,1.5016 -1.0109,2.2238 -2.0217,2.2238 -1.2994,0 -2.137,-0.5777 -2.9169,-1.7328 l -0.0578,0 c 0,1.3283 -0.9241,1.7328 -2.0214,1.7328 -1.0397,0 -2.1373,-0.6933 -2.1373,-2.0795 l 0,-11.321 z m -15.8836,-0.058 c 0,-1.4443 0.9241,-2.2527 2.1659,-2.2527 1.2419,0 2.166,0.8084 2.166,2.2527 l 0,4.7361 3.2057,0 c 3.9566,0 7.2198,2.628 7.2198,6.8445 0,4.1298 -3.1479,6.9024 -7.393,6.9024 l -5.112,0 c -1.444,0 -2.2524,-0.8952 -2.2524,-2.2527 l 0,-16.2303 z m 4.3319,14.671 2.9457,0 c 1.8196,0 2.9747,-1.3286 2.9747,-3.0615 0,-1.7328 -1.1551,-3.0611 -2.9747,-3.0611 l -2.9457,0 0,6.1226 z m -31.3345,-14.5846 c 0,-1.646 1.3283,-2.1659 2.2813,-2.1659 l 5.0253,0 c 5.9493,0 9.8767,3.9277 9.8767,9.9924 0,6.4114 -3.6963,10.5701 -10.1656,10.5701 l -4.7939,0 c -1.2997,0 -2.2238,-0.8952 -2.2238,-2.2238 l 0,-16.1728 z m 4.3319,14.4111 2.628,0 c 3.9855,0 5.7183,-2.6858 5.7183,-6.3825 0,-3.4654 -1.7039,-6.209 -5.4294,-6.209 l -2.9169,0 0,12.5915 z m -14.3821,4.3322 c -3.2057,0 -6.2958,-2.4262 -6.2958,-4.6786 0,-1.0687 0.6931,-2.1373 1.8771,-2.1373 1.9639,0 1.5886,2.8304 4.3319,2.8304 1.2997,0 2.0795,-0.8377 2.0795,-1.935 0,-3.2057 -4.1009,-1.1554 -4.1009,-4.1876 0,-3.4078 4.9097,-0.4331 4.9097,-4.4765 0,-1.5307 -1.213,-2.6858 -2.7148,-2.6858 -3.2635,0 -2.8015,3.3789 -4.7653,3.3789 -1.0398,0 -2.2238,-0.8084 -2.2238,-1.9349 0,-2.2813 2.6569,-5.4295 6.9313,-5.4295 4.1009,0 7.2777,2.9168 7.2777,6.3825 0,2.2816 -1.444,4.2165 -3.5232,5.1695 1.5882,1.0109 2.368,2.5994 2.368,4.4187 0,2.2527 -1.9927,5.2852 -6.1514,5.2852 z m -16.7502,-0.9819 c 0,1.3861 -0.8663,2.3102 -2.0792,2.3102 -1.213,0 -2.0795,-0.9241 -2.0795,-2.3102 l 0,-5.6606 c -1.0973,0.9531 -2.5127,1.444 -3.9566,1.444 -4.4762,0 -6.7,-4.1876 -6.7,-8.2309 0,-3.9277 2.6569,-7.8265 6.8445,-7.8265 1.4151,0 3.0322,0.6355 3.8121,1.9063 0.2599,-1.0976 0.9241,-1.7328 2.0795,-1.7328 1.2129,0 2.0792,0.9241 2.0792,2.3102 l 0,17.7903 z m -4.1587,-12.1298 c 0,-2.0216 -0.982,-4.3319 -3.2636,-4.3319 -2.1659,0 -3.2343,2.2527 -3.2343,4.1876 0,1.9639 1.0684,4.2452 3.2343,4.2452 2.2238,0 3.2636,-2.0792 3.2636,-4.1009 z m -26.1074,-2.0792 c 0,-3.6967 2.4548,-6.065 6.8445,-6.065 4.3898,0 6.8446,2.3683 6.8446,6.065 l 0,7.5087 c 0,1.3861 -0.8663,2.3105 -2.0793,2.3105 -1.2129,0 -2.0795,-0.9244 -2.0795,-2.3105 l 0,-7.4222 c 0,-1.7329 -1.2994,-2.6859 -2.6858,-2.6859 -1.3861,0 -2.6858,0.953 -2.6858,2.6859 l 0,7.4222 c 0,1.3861 -0.8663,2.3105 -2.0792,2.3105 -1.213,0 -2.0795,-0.9244 -2.0795,-2.3105 l 0,-7.5087 z m -9.2126,9.9924 c -4.3897,0 -7.4509,-3.8409 -7.4509,-8.0575 0,-4.3322 2.9744,-7.9999 7.4509,-7.9999 4.4765,0 7.4511,3.6677 7.4511,7.9999 0,4.2166 -3.0614,8.0575 -7.4511,8.0575 z m 0,-3.8123 c 2.2816,0 3.2924,-2.2524 3.2924,-4.2452 0,-1.9927 -1.0397,-4.1876 -3.2924,-4.1876 -2.2527,0 -3.2922,2.1949 -3.2922,4.1876 0,1.9928 1.0109,4.2452 3.2922,4.2452 z m -13.3138,-9.7614 c 0,-1.3861 0.8666,-2.3102 2.0795,-2.3102 1.213,0 2.0792,0.9241 2.0792,2.3102 l 0,17.7903 c 0,1.3861 -0.8662,2.3102 -2.0792,2.3102 -1.2129,0 -2.0795,-0.9241 -2.0795,-2.3102 l 0,-17.7903 z m -18.2809,8.1442 c 0,-5.9782 4.072,-10.6279 9.9346,-10.6279 2.1373,0 6.4981,0.6355 6.4981,3.4078 0,0.6645 -0.6066,1.9639 -1.906,1.9639 -1.1843,0 -2.1662,-1.213 -4.5921,-1.213 -3.5521,0 -5.4292,2.9458 -5.4292,6.3825 0,3.5235 1.8482,6.556 5.4292,6.556 2.4259,0 3.2346,-1.0109 4.4186,-1.0109 1.0687,0 1.7907,0.8952 1.7907,1.935 0,2.5412 -4.1009,3.2346 -6.2093,3.2346 -5.8915,0 -9.9346,-4.6211 -9.9346,-10.628 z m 385.4897,75.0427 -0.2758,0 c -0.2537,0 -0.4822,0.023 -0.6809,0.064 l -0.002,0 c -0.2186,0.046 -0.4074,0.1213 -0.5619,0.2217 l -0.004,0 c -0.1701,0.1137 -0.3014,0.2594 -0.3898,0.4337 -0.0847,0.1701 -0.129,0.362 -0.129,0.5729 0,0.214 0.0443,0.4094 0.1301,0.5817 0.0896,0.1777 0.2231,0.3265 0.3963,0.4391 0.1522,0.1 0.341,0.1766 0.5607,0.2242 l 0.002,0 c 0.1964,0.042 0.4249,0.065 0.6786,0.065 l 3.2899,0 c 0.2506,0 0.479,-0.023 0.6755,-0.065 l 0.002,0 c 0.2162,-0.048 0.4016,-0.1236 0.5572,-0.2242 l 10e-4,0 c 0.172,-0.1126 0.3078,-0.2614 0.3974,-0.4391 l 0.002,0 c 0.0827,-0.1689 0.1278,-0.3643 0.1278,-0.5783 0,-0.212 -0.0442,-0.4062 -0.1312,-0.5763 -0.0885,-0.1743 -0.222,-0.3189 -0.3898,-0.4303 l -0.006,0 c -0.1534,-0.098 -0.3399,-0.1732 -0.5584,-0.2194 l -0.002,0 c -0.1987,-0.041 -0.4261,-0.064 -0.6755,-0.064 l -0.2804,0 0,-4.8838 c 0,-0.2548 -0.0241,-0.4867 -0.0694,-0.6862 l 0,0 c -0.0507,-0.2174 -0.1335,-0.4073 -0.2415,-0.5618 l 0,0 c -0.2384,-0.3387 -0.5916,-0.5099 -1.0554,-0.5099 -0.4646,0 -0.8178,0.1712 -1.0561,0.5099 -0.1092,0.1557 -0.1908,0.3467 -0.2416,0.5653 -0.0453,0.1995 -0.0697,0.4314 -0.0697,0.6862 l 0,4.8838 z m 4.9765,-4.5989 1.0165,5.6628 c 0.0462,0.2628 0.1137,0.4943 0.1953,0.6888 0.0916,0.2174 0.2075,0.3971 0.3433,0.5329 l 0.003,0 c 0.1434,0.1435 0.3166,0.2517 0.5185,0.3212 l 0,0 c 0.1887,0.066 0.4008,0.099 0.6358,0.099 0.2197,0 0.4249,-0.031 0.6069,-0.09 l 0,0 c 0.1956,-0.063 0.371,-0.1602 0.5198,-0.288 l 0.002,0 c 0.1446,-0.1259 0.2704,-0.2803 0.3719,-0.4646 0.0961,-0.1732 0.1732,-0.3742 0.2296,-0.5961 l 0.8377,-3.2987 0.7846,3.3066 0.002,0 c 0.0518,0.2194 0.1258,0.417 0.2196,0.5882 l 0,0 c 0.1004,0.182 0.2262,0.3399 0.3742,0.4646 0.1446,0.1236 0.3178,0.2217 0.5077,0.2858 l 0,0 c 0.1843,0.062 0.3852,0.094 0.6004,0.094 0.2438,0 0.4646,-0.035 0.6599,-0.1037 l 0,0 c 0.2086,-0.073 0.3886,-0.1854 0.5374,-0.3365 l 0.001,0 c 0.1423,-0.1426 0.2627,-0.33 0.3566,-0.5553 l 0,0 c 0.0839,-0.2056 0.1499,-0.4493 0.1941,-0.7232 l 0.925,-5.7157 0.002,-0.01 0.0331,-0.2415 0.003,-0.027 0.008,-0.1072 0,-0.016 0.003,-0.1004 0.001,-0.013 c 0,-0.1998 -0.032,-0.3852 -0.0915,-0.5519 l 10e-4,0 c -0.0629,-0.1766 -0.1624,-0.3322 -0.2925,-0.4646 l -10e-4,0 c -0.1292,-0.1324 -0.2803,-0.2327 -0.4515,-0.2991 -0.1644,-0.065 -0.3476,-0.097 -0.5417,-0.097 -0.3952,0 -0.7152,0.1423 -0.9536,0.4238 -0.1114,0.1312 -0.2032,0.2902 -0.2682,0.4745 l 10e-4,0 c -0.0618,0.1678 -0.1072,0.3631 -0.1338,0.5771 l 0,0 -0.3155,2.619 -0.0584,-0.2449 c -0.1811,-0.743 -0.3234,-1.3034 -0.4238,-1.6787 -0.1094,-0.4028 -0.212,-0.7438 -0.3024,-1.0154 l 0,0 c -0.0961,-0.2849 -0.1866,-0.4932 -0.264,-0.618 -0.0606,-0.098 -0.1323,-0.1834 -0.2117,-0.2517 -0.0828,-0.072 -0.1789,-0.1312 -0.2815,-0.1732 -0.0972,-0.041 -0.2052,-0.072 -0.3177,-0.088 l 0,0 c -0.1061,-0.015 -0.2209,-0.025 -0.3368,-0.025 -0.2018,0 -0.3852,0.024 -0.544,0.072 -0.1766,0.053 -0.3333,0.1378 -0.4615,0.2483 -0.1213,0.1057 -0.2296,0.2472 -0.3177,0.4159 -0.0805,0.1547 -0.148,0.3344 -0.1976,0.5354 l 0,0 -0.703,2.9301 -0.3509,-2.6155 0,0 c -0.0332,-0.2418 -0.0828,-0.457 -0.1468,-0.6367 -0.0706,-0.2021 -0.1645,-0.3742 -0.2739,-0.5077 l -0.003,0 c -0.1205,-0.1434 -0.2684,-0.2559 -0.4382,-0.3311 l 0,0 c -0.1644,-0.072 -0.3467,-0.1091 -0.5443,-0.1091 -0.1942,0 -0.3742,0.033 -0.5352,0.098 l 0,0 c -0.1678,0.067 -0.3166,0.1701 -0.4424,0.3036 -0.1236,0.1312 -0.2197,0.288 -0.2804,0.4634 l 0,0 c -0.0575,0.1667 -0.0873,0.3498 -0.0873,0.5462 l 10e-4,0.014 0.005,0.119 0.002,0.027 0.0133,0.1335 10e-4,0.013 0.0199,0.1525 0.003,0.02 0.0297,0.1655 z m -456.84,-96.5338 -41.248,11.3972 c -8.1817,2.5359 -8.0961,7.4135 -8.504,13.5221 -0.2551,3.8438 -0.5595,58.6701 -0.1026,66.7729 0.2985,5.2694 1.0636,9.6364 8.6066,12.1502 l 40.0263,11.0568 c 1.3742,0.3784 1.1497,0.358 2.5257,-0.022 l 39.9441,-11.0347 c 7.5452,-2.5138 8.308,-6.8808 8.6068,-12.1502 0.4567,-8.1028 0.1548,-62.9291 -0.1037,-66.7729 -0.4068,-6.1086 -0.3192,-10.9862 -8.5031,-13.5221 L 94.498,1048.9842 Z m -26.8628,33.0701 c 1.836,-0.1344 17.413,-0.2829 31.6701,-0.305 10.6843,-0.02 20.6473,0.033 23.5395,0.2126 1.5009,0.092 2.8204,0.4229 3.8962,0.9413 0.9397,0.4544 1.6736,1.0463 2.1328,1.7187 0.35,0.5153 0.5286,1.1001 0.4932,1.7269 -0.0269,0.4558 -0.1542,0.9513 -0.3937,1.4799 -0.3935,0.8671 -0.9426,1.4899 -1.5441,1.9435 -0.8589,0.6448 -1.8643,0.9989 -2.7178,1.1916 -1.4936,0.2481 -2.7516,1.4216 -3.0708,3.0419 -0.7288,3.6139 -1.9766,5.9632 -3.4282,7.4489 -1.673,1.7149 -3.7063,2.302 -5.4465,2.3978 -1.4763,-0.036 -2.9004,0.832 -3.5334,2.3122 -1.2319,2.89 -3.0322,5.6906 -5.5301,7.8829 l 0.008,0.01 -0.008,0 c -2.088,1.8326 -4.703,3.2683 -7.9359,4.0096 -0.4167,0.098 -0.9334,0.1944 -1.5585,0.2863 -0.5272,0.081 -1.0678,0.1428 -1.6208,0.1887 -14.94,1.1957 -17.8149,-12.088 -18.1389,-13.9096 -0.1763,-1.8507 -1.6288,-3.3522 -3.4875,-3.4809 -0.9768,-0.067 -1.9329,-0.2458 -2.8562,-0.5202 -0.9411,-0.2763 -1.8088,-0.6448 -2.5937,-1.0834 -1.9494,-1.1001 -3.5379,-2.7042 -4.5691,-4.6459 -0.9737,-1.838 -1.4565,-4.0099 -1.2802,-6.3837 0.18,-2.4253 0.802,-3.9268 1.8593,-4.7741 1.2622,-1.0083 3.3327,-1.4887 6.1143,-1.6928 z m 120.6045,41.1945 c 2.8429,-1.4828 4.9652,-3.2814 6.3394,-5.4182 1.376,-2.1169 2.0637,-4.6295 2.0637,-7.522 0,-4.6621 -1.719,-8.5493 -5.1466,-11.6739 -3.4234,-3.1181 -7.7256,-4.6831 -12.9164,-4.6831 -2.0755,0 -4.0776,0.3327 -5.9859,0.9944 -1.9097,0.6528 -3.7094,1.6341 -5.4051,2.9264 -1.9669,1.505 -3.5084,3.1652 -4.6321,4.9689 -1.1265,1.8119 -1.6852,3.5059 -1.6852,5.1063 0,1.6263 0.487,2.9407 1.4582,3.9612 0.9723,1.0196 2.228,1.5247 3.746,1.5247 0.9711,0 1.8377,-0.2245 2.5934,-0.6735 0.7492,-0.4504 1.5896,-1.2937 2.5152,-2.5126 0.1187,-0.1633 0.2726,-0.402 0.4841,-0.701 2.3352,-3.233 4.6936,-4.8595 7.0523,-4.8595 1.7175,0 3.1638,0.6188 4.3489,1.8641 1.1747,1.2319 1.766,2.7709 1.766,4.6346 0,1.7504 -0.5077,3.07 -1.5284,3.9433 -1.0179,0.8785 -2.9498,1.552 -5.8057,2.0152 -1.7801,0.2846 -3.0359,0.8093 -3.7474,1.578 -0.7217,0.7832 -1.078,1.9539 -1.078,3.5189 0,1.4582 0.3563,2.5739 1.0548,3.322 0.7112,0.7426 1.967,1.3351 3.7706,1.7504 1.7765,0.4149 3.104,1.0414 3.968,1.8989 0.8679,0.8379 1.3039,1.9318 1.3039,3.2814 0,1.313 -0.3668,2.3689 -1.112,3.151 -0.7362,0.7959 -1.7439,1.1851 -3.0098,1.1851 -1.4828,0 -3.2018,-0.8864 -5.1452,-2.6759 l -0.1293,-0.1083 c -0.1437,-0.1304 -0.3917,-0.3682 -0.7361,-0.6879 -1.9905,-1.9055 -3.7814,-2.8531 -5.3802,-2.8531 -1.2934,0 -2.4069,0.4711 -3.3429,1.4097 -0.9357,0.9331 -1.4096,2.0752 -1.4096,3.4234 0,2.9891 1.6721,5.7469 5.0006,8.2845 3.3321,2.5387 7.1237,3.8061 11.3541,3.8061 4.3399,0 7.941,-1.3275 10.823,-3.9824 2.8794,-2.6419 4.3254,-5.9153 4.3254,-9.8022 0,-2.1317 -0.4621,-4.0436 -1.3873,-5.7249 -0.923,-1.6682 -2.3939,-3.2343 -4.3844,-4.67 z m 28.9409,22.7568 c 3.2227,0 6.0682,-0.286 8.5323,-0.8654 2.4645,-0.5783 4.6454,-1.4698 6.5407,-2.6811 3.3426,-2.1313 5.9635,-5.0708 7.8692,-8.8364 1.9095,-3.7576 2.869,-7.8823 2.869,-12.3749 0,-7.9435 -2.2048,-14.2257 -6.6124,-18.8555 -4.4209,-4.6361 -10.442,-6.9489 -18.0867,-6.9489 l -10.5137,0 c -2.9849,0 -5.0369,0.5103 -6.1385,1.531 -1.1145,1.0208 -1.6718,2.9262 -1.6718,5.7379 l 0,35.1995 c 0,3.083 0.595,5.1999 1.7659,6.3513 1.1878,1.1628 3.2474,1.7425 6.1776,1.7425 l 9.2684,0 z m -5.6908,-39.896 5.2379,0 c 4.6114,0 8.0481,1.2583 10.3362,3.784 2.2762,2.5257 3.4132,6.3303 3.4132,11.4222 0,4.6701 -1.1605,8.168 -3.4849,10.4769 -2.3338,2.313 -5.8201,3.4772 -10.4655,3.4772 l -5.0369,0 0,-29.1603 z m 46.8709,-3.139 c 0,-2.7633 -0.4737,-4.8124 -1.4227,-6.1529 -0.9488,-1.3351 -2.3925,-2.0138 -4.3359,-2.0138 -1.9474,0 -3.3911,0.6787 -4.3399,2.0138 -0.949,1.3405 -1.4227,3.3896 -1.4227,6.1529 l 0,34.9412 c 0,3.083 0.5925,5.1999 1.766,6.3513 1.1852,1.1628 3.2474,1.7425 6.175,1.7425 l 10.3935,0 c 5.7144,0 10.2305,-1.539 13.5366,-4.6364 3.3074,-3.0906 4.9651,-7.2765 4.9651,-12.5509 0,-5.3791 -1.5519,-9.5726 -4.6454,-12.6088 -3.105,-3.0345 -7.4072,-4.5525 -12.9061,-4.5525 l -7.7635,0 0,-8.6864 z m 0,19.1412 4.9782,0 c 2.6183,0 4.5853,0.5587 5.9128,1.6826 1.3169,1.1291 1.98,2.797 1.98,5.0159 0,2.2476 -0.6395,3.9079 -1.9319,4.9887 -1.2804,1.0766 -3.2709,1.6081 -5.9609,1.6081 l -4.9782,0 0,-13.2953 z m 28.7739,-18.9975 0,22.5439 c 0,2.7448 0.4634,4.7863 1.3745,6.1268 0.9122,1.3275 2.3219,1.9879 4.2316,1.9879 1.1262,0 2.143,-0.2936 3.0214,-0.8849 0.8785,-0.5928 1.6603,-1.4843 2.3352,-2.6955 1.15,1.2597 2.3819,2.2059 3.6754,2.8324 1.2898,0.6449 2.6067,0.9646 3.9212,0.9646 1.5516,0 2.8791,-0.5496 4.0056,-1.6472 1.1265,-1.103 1.6849,-2.408 1.6849,-3.9132 0,-2.2527 -2.0622,-4.1244 -6.1775,-5.6294 -1.4803,-0.5312 -2.5935,-0.9737 -3.3285,-1.3144 -1.4122,-0.68 -2.3479,-1.4227 -2.8088,-2.2396 -0.4621,-0.8224 -0.6996,-2.3131 -0.6996,-4.4575 l 0,-11.6739 c 0,-2.7632 -0.4632,-4.8124 -1.3862,-6.1543 -0.9357,-1.3405 -2.3479,-2.014 -4.2431,-2.014 -1.9097,0 -3.3194,0.6735 -4.2316,2.014 -0.9111,1.3419 -1.3745,3.3911 -1.3745,6.1543 z m 26.0773,40.1057 c 0,1.7779 0.6395,3.3089 1.9083,4.5751 1.2674,1.2674 2.7944,1.9069 4.5748,1.9069 1.766,0 3.2709,-0.6395 4.5133,-1.9069 1.2453,-1.2662 1.8746,-2.7972 1.8746,-4.5751 0,-1.8153 -0.6163,-3.3282 -1.8615,-4.5865 -1.232,-1.2452 -2.7369,-1.8731 -4.5264,-1.8731 -1.8275,0 -3.3661,0.6279 -4.6114,1.8731 -1.2452,1.2583 -1.8717,2.7712 -1.8717,4.5865 z m 12.0172,-40.1057 c 0,-2.7854 -0.4501,-4.8399 -1.351,-6.175 -0.9122,-1.3275 -2.3009,-1.9933 -4.1831,-1.9933 -1.8966,0 -3.3074,0.6735 -4.2446,2.014 -0.9255,1.3419 -1.385,3.3911 -1.385,6.1543 l 0,22.5439 c 0,2.7448 0.4595,4.7863 1.3745,6.1268 0.9122,1.3275 2.3349,1.9879 4.2551,1.9879 1.8822,0 3.2709,-0.6604 4.1831,-1.9879 0.9009,-1.3405 1.351,-3.382 1.351,-6.1268 l 0,-22.5439 z m 6.2325,-0.014 0,22.5454 c 0,2.7501 0.4621,4.7993 1.3746,6.1268 0.9121,1.3405 2.3244,2.0009 4.2301,2.0009 1.1265,0 2.1484,-0.2936 3.0229,-0.8849 0.8784,-0.5928 1.6602,-1.4843 2.3351,-2.6955 1.1968,1.3275 2.5855,2.2867 4.1624,2.8925 1.5753,0.6057 3.485,0.9045 5.7235,0.9045 4.422,0 7.7987,-1.2713 10.1324,-3.797 2.3352,-2.5257 3.5099,-6.1945 3.5099,-11.0069 l 0,-16.0858 c 0,-2.7487 -0.4635,-4.7979 -1.3887,-6.1398 -0.923,-1.3405 -2.3352,-2.014 -4.2304,-2.014 -1.8964,0 -3.3061,0.6735 -4.2316,2.014 -0.9255,1.3419 -1.3847,3.3911 -1.3847,6.1398 l 0,12.6816 c 0,3.1184 -0.4765,5.3451 -1.4125,6.6856 -0.9357,1.3274 -2.4772,1.993 -4.6321,1.993 -2.0387,0 -3.5465,-0.688 -4.5162,-2.0622 -0.9737,-1.3757 -1.4567,-3.532 -1.4567,-6.4726 l 0,-12.8254 c 0,-2.7487 -0.4632,-4.7979 -1.3887,-6.1398 -0.9357,-1.3405 -2.3454,-2.014 -4.2446,-2.014 -1.9057,0 -3.318,0.6735 -4.2301,2.014 -0.9125,1.3419 -1.3746,3.3911 -1.3746,6.1398 z m 42.3587,19.8644 -0.415,0 c -1.98,0 -3.5189,0.441 -4.6454,1.3053 -1.1265,0.8785 -1.6943,2.0492 -1.6943,3.5331 0,1.5259 0.5678,2.7097 1.6943,3.5544 1.1265,0.83 2.8089,1.305 5.0604,1.4227 l 0,4.9272 c 0,2.7501 0.4609,4.8004 1.3862,6.1398 0.9255,1.3416 2.3351,2.0152 4.2315,2.0152 1.8717,0 3.2593,-0.6736 4.1715,-2.0152 0.9125,-1.3394 1.3759,-3.3897 1.3759,-6.1398 l 0,-4.9272 0.9723,0 c 2.2266,0 3.9589,-0.4374 5.2013,-1.3275 1.2453,-0.8784 1.8612,-2.0976 1.8612,-3.6496 0,-1.6001 -0.5924,-2.8114 -1.7906,-3.6153 -1.1968,-0.8212 -2.9733,-1.2231 -5.3436,-1.2231 l -0.9006,0 0,-19.8644 c 0,-2.7709 -0.4504,-4.8254 -1.351,-6.1605 -0.902,-1.3275 -2.3011,-1.9933 -4.1964,-1.9933 -1.8964,0 -3.306,0.6735 -4.2315,2.014 -0.9253,1.3419 -1.3862,3.3911 -1.3862,6.1398 l 0,19.8644 z m 28.9304,-11.7301 c 0.248,-2.1027 1.1135,-3.7499 2.5948,-4.9207 1.4828,-1.1721 3.4368,-1.7634 5.8672,-1.7634 2.1104,0 4.4546,0.6004 7.0274,1.8102 2.5843,1.2062 4.1728,1.8119 4.7758,1.8119 1.3274,0 2.3964,-0.4022 3.2369,-1.2061 0.8302,-0.8172 1.2452,-1.8508 1.2452,-3.13 0,-2.3964 -1.6849,-4.5618 -5.0369,-6.4948 -3.3556,-1.9332 -7.2895,-2.8924 -11.8306,-2.8924 -5.5341,0 -10.1455,1.8847 -13.8419,5.6633 -3.7094,3.7709 -5.559,8.5011 -5.559,14.1996 0,5.7118 1.8011,10.476 5.4062,14.3081 3.5895,3.8126 8.0833,5.7246 13.4504,5.7246 5.1792,0 9.5295,-1.7906 13.0249,-5.3838 3.4954,-3.5881 5.2379,-7.9855 5.2379,-13.1792 0,-1.6942 -0.377,-2.8661 -1.1472,-3.5396 -0.7727,-0.68 -2.2425,-1.0077 -4.4209,-1.0077 l -20.0302,0 z m -0.142,7.3236 14.7909,0 c -0.1423,1.9069 -0.902,3.4943 -2.287,4.7602 -1.3887,1.2855 -3.0464,1.9253 -4.9663,1.9253 -1.8978,0 -3.532,-0.6058 -4.8971,-1.817 -1.3746,-1.2059 -2.2505,-2.8324 -2.6405,-4.8685 z m 28.8587,-15.4434 0,22.5439 c 0,2.7448 0.462,4.7863 1.3742,6.1268 0.9125,1.3275 2.3221,1.9879 4.2316,1.9879 1.1265,0 2.1432,-0.2936 3.0217,-0.8849 0.8785,-0.5928 1.6577,-1.4843 2.3349,-2.6955 1.15,1.2597 2.3822,2.2059 3.6731,2.8324 1.2921,0.6449 2.609,0.9646 3.9235,0.9646 1.5519,0 2.8794,-0.5496 4.0056,-1.6472 1.1265,-1.103 1.6852,-2.408 1.6852,-3.9132 0,-2.2527 -2.0636,-4.1244 -6.1764,-5.6294 -1.4814,-0.5312 -2.5948,-0.9737 -3.3296,-1.3144 -1.4122,-0.68 -2.3482,-1.4227 -2.8088,-2.2396 -0.4621,-0.8224 -0.6996,-2.3131 -0.6996,-4.4575 l 0,-11.6739 c 0,-2.7632 -0.4635,-4.8124 -1.3862,-6.1543 -0.936,-1.3405 -2.3482,-2.014 -4.2434,-2.014 -1.9095,0 -3.3191,0.6735 -4.2316,2.014 -0.9122,1.3419 -1.3742,3.3911 -1.3742,6.1543 z m 25.9727,17.5748 c 0,7.9855 2.2881,14.4374 6.8525,19.3527 4.5734,4.922 10.5593,7.3865 17.9665,7.3865 7.4333,0 13.4399,-2.4645 18.0148,-7.3942 4.5878,-4.934 6.8745,-11.3805 6.8745,-19.345 0,-8.0113 -2.2867,-14.4712 -6.851,-19.3788 -4.5748,-4.9076 -10.5815,-7.3587 -18.0383,-7.3587 -7.4542,0 -13.4504,2.4511 -18.0017,7.3587 -4.5397,4.9076 -6.8173,11.3675 -6.8173,19.3788 z m 12.5184,-0.1423 c 0,-4.7169 1.1264,-8.4878 3.3664,-11.3202 2.2501,-2.8309 5.2248,-4.2537 8.9342,-4.2537 3.7094,0 6.6841,1.4228 8.9368,4.2537 2.2399,2.8324 3.3664,6.6033 3.3664,11.3202 0,4.8818 -1.1134,8.7596 -3.331,11.6257 -2.2269,2.8678 -5.2157,4.3036 -8.9722,4.3036 -3.7579,0 -6.7428,-1.4358 -8.9722,-4.3036 -2.215,-2.8661 -3.3284,-6.7439 -3.3284,-11.6257" />
    </g>
  </g>
</svg>
