<svg xmlns="http://www.w3.org/2000/svg" height="400" viewBox="0 0 400 400.00001"><defs><clipPath><path d="m67.913 59.6047c1.4414-2.3834 1.5353-20.4293.0936-23.0477-1.3437-2.4398-16.9249-11.5441-19.9134-11.6047-2.7845-.0565-18.4598 8.8851-20.0064 11.4428-1.4414 2.3834-1.5352 20.4293-.0935 23.0477 1.3436 2.4398 16.9248 11.5441 19.9133 11.6048 2.7845.0564 18.4598-8.8852 20.0064-11.4429"/></clipPath></defs><g style="fill-rule:evenodd"><path d="m200 .000005c110.45689 0 200 89.5431 200 200 0 110.4569-89.54311 200-200 200-110.4569 0-200-89.5431-200-200 0-110.45689 89.5431-200 200-200" style="fill:#e6e6e6"/><path d="m282.97142 151.64657c6.00585 9.93085 6.3971 85.12226.39 96.03228-5.59876 10.16586-70.52056 48.10052-82.97267 48.35302-11.60211.23542-76.91599-37.02133-83.36017-47.67843-6.00585-9.93086-6.39668-85.12226-.38959-96.03229 5.59835-10.16585 70.52015-48.10051 82.97226-48.35343 11.6021-.235 76.91599 37.02174 83.36017 47.67885" style="fill:#cec7c4"/><path d="m266.49847 161.24659c4.81418 7.9596 5.12709 68.22181.31292 76.96682-4.48668 8.1471-56.51929 38.55008-66.49972 38.75342-9.29877.1875-61.64513-29.67173-66.81014-38.21341-4.81418-7.9596-5.1271-68.22181-.31292-76.96683 4.48668-8.14752 56.51928-38.55008 66.49972-38.75341 9.29877-.1875 61.64513 29.67172 66.81014 38.21341" style="fill:#f8f8f8"/></g><g style="fill:#564a4c"><path d="m269.17139 160.817c2.70376 4.47043 4.13626 22.28963 4.20709 39.96967.0708 17.52754-1.17875 35.28882-3.8325 40.10925-2.52668 4.58834-17.24671 14.74461-32.52174 23.64547-15.13128 8.8171-31.13173 16.60628-36.65091 16.71878-5.24793.105-21.39463-7.55918-36.73007-16.32878-15.2092-8.69919-29.96007-18.66504-32.81466-23.38588-2.70333-4.47085-4.13625-22.29005-4.20709-39.97009-.0521-12.62211.58334-25.36755 1.93334-33.31048-.14625-.0721-.28792-.15709-.425-.255l-.0404-.0283-.11416-.0817-.12876-.0921-.12791-.0921-.1275-.0913-.11792-.0858-.11833-.0842-.13334-.0967-.11916-.0875-.11709-.085-.11583-.0838-.12375-.09-.12292-.0908-.11708-.085-.12292-.09-.12042-.0883-.11458-.085-.11333-.0838-.11917-.0875-.11458-.085-.11709-.0875-.11916-.0888-.11209-.0837-.11-.0825-.12416-.0921-.10959-.0842-.10875-.08-.11458-.0875-.10875-.0817-.11334-.0863-.10875-.0825-.11208-.085-.11333-.0875-.10625-.0817-.11209-.0863-.11-.085-.10291-.0792-.10375-.08-.11-.085-.10959-.0863-.10166-.0779-.11459-.0913-.1075-.085-.0921-.0721-.0979-.0779-.0533-.0413c-1.35584-1.06667-1.58959-3.03209-.52334-4.38792 1.06667-1.35584 3.03209-1.58959 4.38793-.52292l.0533.0413.1025.08.10875.0863.0933.0758.0883.0671.10417.0829.0958.0742.0979.0758.10375.0804.10541.0812.10001.0779.10041.0771.10667.0813.0992.0758.1025.0779.10875.0825.10166.0767.11084.0842.10291.0779.11334.085.11.0837.0979.0733.11459.085.11208.0838.105.0792.11.0804.11459.085.1075.0804.11791.0863.11459.085.11125.0812.11083.0829.0662.0483c.0625-.1325.12542-.26.19-.37667 2.52667-4.58876 17.2467-14.74503 32.52173-23.64588 15.13129-8.8171 31.13174-16.60629 36.65091-16.71837 5.24793-.10542 21.39463 7.55876 36.73008 16.32878 15.2092 8.69877 29.96006 18.66462 32.81465 23.38588zm-72.0239 131.56319l-.0258-6.09209c-.007-1.72459 1.38542-3.13126 3.11-3.13834 1.72418-.007 3.13084 1.38542 3.13793 3.11l.0263 6.10252c7.74918-2.16001 23.73046-10.30627 39.28591-19.37004 18.15796-10.58044 35.41299-22.21755 37.94508-26.81464 2.73667-4.97126 4.01709-25.75297 3.93334-46.64052-.0638-15.84461-.90708-31.54756-2.485-40.24383l-.0225.0238-.10875.11083-.11.11084-.105.10417-.105.105-.11459.1125-.11.10625-.10958.10625-.13125.12625-.1075.10041-.11458.11-.12875.11917-.11209.10375-.11958.11-.13209.12292-.13.11583-.12416.11208-.125.11209-.13209.11708-.135.11792-.12375.10875c-1.29708 1.1375-3.27167 1.0075-4.40917-.28917-1.13751-1.29708-1.00751-3.27167.28958-4.40917l.12375-.10875.11333-.0992.11126-.10042.11583-.10291.11417-.1025.10666-.0971.0992-.0896.1075-.10042.11458-.10625.0933-.0863.1025-.0979.11-.10291.0813-.0767.0983-.0971.0954-.0921.0888-.0883.0933-.0913.0908-.0921.0838-.0825.0804-.0829.0863-.0883.0767-.0792.0758-.0792.0792-.085.0708-.0758.0683-.0754.0817-.0896.0579-.0637.0612-.0712.0767-.0858.0508-.0592.0554-.0675.0617-.0733.0579-.0708.0588-.0721.0404-.0496.0437-.0567.0517-.0671.0417-.0554.0362-.05.0367-.0504.0496-.0721.0308-.0417.02-.0317.0367-.0554.0179-.0263.0329-.0567.0225-.0342.008-.0167.0233-.04c.15625-.28334.34959-.53251.57084-.74542-4.26626-5.2546-20.67671-16.0367-37.78258-25.82006-18.25504-10.44085-36.96633-19.57337-42.20551-19.46795-5.65501.11458-24.29296 9.40252-42.35467 19.92754-18.15712 10.58044-35.41299 22.21754-37.94508 26.81464-2.73667 4.97126-4.01709 25.75255-3.93334 46.64051.0854 21.01171 1.53792 41.77592 4.26168 46.27926 2.92792 4.84126 20.28421 16.33712 38.42008 26.70964 15.54586 8.89127 31.4209 16.8317 39.02591 18.92837zm-61.15846-128.02359c.065.0875.12875.17833.18625.27416.74292 1.22834 3.02126 3.23626 6.29918 5.70001l.19709.13584c4.03125 3.01417 9.32251 6.51126 15.08503 10.04044 8.98585 5.50376 19.13879 11.11168 27.53297 15.15586 7.16543 3.45251 12.83378 5.72126 14.96086 5.67876 1.44334-.0271 4.41251-1.04167 8.31836-2.71667 4.60542-1.97334 10.27918-4.80918 16.22961-8.0421 9.24002-5.01834 19.16963-11.00669 26.88214-16.26253 6.40376-4.36293 11.12377-8.06002 12.31044-9.97461-.0554-.10958-.10958-.21375-.16541-.30708-2.29126-3.78751-16.1067-12.91753-30.56798-21.1888-14.55462-8.32335-29.42506-15.60586-33.50799-15.52336-4.42334.09-19.24504 7.49668-33.6484 15.88961-14.32462 8.34669-27.92256 17.47921-30.11215 21.14047m129.6486 7.20126c-2.60083 2.31834-6.22084 5.03501-10.4421 7.9121-7.84127 5.34334-17.97046 11.45086-27.41839 16.5817-6.14876 3.34001-12.00919 6.26918-16.76795 8.30877-3.06626 1.31458-5.75793 2.28459-7.89335 2.79584l.29166 67.21305c6.36127-2.00542 18.56921-8.27585 30.49132-15.22336 14.47211-8.43294 28.20506-17.66796 30.17839-21.25255 2.14251-3.89292 3.14418-20.42962 3.07709-37.08299-.0437-11.08961-.5575-22.0763-1.51667-29.25256m-68.45472 102.88105c-.0954-21.77588-.18417-45.87635-.29167-67.40889-3.56334-.92834-8.5996-3.00001-14.31128-5.7521-8.56668-4.12792-18.91879-9.8446-28.06881-15.44878-5.98001-3.66251-11.44627-7.2721-15.5742-10.35961l-.18916-.15333c-1.73834-1.3075-3.26334-2.54542-4.52585-3.68751-.96958 7.27544-1.42208 18.57046-1.37583 29.9234.0671 16.74545 1.20333 33.25757 3.32834 36.77133 2.29125 3.7875 16.1067 12.91752 30.56798 21.18879 12.01294 6.87043 24.24005 13.03128 30.44048 14.9267m88.46143-124.40318c3.30251 5.46001 5.05168 27.53173 5.14001 49.4776.0875 21.76297-1.44208 43.76926-4.68876 49.66677-3.08625 5.60168-21.32712 18.15838-40.28883 29.20756-18.78879 10.94753-38.608 20.61963-45.35676 20.75671-6.40293.12875-26.39047-9.38502-45.4276-20.27379-18.88462-10.80127-37.17549-23.13171-40.66675-28.90631-3.30209-5.46043-5.05167-27.53172-5.14001-49.4776-.0875-21.76296 1.44209-43.76926 4.68876-49.66677 3.08626-5.60209 21.32755-18.15837 40.28884-29.20756 18.7892-10.94752 38.60799-20.61963 45.35676-20.75671 6.40293-.12875 26.39047 9.38502 45.42759 20.27379 18.88462 10.80127 37.17549 23.13172 40.66675 28.90631"/><path d="m219.45754 156.56241l12.06961 2.64001c1.37.295 2.24083 1.64625 1.94542 3.01625-.21834 1.01459-1.01584 1.75417-1.97126 1.95126l-12.04377 2.63292-2.63876 12.06961c-.295 1.37-1.64625 2.24042-3.01625 1.945-1.01459-.21833-1.75542-1.01542-1.95126-1.97125l-2.63375-12.04336-12.07003-2.63876c-1.37-.29541-2.24042-1.64667-1.945-3.01667.21833-1.01458 1.01583-1.755 1.97125-1.95125l12.04378-2.63376 2.63959-12.06961c.29541-1.37 1.64667-2.24042 3.01667-1.94542 1.01458.21875 1.75375 1.01584 1.95125 1.97126l2.63251 12.04377"/><path d="m127.64568 115.81316l6.49835 1.42084c.73833.15958 1.20708.88708 1.0475 1.62417-.11792.54667-.54667.945-1.06167 1.05125l-6.48418 1.41709-1.42084 6.49834c-.15958.73834-.88708 1.20626-1.62417 1.04792-.54583-.11833-.945-.54708-1.05-1.06208l-1.41833-6.48418-6.49877-1.42084c-.73792-.15958-1.20583-.88709-1.0475-1.62417.11792-.54542.54667-.94459 1.06167-1.05l6.4846-1.41834 1.42083-6.49835c.15917-.73833.88667-1.20708 1.62376-1.0475.54708.11792.945.54667 1.05125 1.06167l1.4175 6.48418"/><path d="m264.43263 110.29982l6.49876 1.42083c.73792.15959 1.20709.88709 1.04751 1.62417-.11792.54667-.54667.94459-1.06167 1.05084l-6.4846 1.4175-1.42084 6.49835c-.15916.73833-.88666 1.20583-1.62375 1.04792-.54583-.11834-.945-.54709-1.05-1.06209l-1.41875-6.48418-6.49835-1.42084c-.73834-.15958-1.20584-.88708-1.0475-1.62417.11791-.54541.54667-.94458 1.06167-1.05l6.48418-1.41833 1.42083-6.49835c.15959-.73834.88709-1.20709 1.62417-1.04792.54709.11833.945.54709 1.05125 1.06209l1.41709 6.48418"/><path d="m170.93202 160.79659l5.56876 1.21792c.63292.13583 1.03459.75958.8975 1.3925-.10041.4675-.46875.80917-.90916.9l-5.5571 1.21542-1.21792 5.57001c-.13708.63209-.76042 1.03334-1.3925.8975-.46875-.10125-.81042-.46875-.9-.91041l-1.21542-5.5571-5.57001-1.21792c-.63292-.13708-1.03459-.76042-.89751-1.3925.10042-.4675.46876-.81.90917-.9l5.55835-1.21542 1.21792-5.57001c.13583-.63292.75917-1.03459 1.39125-.89751.46875.10042.81.46876.90125.90959l1.21542 5.55793"/></g><g style="fill:#f7a21c"><path d="m162.9395 216.60045l8.35502 1.82709c.94834.20417 1.55084 1.14 1.34625 2.08834-.15125.7025-.70375 1.21417-1.36542 1.35125l-8.33585 1.82209-1.8275 8.35543c-.20417.94834-1.13959 1.55084-2.08792 1.34625-.70167-.15125-1.21417-.70375-1.35-1.36416l-1.82376-8.33752-8.35501-1.82709c-.94876-.20417-1.55084-1.13958-1.34667-2.08792.15125-.70167.70416-1.21417 1.36417-1.35l8.33751-1.82376 1.82709-8.35501c.20458-.94876 1.14-1.55084 2.08834-1.34667.7025.15125 1.21417.70416 1.35125 1.36542l1.8225 8.33626"/><path d="m175.03245 238.88175l3.71375.81292c.42167.0908.68834.50667.5975.92833-.0675.31167-.31166.53959-.60583.6l-3.70542.81001-.81251 3.71334c-.0908.42166-.50666.68875-.92708.59791-.31292-.0675-.53959-.31208-.60125-.60583l-.81-3.70542-3.71334-.81251c-.42167-.0908-.68876-.50666-.59792-.92708.0675-.31292.31208-.54.60583-.60125l3.70543-.81042.8125-3.71334c.0908-.42167.50667-.68834.92833-.5975.31167.0675.53959.31166.6.60583l.81001 3.70501"/><path d="m231.4859 231.16715l6.03418 1.31917c.685.1475 1.12083.82333.97333 1.50834-.11.50666-.50792.8775-.98625.97541l-6.02126 1.31584-1.31917 6.03418c-.14792.685-.82334 1.12084-1.50834.97334-.50667-.11-.87625-.50792-.97458-.98626l-1.31667-6.02126-6.0346-1.31917c-.685-.14792-1.12084-.82333-.97292-1.50834.10958-.50666.50792-.87666.98625-.97458l6.02127-1.31667 1.31917-6.0346c.1475-.685.82333-1.12083 1.50833-.97291.50667.10958.8775.50791.97542.98625l1.31584 6.02126"/></g><path d="m86.90101 161.83492c1.30042-1.12542 3.267924-.98375 4.393759.31667 1.125419 1.30042.983753 3.26792-.316667 4.39376-.923752.79833-1.817504 1.63917-2.672922 2.51542-.869168.89084-1.691254 1.80626-2.456672 2.73667-7.555432 9.19044-10.672522 20.58213-9.60127 31.56382 1.00042 10.25585 5.662512 20.16046 13.774196 27.58006l2.779172-3.25626c1.118336-1.3075 3.086256-1.46084 4.393759-.3425.426251.365.732085.82083.908335 1.31458l5.983347 13.82003c.68042 1.57667-.0463 3.40876-1.62292 4.08918-.51.21958-1.04625.29292-1.56125.23708l-.0001.007-16.475455-1.79626c-1.711254-.18208-2.952506-1.71833-2.770839-3.43.07208-.68042.360417-1.28751.786668-1.75876l3.537507-4.14542c-9.387519-8.51127-14.780447-19.91588-15.932116-31.73299-1.223336-12.55502 2.343338-25.5838 10.99294-36.10382.900835-1.09625 1.836253-2.14001 2.799172-3.12626.976669-1.00042 1.999588-1.96333 3.062506-2.88209" style="fill:#564a4c"/><g transform="matrix(4.1666753,0,0,-4.1666753,0,400)"><path d="m67.4419 51.0117c.5295.4649 1.1928.8292 2.0129 1.0171.1054.0246.2367.0493.3951.0726.1338.0204.271.0362.4113.0479 3.7894.303 4.5185-3.066 4.6007-3.528.0447-.4695.413-.8504.8847-.883.2477-.017.4901-.0624.7242-.1318.2387-.0703.4589-.1636.6579-.275.4944-.2789.8975-.686 1.1588-1.1784.2469-.466.3697-1.017.3249-1.6191-.0457-.6151-.2035-.9961-.4717-1.211-.32-.2557-.8453-.3776-1.5508-.4291-.4655-.0341-4.4167-.0718-8.0329-.0774-2.7099-.0051-5.2367.0082-5.9706.0538-.3804.0236-.7152.1072-.9878.2387-.2384.1154-.4247.2653-.5412.436-.0887.1307-.1341.2792-.125.4379.0068.1157.0391.2415.0998.3756.0998.2197.2389.3779.3917.4927.2177.1638.4729.2534.6894.3024.3787.063.6979.3606.7787.7713.1848.9168.5014 1.5126.8697 1.8896.4243.4349.9399.584 1.3813.6081.3744-.0091.7356.2111.8963.5864.3124.7331.769 1.4434 1.4026 1.9996l-.002.0023.002.0008" style="fill:#fff;fill-rule:evenodd"/><path d="m66.9725 51.594c.3143.2726.6689.5156 1.0647.7154.377.1911.7928.3439 1.2481.4482l-.0003.0005c.047.0111.1202.0258.2177.0437.0941.0173.174.0309.2358.04v.0005c.0681.0102.1449.0207.2296.0304.087.0099.1639.0178.2316.0235l.0281.0017c2.1963.1675 3.5243-.7447 4.3154-1.7688.7736-1.0012 1.0095-2.1116 1.0568-2.3789.0051-.0286.0082-.0572.0099-.0856.0097-.0476.0332-.0901.0652-.1221.0326-.0326.0754-.0542.1213-.0573.1412-.0096.2903-.0292.4451-.057l.0028-.0005v.0005c.152-.0278.2982-.0629.4374-.104.148-.0437.2874-.093.4167-.1471.1389-.0579.2718-.1228.3966-.1925.0204-.0113.0402-.0238.0589-.0369.2889-.1697.5499-.3724.7767-.6029.2469-.2508.4561-.534.6188-.8402l.0227-.0465c.1488-.2902.2599-.6032.3257-.9326.0048-.0241.0085-.0481.0108-.072.0569-.3143.0751-.6403.0507-.9722l-.0003-.0029h.0003c-.0286-.3849-.0964-.7072-.2024-.9754l-.0187-.0431c-.1273-.3033-.3044-.54-.5289-.7197l-.0034-.0025.0005-.0006c-.2435-.1945-.5465-.3334-.9062-.4286-.3084-.0819-.6619-.1327-1.0576-.1616-.2268-.0164-1.3448-.0346-2.8678-.0493-1.499-.0142-3.3999-.0252-5.2178-.0281-1.4499-.0028-2.8479-.0002-3.9458.0097-.9847.0088-1.7317.0235-2.0687.0442-.2308.0142-.453.0479-.6611.0981l-.0311.0082c-.2112.053-.4051.1225-.5769.2055-.1701.0822-.3245.1797-.4598.2883-.1488.1196-.2752.2543-.3741.3997-.0125.0181-.0238.0368-.0346.0555-.0749.1199-.1315.245-.1681.3728-.0425.1497-.0607.3078-.0513.4725.0062.1117.0244.2245.0538.3354l.0119.0402c.0258.0899.0587.1792.0984.2665.0768.1695.1724.3192.2787.4498.1057.1299.2236.2398.3475.3328.1661.125.3387.2186.506.288.1576.0652.3186.1126.4674.1463l.0411.0079v.0009c.0388.0062.0748.0255.1026.053.0309.0306.0542.0734.0638.1236.0045.0232.0102.0462.0167.0686.0989.4717.2305.8694.3835 1.2027.1905.4136.4193.7407.6687.9961.2671.2733.5593.4652.8541.595.3475.1528.7016.2214 1.0253.2387.0233.0011.0465.0014.0695.0003.0314.0022.0643.0139.0938.0331.0354.0233.0652.0573.0828.099.1814.426.4098.8492.6893 1.2481l.0015.0019-.0015.0009c.2421.345.5259.6726.8541.9689.0167.0178.0346.0351.0533.0516l.0247.0207m1.7382-.6203c-.2738-.138-.519-.3041-.7362-.4892l-.0405-.0383c-.252-.2211-.4745-.4776-.669-.7546l-.0014.0009c-.2135-.3048-.3912-.6364-.536-.9763-.1401-.3274-.3668-.5885-.639-.7668-.2707-.1768-.5901-.2732-.9187-.2743-.1545-.0097-.3226-.0428-.487-.1151-.1343-.0593-.2667-.1454-.3852-.2668-.1361-.1392-.2659-.3288-.3818-.5805-.1114-.2421-.2075-.5335-.2807-.8804l-.0079-.0508c-.0692-.354-.2424-.6619-.4799-.8969-.2443-.2423-.5564-.4067-.8966-.4666-.0601-.015-.1264-.036-.1947-.064-.0684-.0284-.1333-.0621-.184-.1004-.0286-.0215-.0575-.0487-.0839-.081-.0258-.0318-.051-.0723-.0734-.1216-.0102-.0227-.0185-.0426-.0238-.059l-.0049-.0193-.0039-.0153c.0167-.0224.0399-.0456.0686-.0683.0462-.0371.1046-.0734.1729-.1063.0862-.0414.1806-.0762.2803-.102l.0289-.0063c.1188-.0286.2523-.0485.3975-.0572.3461-.0213 1.063-.0358 1.9927-.0443 1.0965-.0096 2.49-.0121 3.9339-.0096 1.8085.0026 3.7055.0136 5.2059.0281 1.4581.0139 2.5378.032 2.7742.0493.3093.0224.5723.0589.7821.1145.1588.042.2792.0927.3558.1536l.0002-.0005c.0273.0232.0531.0623.0777.1185l.0099.0266c.0513.1296.0856.3067.1026.536h.0003c.0151.209.0063.4045-.0246.5845-.0057.019-.001.0386-.0139.0584-.0391.1956-.1023.3768-.1854.5406l-.0162.0286c-.0978.184-.2199.3507-.3614.4944-.1366.1389-.2897.2597-.4555.3586l-.0462.0238c-.076.0425-.1562.0816-.2384.1159-.0879.0369-.1766.0686-.2642.0944-.0972.0287-.1928.0522-.2849.0689v.0003c-.083.0147-.1763.0264-.2783.0334-.4218.029-.7969.2121-1.0761.491-.2633.2622-.4419.6126-.4946.9989l-.0023.0111c-.0343.1942-.2058 1.0009-.7636 1.7229-.5355.6931-1.4562 1.3082-3.0235 1.1883l-.0139-.0012c-.0725-.0059-.1352-.0122-.1845-.0178-.0519-.006-.1114-.0142-.1769-.0241v.0005l-.0031-.0005c-.0918-.0133-.1531-.0233-.1862-.0292-.0377-.0068-.0868-.0176-.1474-.0318l-.0003.0006-.0026-.0006c-.335-.0765-.6386-.1879-.911-.3257" style="fill:#564a4c"/></g><g transform="matrix(4.1666753,0,0,-4.1666753,0,400)"><path d="m26.7579 53.9521l.4723-.5607c.0581.0023.1057.0034.1426.0034.0371 0 .0847-.0008.1428-.0031l.4272.5068c.1735.2444.4847.3702.7926.2931l.5043-.1275c.2891-.0624.5258-.2943.5799-.6035l.129-.722.1208-.0678.1207-.0722.6832.2471c.2607.0944.5641.0392.7761-.1669l.3832-.3728c.2092-.1984.2934-.5097.1888-.7979l-.25-.6908.0723-.1208.0674-.1202.7169-.1281-.0003-.0014c.2736-.0491.5092-.2492.5891-.5346l.1482-.5242-.0019-.0005c.0762-.273-.0071-.5783-.2382-.7728l-.5604-.4722c.0023-.0573.0032-.1049.0032-.1426 0-.0371-.0009-.0848-.0032-.1426l.5069-.4272c.244-.1734.3702-.4847.2931-.7925l-.1276-.5043c-.0623-.2891-.2939-.5261-.6035-.5803l-.7217-.1289-.0683-.1216-.0717-.1202.2469-.6826c.0944-.2608.0391-.5641-.167-.7761l-.3727-.3833c-.1985-.2092-.5097-.2934-.798-.1888l-.6905.2498-.121-.0723-.1208-.0678-.1273-.7137-.0008.0002c-.0485-.2746-.2489-.5116-.5352-.5918l-.5241-.1483-.0006.002c-.273-.0762-.5783.0071-.7727.2381l-.4723.5607c-.0578-.0023-.1057-.0034-.1428-.0034-.0369 0-.0845.0009-.1426.0031l-.4272-.5068c-.1735-.2444-.4847-.3702-.7926-.2931l-.5043.1275c-.2891.0624-.5258.2943-.5799.6035l-.1293.7234-.0754.042-.0451.0241-.121.0726-.6829-.2472c-.2608-.0944-.5641-.0391-.7761.1669l-.3832.3728c-.2092.1984-.2934.5097-.1888.7979l.25.6909-.0723.1207-.0675.1202-.7168.1281.0002.0014c-.2735.0491-.5091.2492-.589.5347l-.1482.5241.0019.0005c-.0762.273.0071.5783.2382.7728l.5604.4722c-.0023.0581-.0032.1058-.0032.1426 0 .0352.0012.0833.0034.1426l-.5071.4272c-.244.1734-.3702.4847-.2931.7925l.1276.5043c.0623.2892.2939.5261.6035.5803l.7214.1287.0686.1219.0717.1201-.2469.6826c-.0944.2608-.0391.5641.167.7762l.3724.3829c.1985.2095.5094.2937.798.1891l.6908-.2497.121.0725.0009-.0014.0023.0014.1173.0661.1276.7151.0008-.0002c.0485.2746.2489.5116.5352.5918l.5241.1483.0006-.002c.273.0763.5783-.0071.7727-.2381" style="fill:#564a4c"/><g style="fill-rule:evenodd"><path d="m27.3728 51.9503c-2.1816 0-3.9504-1.7689-3.9504-3.9504 0-2.1815 1.7688-3.9504 3.9504-3.9504 2.1815 0 3.9503 1.7689 3.9503 3.9504 0 2.1815-1.7688 3.9504-3.9503 3.9504" style="fill:#fff"/><path d="m27.373 49.6148c-.8917 0-1.6149-.7231-1.6149-1.6149 0-.8918.7232-1.6149 1.6149-1.6149.8918 0 1.6149.7231 1.6149 1.6149 0 .8918-.7231 1.6149-1.6149 1.6149" style="fill:#f7a21c"/></g><path d="m27.373 48.8648c-.2389 0-.4555-.097-.6117-.2532-.1562-.1562-.2531-.3727-.2531-.6117 0-.239.0969-.4555.2531-.6117.1562-.1562.3728-.2531.6117-.2531.239 0 .4556.0969.6118.2531.1561.1562.2531.3727.2531.6117 0 .239-.097.4555-.2531.6117-.1562.1562-.3728.2532-.6118.2532m-1.6718.807c.4277.4277 1.0193.6931 1.6718.6931.6526 0 1.2442-.2654 1.6719-.6931.4278-.4278.6931-1.0194.6931-1.6719 0-.6525-.2653-1.2441-.6931-1.6719-.4277-.4277-1.0193-.693-1.6719-.693-.6525 0-1.2441.2653-1.6718.693-.4278.4278-.6931 1.0194-.6931 1.6719 0 .6525.2653 1.2441.6931 1.6719" style="fill:#564a4c"/></g><path id="0" d="m152.24155 45.617487c-1.09591.336612-2.25851-.279315-2.59514-1.375122-.33669-1.0955.27932-2.258091 1.37504-2.594729l1.06546-.326296.0733-.02221 1.01263-.301731c1.0983-.326288 2.25543.29898 2.58168 1.397308.32636 1.09829-.29905 2.255435-1.3973 2.581708l-1.01951.303536-.0309.01092-1.06545.326292zm51.89009 312.80941c2.86844-.0657 5.24847 2.20659 5.31462 5.07514.0657 2.86848-2.2066 5.24853-5.07511 5.31421-6.91866.17927-13.79434-.0587-20.57781-.71244-6.84857-.66041-13.64619-1.7355-20.34692-3.22061-2.80765-.62247-4.58041-3.40465-3.95793-6.21265.62247-2.80769 3.40498-4.5804 6.21268-3.95794 6.31912 1.40092 12.69912 2.41161 19.09761 3.02883 6.46145.622 12.92282.85172 19.33283.68563zm19.84106-.71374c2.26619-.34435 4.38464 1.21534 4.72943 3.48152.34439 2.26577-1.21523 4.38424-3.48146 4.72899-1.73529.26366-3.17683.46896-4.2905.60831-1.26282.1582-2.69828.31853-4.3038.47815-2.28558.2201-4.31868-1.45333-4.53912-3.73941-.22002-2.28559 1.45365-4.31816 3.73934-4.53868 1.18861-.11757 2.54937-.2743 4.06877-.46497 1.67738-.21022 3.02991-.39484 4.07736-.55393zm14.34744-1.79124c1.67089-.41019 3.35882.61398 3.7686 2.28477.41016 1.67085-.61406 3.35879-2.28483 3.76853-1.07966.2652-1.85797.45319-2.35394.56688-.3431.079-1.15068.25537-2.37341.51816-1.68027.35817-3.33573-.71431-3.69398-2.39411-.35828-1.67986.71424-3.33532 2.39414-3.694.32597-.0691 1.07181-.24026 2.27132-.51617 1.04663-.24126 1.8165-.42243 2.27211-.53379zm9.43861-1.53945c1.0959-.33663 2.25849.27926 2.59515 1.37507.33671 1.09551-.27935 2.25851-1.37508 2.59473l-1.06542.32636-.0738.0215-1.01267.30174c-1.09843.32669-2.25539-.29905-2.58169-1.39728-.32635-1.09829.2989-2.25499 1.39727-2.5817l1.0195-.30358.0309-.0105 1.06542-.32621zm-51.89002-312.80944c-2.86852.06572-5.24895-2.206702-5.31466-5.075198-.0658-2.868051 2.2066-5.248498 5.07508-5.314185 6.91866-.179283 13.79427.0591 20.57783.712405 6.84854.66044 13.64617 1.735575 20.34686 3.221 2.80763.622427 4.58043 3.404625 3.95789 6.21269-.62246 2.807655-3.40497 4.58037-6.21268 3.957926-6.31907-1.400926-12.69907-2.411615-19.09756-3.02902-6.46143-.622011-12.92279-.85179-19.33276-.685636zm-19.84114.713786c-2.26614.344361-4.38467-1.215308-4.72952-3.48117-.3443-2.266189 1.21537-4.384672 3.48156-4.729424 1.73527-.263612 3.17685-.468965 4.29038-.607898 1.26295-.158292 2.69844-.318926 4.3039-.478555 2.2856-.220066 4.3186 1.453746 4.53871 3.739337.22051 2.28566-1.45332 4.318627-3.73891 4.538758-1.18867.11759-2.54941.274301-4.06876.464935-1.67737.210246-3.02987.395258-4.0774.553987zm-14.3474 1.791279c-1.67091.410132-3.35892-.613626-3.76868-2.284431-.41018-1.67088.61366-3.359335 2.28454-3.769077 1.08004-.264973 1.85835-.453113 2.35429-.566748.34273-.07895 1.1501-.255371 2.37344-.518167 1.67984-.358304 3.33572.7143 3.69392 2.394212.35827 1.679826-.7143 3.335689-2.39412 3.693982-.32602.069-1.07194.239882-2.27135.516068-1.04662.241298-1.81665.422687-2.27202.534182" style="fill:#45363b;fill-rule:nonzero"><animateTransform attributeName="transform" attributeType="XML" type="rotate" from="0 200 200" to="360 200 200" dur="2s" repeatCount="indefinite"/></path></svg>