<svg xmlns="http://www.w3.org/2000/svg" viewBox="0 0 170 170"><g transform="translate(0,-882.36216)" style="fill-rule:evenodd"><path d="m84.999999 882.36215c46.943941 0 85 38.05606 85 85 0 46.94395-38.05606 84.99995-85 84.99995-46.943936 0-84.999999-38.056-84.999999-84.99995 0-46.94394 38.05606-85 84.999999-85" style="fill:#e6e6e6"/><path d="m77.61128 976.16377l32.657345-32.65734c2.75998-2.7604 7.27538-2.7604 10.03578 0l.00083.0001c2.76041 2.75999 2.76041 7.27539 0 10.03579l-37.675646 37.6744v.0001l-.131249.12625v.0001l-.132083.12166v.0001l-.135833.11792v.0001l-.138332.11458v.0001l-.140416.11v.00083l-.141666.10667-.144166.1025v.0001l-.146666.0979v.0001l-.148749.0933v.0001l-.15.0896v.0001l-.152082.0863v.0001l-.153749.0812v.0001l-.154583.0779-.157083.0746v.0001l-.158332.0696v.0001l-.159583.0663-.160416.0625-.162082.0579v.0001l-.162916.0529-.0013.0001-.162916.0496-.0012.0001-.164166.0458-.166249.0425-.166666.0379v.0001l-.167916.0329v.0001l-.167499.0296h-.0013l-.167499.0258-.0012.0001-.169166.0213v.0001l-.168749.0167-.0012.0001-.168749.0129-.0012.0001-.168749.009-.0012.0001-.169999.005v.00083l-.170416.0001-.341249-.007v-.0001l-.169999-.009v-.0001l-.169999-.0129v-.0001l-.339165-.0392v-.0001l-.168749-.0246v-.0001c-.168749-.0283-.335415-.0625-.502081-.10292h-.0012l-.164999-.0425h-.0012l-.164166-.0458v-.0001l-.164166-.0496v-.0001l-.324998-.11209h-.0012l-.159166-.0625h-.0012c-.854163-.345-1.652492-.85999-2.344572-1.55207l-22.897804-22.89781c-2.760403-2.7604-2.760403-7.27579 0-10.03578l.0013-.0001c2.759986-2.7604 7.275381-2.75915 10.03453 0l17.879495 17.87949z" style="fill:#564a4c"/></g></svg>