<svg xmlns="http://www.w3.org/2000/svg" viewBox="0 0 400 400.00001" height="400"><defs><clipPath id="0"><path d="m67.913 59.6047c1.4414-2.3834 1.5353-20.4293.0936-23.0477-1.3437-2.4398-16.9249-11.5441-19.9134-11.6047-2.7845-.0565-18.4598 8.8851-20.0064 11.4428-1.4414 2.3834-1.5352 20.4293-.0935 23.0477 1.3436 2.4398 16.9248 11.5441 19.9133 11.6048 2.7845.0564 18.4598-8.8852 20.0064-11.4429"/></clipPath></defs><g style="fill-rule:evenodd"><path d="m200 .000005c110.45689 0 200 89.5431 200 200 0 110.4569-89.54311 200-200 200-110.4569 0-200-89.5431-200-200 0-110.45689 89.5431-200 200-200" style="fill:#e6e6e6"/><path d="m282.97142 151.64657c6.00585 9.93085 6.3971 85.12226.39 96.03228-5.59876 10.16586-70.52056 48.10052-82.97267 48.35302-11.60211.23542-76.91599-37.02133-83.36017-47.67843-6.00585-9.93086-6.39668-85.12226-.38959-96.03229 5.59835-10.16585 70.52015-48.10051 82.97226-48.35343 11.6021-.235 76.91599 37.02174 83.36017 47.67885" style="fill:#cec7c4"/></g><g transform="matrix(4.1666753,0,0,-4.1666753,0,400)"><g style="clip-path:url(#0)"><g style="fill-rule:evenodd"><g style="fill:#564a4c"><path d="m41.6455 73.9236h12.435c.7132 0 1.2963-.5831 1.2963-1.2963v-12.435c0-.7132-.5831-1.2963-1.2963-1.2963h-12.435c-.7132 0-1.2963.5831-1.2963 1.2963v12.435c0 .7132.5831 1.2963 1.2963 1.2963"/><path d="m44.3945 58.0416h6.937c.2457 0 .4464-.2015.4464-.4467v-3.009c0-.2452-.2012-.4464-.4464-.4464h-6.937c-.2452 0-.4464.2007-.4464.4464v3.009c0 .2458.2007.4467.4464.4467"/><path d="m50.3002 51.0432l-1.235-1.2793h-.6146l-1.11 1.2793v1.6143h2.9596v-1.6143z" style="stroke-miterlimit:2.613126;stroke:#564a4c;stroke-linecap:round;stroke-linejoin:round;stroke-width:1.4998"/></g><path d="m46.0548 57.0889c.5513 0 .9983-.447.9983-.9983 0-.5514-.447-.9984-.9983-.9984-.5514 0-.9984.447-.9984.9984 0 .5513.447.9983.9984.9983" style="fill:#cec7c4"/></g></g></g><path d="m285.64434 150.03573c3.30251 5.46001 5.05168 27.53173 5.14001 49.4776.0875 21.76297-1.44208 43.76926-4.68876 49.66677-3.08625 5.60168-21.32712 18.15838-40.28883 29.20756-18.78879 10.94753-38.608 20.61963-45.35676 20.75671-6.40293.12875-26.39047-9.38502-45.4276-20.27379-18.88462-10.80127-37.17549-23.13171-40.66675-28.90631-3.30209-5.46043-5.05167-27.53172-5.14001-49.4776-.0875-21.76296 1.44209-43.76926 4.68876-49.66677 3.08626-5.60209 21.32755-18.15837 40.28884-29.20756 18.7892-10.94752 38.60799-20.61963 45.35676-20.75671 6.40293-.12875 26.39047 9.38502 45.42759 20.27379 18.88462 10.80127 37.17549 23.13172 40.66675 28.90631m-1.08417 49.50135c-.085-21.01212-1.53792-41.77592-4.26167-46.27926-2.92793-4.84126-20.28421-16.33712-38.42008-26.70964-18.25504-10.44085-36.96633-19.57337-42.20551-19.46795-5.65501.11458-24.29296 9.40252-42.35467 19.92754-18.15712 10.58044-35.41299 22.21754-37.94508 26.81464-2.73667 4.97126-4.01709 25.75255-3.93334 46.64051.0854 21.01171 1.53792 41.77592 4.26168 46.27926 2.92792 4.84126 20.28421 16.33712 38.42008 26.70964 18.25504 10.44086 36.96632 19.57296 42.2055 19.46796 5.65543-.11459 24.29297-9.40252 42.35467-19.92754 18.15712-10.58044 35.41299-22.21755 37.94508-26.81464 2.73667-4.97126 4.01709-25.75297 3.93334-46.64052" style="fill:#564a4c"/><g transform="matrix(4.1666753,0,0,-4.1666753,0,400)"><path d="m26.8625 54.0281l.4723-.5607c.0581.0022.1057.0034.1426.0034.0371 0 .0847-.0009.1428-.0031l.4272.5068c.1735.2443.4847.3702.7926.2931l.5043-.1276c.2891-.0623.5258-.2942.5799-.6035l.129-.7219.1208-.0678.1207-.0723.6832.2472c.2607.0944.5641.0391.7761-.167l.3832-.3727c.2092-.1984.2934-.5097.1888-.798l-.25-.6908.0723-.1207.0674-.1202.7169-.1281-.0003-.0015c.2736-.049.5091-.2491.5891-.5346l.1482-.5241-.0019-.0006c.0762-.2729-.0071-.5782-.2382-.7727l-.5604-.4722c.0023-.0573.0032-.1049.0032-.1426 0-.0372-.0009-.0848-.0032-.1426l.5069-.4272c.244-.1735.3702-.4847.2931-.7926l-.1276-.5042c-.0624-.2892-.2939-.5262-.6035-.5803l-.7217-.129-.0683-.1216-.0717-.1202.2469-.6825c.0944-.2608.0391-.5641-.167-.7762l-.3727-.3832c-.1985-.2092-.5097-.2934-.798-.1888l-.6905.2497-.121-.0723-.1208-.0677-.1273-.7138-.0008.0003c-.0485-.2747-.2489-.5116-.5352-.5919l-.5241-.1482-.0006.002c-.273-.0763-.5783.0071-.7727.2381l-.4723.5607c-.0578-.0023-.1057-.0034-.1428-.0034-.0369 0-.0845.0008-.1426.0031l-.4272-.5068c-.1735-.2444-.4847-.3702-.7926-.2931l-.5043.1275c-.2891.0624-.5258.2943-.5799.6035l-.1293.7234-.0754.042-.0451.0241-.121.0725-.6829-.2472c-.2608-.0943-.5641-.0391-.7761.167l-.3832.3728c-.2092.1984-.2934.5096-.1888.7979l.25.6908-.0723.1208-.0675.1202-.7168.1281.0002.0014c-.2735.049-.5091.2492-.589.5346l-.1482.5241.0019.0006c-.0762.273.0071.5783.2381.7727l.5605.4723c-.0023.0581-.0032.1057-.0032.1426 0 .0351.0012.0833.0034.1426l-.5071.4271c-.244.1735-.3702.4848-.2931.7926l.1276.5043c.0623.2891.2939.5261.6035.5802l.7214.1287.0686.1219.0717.1202-.2469.6826c-.0944.2608-.0391.5641.167.7761l.3724.383c.1985.2095.5094.2937.798.1891l.6908-.2498.121.0726.0009-.0014.0023.0014.1173.066.1276.7152.0008-.0003c.0485.2747.2489.5117.5352.5919l.5241.1483.0006-.002c.273.0762.5783-.0071.7727-.2381" style="fill:#564a4c"/><g style="fill-rule:evenodd"><path d="m27.4774 52.0262c-2.1816 0-3.9504-1.7688-3.9504-3.9503 0-2.1816 1.7688-3.9504 3.9504-3.9504 2.1815 0 3.9503 1.7688 3.9503 3.9504 0 2.1815-1.7688 3.9503-3.9503 3.9503" style="fill:#fff"/><path d="m27.4776 49.6908c-.8917 0-1.6149-.7231-1.6149-1.6149 0-.8918.7232-1.6149 1.6149-1.6149.8918 0 1.6149.7231 1.6149 1.6149 0 .8918-.7231 1.6149-1.6149 1.6149" style="fill:#f7a21c"/></g><path d="m27.4776 48.9407c-.2389 0-.4555-.0969-.6117-.2531-.1562-.1562-.2531-.3728-.2531-.6117 0-.239.0969-.4556.2531-.6117.1562-.1562.3728-.2532.6117-.2532.239 0 .4556.097.6118.2532.1561.1561.2531.3727.2531.6117 0 .2389-.097.4555-.2531.6117-.1562.1562-.3728.2531-.6118.2531m-1.6718.807c.4277.4278 1.0193.6931 1.6718.6931.6526 0 1.2442-.2653 1.6719-.6931.4278-.4277.6931-1.0193.6931-1.6718 0-.6526-.2653-1.2442-.6931-1.6719-.4277-.4277-1.0193-.6931-1.6719-.6931-.6525 0-1.2441.2654-1.6718.6931-.4278.4277-.6931 1.0193-.6931 1.6719 0 .6525.2653 1.2441.6931 1.6718" style="fill:#564a4c"/></g><g transform="matrix(4.1666753,0,0,-4.1666753,0,400)" style="fill:none;stroke-miterlimit:2.613126;stroke:#564a4c;stroke-linecap:round;stroke-linejoin:round;stroke-width:1.4998"><path d="m61.6207 39.2888h-27.8085"/><path d="m59.4808 36.8087h-23.5287"/><path d="m54.534 34.3284h-15.0786"/><path d="m50.0587 31.8484h-4.9073"/><path d="m48.8166 46.3754c0-1.4174 0-2.126 1.4173-2.126 1.4173 0 12.0954 0 12.0954 0"/><path d="m62.3293 41.7691h-29.2257"/></g></svg>