<?xml version="1.0" encoding="UTF-8" standalone="no"?>
<svg
   xmlns:dc="http://purl.org/dc/elements/1.1/"
   xmlns:cc="http://creativecommons.org/ns#"
   xmlns:rdf="http://www.w3.org/1999/02/22-rdf-syntax-ns#"
   xmlns:svg="http://www.w3.org/2000/svg"
   xmlns="http://www.w3.org/2000/svg"
   version="1.1"
   id="svg2"
   height="400"
   viewBox="0 0 400 400.00001">
  <metadata
     id="metadata59">
    <rdf:RDF>
      <cc:Work
         rdf:about="">
        <dc:format>image/svg+xml</dc:format>
        <dc:type
           rdf:resource="http://purl.org/dc/dcmitype/StillImage" />
        <dc:title></dc:title>
      </cc:Work>
    </rdf:RDF>
  </metadata>
  <defs
     id="defs57">
    <clipPath
       clipPathUnits="userSpaceOnUse"
       id="clipPath3468">
      <path
         d="m 67.913,59.6047 c 1.4414,-2.3834 1.5353,-20.4293 0.0936,-23.0477 -1.3437,-2.4398 -16.9249,-11.5441 -19.9134,-11.6047 -2.7845,-0.0565 -18.4598,8.8851 -20.0064,11.4428 -1.4414,2.3834 -1.5352,20.4293 -0.0935,23.0477 1.3436,2.4398 16.9248,11.5441 19.9133,11.6048 2.7845,0.0564 18.4598,-8.8852 20.0064,-11.4429"
         id="path3470"
         style="clip-rule:evenodd" />
    </clipPath>
  </defs>
  <path
     id="path3460"
     style="fill:#e6e6e6;fill-opacity:1;fill-rule:evenodd;stroke:none"
     d="m 200,4.53506e-6 c 110.45689,0 200,89.54310246494 200,199.99999546494 0,110.4569 -89.54311,200 -200,200 -110.456898,0 -200,-89.5431 -200,-200 0,-110.456893 89.543102,-199.99999546494 200,-199.99999546494" />
  <path
     id="path3462"
     style="fill:#cec7c4;fill-opacity:1;fill-rule:evenodd;stroke:none"
     d="m 282.97142,151.64657 c 6.00585,9.93085 6.3971,85.12226 0.39,96.03228 -5.59876,10.16586 -70.52056,48.10052 -82.97267,48.35302 -11.60211,0.23542 -76.91599,-37.02133 -83.36017,-47.67843 -6.00585,-9.93086 -6.39668,-85.12226 -0.38959,-96.03229 5.59835,-10.16585 70.52015,-48.10051 82.97226,-48.35343 11.6021,-0.235 76.91599,37.02174 83.36017,47.67885" />
  <g
     transform="matrix(4.1666753,0,0,-4.1666753,0,400)"
     id="g3464">
    <g
       clip-path="url(#clipPath3468)"
       id="g3466">
      <g
         id="g3472">
        <path
           id="path3474"
           style="fill:#564a4c;fill-opacity:1;fill-rule:evenodd;stroke:none"
           d="m 41.6455,73.9236 12.435,0 c 0.7132,0 1.2963,-0.5831 1.2963,-1.2963 l 0,-12.435 c 0,-0.7132 -0.5831,-1.2963 -1.2963,-1.2963 l -12.435,0 c -0.7132,0 -1.2963,0.5831 -1.2963,1.2963 l 0,12.435 c 0,0.7132 0.5831,1.2963 1.2963,1.2963" />
        <path
           id="path3476"
           style="fill:#564a4c;fill-opacity:1;fill-rule:evenodd;stroke:none"
           d="m 44.3945,58.0416 6.937,0 c 0.2457,0 0.4464,-0.2015 0.4464,-0.4467 l 0,-3.009 c 0,-0.2452 -0.2012,-0.4464 -0.4464,-0.4464 l -6.937,0 c -0.2452,0 -0.4464,0.2007 -0.4464,0.4464 l 0,3.009 c 0,0.2458 0.2007,0.4467 0.4464,0.4467" />
        <path
           id="path3478"
           style="fill:#564a4c;fill-opacity:1;fill-rule:evenodd;stroke:#564a4c;stroke-width:1.49979997;stroke-linecap:round;stroke-linejoin:round;stroke-miterlimit:2.61312604;stroke-dasharray:none;stroke-opacity:1"
           d="m 50.3002,51.0432 -1.235,-1.2793 -0.6146,0 -1.11,1.2793 0,1.6143 2.9596,0 0,-1.6143 z" />
        <path
           id="path3480"
           style="fill:#cec7c4;fill-opacity:1;fill-rule:evenodd;stroke:none"
           d="m 46.0548,57.0889 c 0.5513,0 0.9983,-0.447 0.9983,-0.9983 0,-0.5514 -0.447,-0.9984 -0.9983,-0.9984 -0.5514,0 -0.9984,0.447 -0.9984,0.9984 0,0.5513 0.447,0.9983 0.9984,0.9983" />
      </g>
    </g>
  </g>
  <path
     id="path3482"
     style="fill:#564a4c;fill-opacity:1;fill-rule:nonzero;stroke:none"
     d="m 285.64434,150.03573 c 3.30251,5.46001 5.05168,27.53173 5.14001,49.4776 0.0875,21.76297 -1.44208,43.76926 -4.68876,49.66677 -3.08625,5.60168 -21.32712,18.15838 -40.28883,29.20756 -18.78879,10.94753 -38.608,20.61963 -45.35676,20.75671 -6.40293,0.12875 -26.39047,-9.38502 -45.4276,-20.27379 -18.88462,-10.80127 -37.17549,-23.13171 -40.66675,-28.90631 -3.30209,-5.46043 -5.05167,-27.53172 -5.14001,-49.4776 -0.0875,-21.76296 1.44209,-43.76926 4.68876,-49.66677 3.08626,-5.60209 21.32755,-18.15837 40.28884,-29.20756 18.7892,-10.94752 38.60799,-20.61963 45.35676,-20.75671 6.40293,-0.12875 26.39047,9.38502 45.42759,20.27379 18.88462,10.80127 37.17549,23.13172 40.66675,28.90631 z m -1.08417,49.50135 c -0.085,-21.01212 -1.53792,-41.77592 -4.26167,-46.27926 -2.92793,-4.84126 -20.28421,-16.33712 -38.42008,-26.70964 -18.25504,-10.44085 -36.96633,-19.57337 -42.20551,-19.46795 -5.65501,0.11458 -24.29296,9.40252 -42.35467,19.92754 -18.15712,10.58044 -35.41299,22.21754 -37.94508,26.81464 -2.73667,4.97126 -4.01709,25.75255 -3.93334,46.64051 0.0854,21.01171 1.53792,41.77592 4.26168,46.27926 2.92792,4.84126 20.28421,16.33712 38.42008,26.70964 18.25504,10.44086 36.96632,19.57296 42.2055,19.46796 5.65543,-0.11459 24.29297,-9.40252 42.35467,-19.92754 18.15712,-10.58044 35.41299,-22.21755 37.94508,-26.81464 2.73667,-4.97126 4.01709,-25.75297 3.93334,-46.64052" />
  <g
     id="cog">
    <path
       id="path3486"
       style="fill:#564a4c;fill-opacity:1;fill-rule:nonzero;stroke:none"
       d="m 110.52747,176.06776 1.89904,2.25442 c 0.23361,-0.009 0.425,-0.0137 0.57338,-0.0137 0.14917,0 0.34056,0.004 0.57417,0.0125 l 1.71771,-2.0377 c 0.69762,-0.98227 1.94891,-1.48848 3.18693,-1.17848 l 2.02771,0.51305 c 1.16243,0.25049 2.11416,1.18289 2.33169,2.4265 l 0.51869,2.90256 0.48571,0.27261 0.48533,0.2907 2.74704,-0.99393 c 1.04823,-0.37955 2.26815,-0.15721 3.12057,0.67146 l 1.54079,1.49853 c 0.84116,0.79771 1.17972,2.04936 0.75914,3.20853 l -1.00521,2.77752 0.2907,0.4853 0.27101,0.48329 2.88255,0.51506 -10e-4,0.006 c 1.1001,0.19701 2.04701,1.00156 2.36868,2.14948 l 0.59589,2.10726 -0.008,0.002 c 0.3064,1.09726 -0.0285,2.32478 -0.95777,3.10681 l -2.25328,1.89859 c 0.009,0.23039 0.0129,0.42177 0.0129,0.57335 0,0.14957 -0.004,0.34096 -0.0129,0.57336 l 2.03817,1.71765 c 0.98109,0.6976 1.48852,1.94885 1.17851,3.18683 l -0.51306,2.02725 c -0.2509,1.16279 -1.18173,2.1157 -2.42658,2.33322 l -2.90185,0.51867 -0.27462,0.48892 -0.28829,0.4833 0.99274,2.74414 c 0.37957,1.0486 0.15722,2.26809 -0.67148,3.12088 l -1.49857,1.54075 c -0.79813,0.84113 -2.04943,1.17968 -3.20863,0.75911 l -2.7764,-1.00398 -0.48653,0.2907 -0.48571,0.2722 -0.51186,2.87 -0.003,-0.001 c -0.19501,1.10449 -1.00079,2.057 -2.15197,2.37987 l -2.10732,0.59587 -0.002,-0.008 c -1.09769,0.30678 -2.32526,-0.0285 -3.10691,-0.95734 l -1.89905,-2.25442 c -0.2324,0.009 -0.425,0.0137 -0.57417,0.0137 -0.14838,0 -0.33977,-0.003 -0.57338,-0.0125 l -1.7177,2.0377 c -0.69762,0.98267 -1.9489,1.48847 -3.18693,1.17848 l -2.02771,-0.51265 c -1.16242,-0.25089 -2.11416,-1.1833 -2.33169,-2.4265 l -0.51989,-2.90859 -0.30318,-0.16887 -0.18134,-0.0969 -0.48652,-0.29151 -2.745837,0.99393 c -1.048637,0.37915 -2.26816,0.15721 -3.12058,-0.67146 l -1.540788,-1.49893 c -0.841162,-0.79771 -1.179718,-2.04896 -0.759137,-3.20814 l 1.005213,-2.77751 -0.290708,-0.4857 -0.271408,-0.4833 -2.882143,-0.51505 8.04e-4,-0.006 c -1.099701,-0.19701 -2.047013,-1.00196 -2.368279,-2.14948 l -0.59589,-2.10726 0.0076,-0.002 c -0.306388,-1.09766 0.02855,-2.32519 0.957364,-3.10681 l 2.253686,-1.89899 c -0.0092,-0.23361 -0.01287,-0.42499 -0.01287,-0.57336 0,-0.14112 0.0048,-0.33492 0.01367,-0.57335 l -2.038972,-1.71725 c -0.981087,-0.6976 -1.488518,-1.94925 -1.178511,-3.18683 l 0.513061,-2.02765 c 0.250498,-1.16239 1.181727,-2.1153 2.426581,-2.33282 l 2.90064,-0.51747 0.27583,-0.49013 0.288295,-0.48329 -0.992748,-2.74454 c -0.379567,-1.04861 -0.157215,-2.26809 0.671482,-3.12049 l 1.497364,-1.53993 c 0.798138,-0.84234 2.04822,-1.18089 3.208637,-0.76032 l 2.777604,1.00438 0.48652,-0.29191 0.004,0.006 0.009,-0.006 0.47165,-0.26537 0.51305,-2.87562 0.003,0.001 c 0.19502,-1.10449 1.0008,-2.05741 2.15196,-2.37987 l 2.10732,-0.59627 0.002,0.008 c 1.09769,-0.30638 2.32526,0.0285 3.10691,0.95733" />
    <path
       id="path3488"
       style="fill:#ffffff;fill-opacity:1;fill-rule:evenodd;stroke:none"
       d="m 112.99989,184.11685 c -8.77188,0 -15.883961,7.11186 -15.883961,15.88306 0,8.77161 7.112081,15.88347 15.883961,15.88347 8.77148,0 15.88355,-7.11186 15.88355,-15.88347 0,-8.7712 -7.11207,-15.88306 -15.88355,-15.88306" />
    <path
       id="path3490"
       style="fill:#f7a21c;fill-opacity:1;fill-rule:evenodd;stroke:none"
       d="m 113.00069,193.50685 c -3.58538,0 -6.49327,2.90738 -6.49327,6.49306 0,3.58568 2.90789,6.49307 6.49327,6.49307 3.5858,0 6.49327,-2.90739 6.49327,-6.49307 0,-3.58568 -2.90747,-6.49306 -6.49327,-6.49306" />
    <path
       id="path3492"
       style="fill:#564a4c;fill-opacity:1;fill-rule:nonzero;stroke:none"
       d="m 113.00069,196.52279 c -0.96057,0 -1.83149,0.38961 -2.45955,1.01765 -0.62806,0.62803 -1.01767,1.49892 -1.01767,2.45947 0,0.96096 0.38961,1.83184 1.01767,2.45948 0.62806,0.62804 1.49898,1.01805 2.45955,1.01805 0.96099,0 1.8319,-0.39001 2.45995,-1.01805 0.62766,-0.62764 1.01769,-1.49852 1.01769,-2.45948 0,-0.96055 -0.39003,-1.83144 -1.01769,-2.45947 -0.62805,-0.62804 -1.49896,-1.01765 -2.45995,-1.01765 z m -6.72205,-3.24472 c 1.71972,-1.72007 4.09845,-2.78676 6.72205,-2.78676 2.62401,0 5.00274,1.06669 6.72245,2.78676 1.72012,1.71966 2.78686,4.09832 2.78686,6.72184 0,2.62393 -1.06674,5.00259 -2.78686,6.72225 -1.71971,1.71966 -4.09844,2.78676 -6.72245,2.78676 -2.6236,0 -5.00233,-1.0671 -6.72205,-2.78676 -1.72012,-1.71966 -2.78685,-4.09832 -2.78685,-6.72225 0,-2.62352 1.06673,-5.00218 2.78685,-6.72184" />

         <animateTransform attributeName="transform"
                                              attributeType="XML"
                                              type="rotate"
                                              from="360 113 200"
                                              to="0 113 200"
                                              dur="5s"
                                              repeatCount="indefinite"/>
  </g>
  <g
     transform="matrix(4.1666753,0,0,-4.1666753,0,400)"
     id="g3494">
    <path
       id="path3496"
       style="fill:none;stroke:#564a4c;stroke-width:1.49979997;stroke-linecap:round;stroke-linejoin:round;stroke-miterlimit:2.61312604;stroke-dasharray:none;stroke-opacity:1"
       d="m 61.6207,39.2888 -27.8085,0" />
    <path
       id="path3498"
       style="fill:none;stroke:#564a4c;stroke-width:1.49979997;stroke-linecap:round;stroke-linejoin:round;stroke-miterlimit:2.61312604;stroke-dasharray:none;stroke-opacity:1"
       d="m 59.4808,36.8087 -23.5287,0" />
    <path
       id="path3500"
       style="fill:none;stroke:#564a4c;stroke-width:1.49979997;stroke-linecap:round;stroke-linejoin:round;stroke-miterlimit:2.61312604;stroke-dasharray:none;stroke-opacity:1"
       d="m 54.534,34.3284 -15.0786,0" />
    <path
       id="path3502"
       style="fill:none;stroke:#564a4c;stroke-width:1.49979997;stroke-linecap:round;stroke-linejoin:round;stroke-miterlimit:2.61312604;stroke-dasharray:none;stroke-opacity:1"
       d="m 50.0587,31.8484 -4.9073,0" />
    <path
       id="path3504"
       style="fill:none;stroke:#564a4c;stroke-width:1.49979997;stroke-linecap:round;stroke-linejoin:round;stroke-miterlimit:2.61312604;stroke-dasharray:none;stroke-opacity:1"
       d="m 48.8166,46.3754 c 0,-1.4174 0,-2.126 1.4173,-2.126 1.4173,0 12.0954,0 12.0954,0" />
    <path
       id="path3506"
       style="fill:none;stroke:#564a4c;stroke-width:1.49979997;stroke-linecap:round;stroke-linejoin:round;stroke-miterlimit:2.61312604;stroke-dasharray:none;stroke-opacity:1"
       d="m 62.3293,41.7691 -29.2257,0" />
  </g>
    <path
       id="load"
       style="fill:#45363b;fill-opacity:1;fill-rule:nonzero;stroke:none"
       d="m 152.24155,45.617487 c -1.09591,0.336612 -2.25851,-0.279315 -2.59514,-1.375122 -0.33669,-1.0955 0.27932,-2.258091 1.37504,-2.594729 l 1.06546,-0.326296 0.0733,-0.02221 1.01263,-0.301731 c 1.0983,-0.326288 2.25543,0.29898 2.58168,1.397308 0.32636,1.09829 -0.29905,2.255435 -1.3973,2.581708 l -1.01951,0.303536 -0.0309,0.01092 -1.06545,0.326292 z m 51.89009,312.809413 c 2.86844,-0.0657 5.24847,2.20659 5.31462,5.07514 0.0657,2.86848 -2.2066,5.24853 -5.07511,5.31421 -6.91866,0.17927 -13.79434,-0.0587 -20.57781,-0.71244 -6.84857,-0.66041 -13.64619,-1.7355 -20.34692,-3.22061 -2.80765,-0.62247 -4.58041,-3.40465 -3.95793,-6.21265 0.62247,-2.80769 3.40498,-4.5804 6.21268,-3.95794 6.31912,1.40092 12.69912,2.41161 19.09761,3.02883 6.46145,0.622 12.92282,0.85172 19.33283,0.68563 z m 19.84106,-0.71374 c 2.26619,-0.34435 4.38464,1.21534 4.72943,3.48152 0.34439,2.26577 -1.21523,4.38424 -3.48146,4.72899 -1.73529,0.26366 -3.17683,0.46896 -4.2905,0.60831 -1.26282,0.1582 -2.69828,0.31853 -4.3038,0.47815 -2.28558,0.2201 -4.31868,-1.45333 -4.53912,-3.73941 -0.22002,-2.28559 1.45365,-4.31816 3.73934,-4.53868 1.18861,-0.11757 2.54937,-0.2743 4.06877,-0.46497 1.67738,-0.21022 3.02991,-0.39484 4.07736,-0.55393 z m 14.34744,-1.79124 c 1.67089,-0.41019 3.35882,0.61398 3.7686,2.28477 0.41016,1.67085 -0.61406,3.35879 -2.28483,3.76853 -1.07966,0.2652 -1.85797,0.45319 -2.35394,0.56688 -0.3431,0.079 -1.15068,0.25537 -2.37341,0.51816 -1.68027,0.35817 -3.33573,-0.71431 -3.69398,-2.39411 -0.35828,-1.67986 0.71424,-3.33532 2.39414,-3.694 0.32597,-0.0691 1.07181,-0.24026 2.27132,-0.51617 1.04663,-0.24126 1.8165,-0.42243 2.27211,-0.53379 z m 9.43861,-1.53945 c 1.0959,-0.33663 2.25849,0.27926 2.59515,1.37507 0.33671,1.09551 -0.27935,2.25851 -1.37508,2.59473 l -1.06542,0.32636 -0.0738,0.0215 -1.01267,0.30174 c -1.09843,0.32669 -2.25539,-0.29905 -2.58169,-1.39728 -0.32635,-1.09829 0.2989,-2.25499 1.39727,-2.5817 l 1.0195,-0.30358 0.0309,-0.0105 1.06542,-0.32621 z m -51.89002,-312.809438 c -2.86852,0.06572 -5.24895,-2.206702 -5.31466,-5.075198 -0.0658,-2.868051 2.2066,-5.248498 5.07508,-5.314185 6.91866,-0.179283 13.79427,0.0591 20.57783,0.712405 6.84854,0.66044 13.64617,1.735575 20.34686,3.221 2.80763,0.622427 4.58043,3.404625 3.95789,6.21269 -0.62246,2.807655 -3.40497,4.58037 -6.21268,3.957926 -6.31907,-1.400926 -12.69907,-2.411615 -19.09756,-3.02902 -6.46143,-0.622011 -12.92279,-0.85179 -19.33276,-0.685636 z m -19.84114,0.713786 c -2.26614,0.344361 -4.38467,-1.215308 -4.72952,-3.48117 -0.3443,-2.266189 1.21537,-4.384672 3.48156,-4.729424 1.73527,-0.263612 3.17685,-0.468965 4.29038,-0.607898 1.26295,-0.158292 2.69844,-0.318926 4.3039,-0.478555 2.2856,-0.220066 4.3186,1.453746 4.53871,3.739337 0.22051,2.28566 -1.45332,4.318627 -3.73891,4.538758 -1.18867,0.11759 -2.54941,0.274301 -4.06876,0.464935 -1.67737,0.210246 -3.02987,0.395258 -4.0774,0.553987 z m -14.3474,1.791279 c -1.67091,0.410132 -3.35892,-0.613626 -3.76868,-2.284431 -0.41018,-1.67088 0.61366,-3.359335 2.28454,-3.769077 1.08004,-0.264973 1.85835,-0.453113 2.35429,-0.566748 0.34273,-0.07895 1.1501,-0.255371 2.37344,-0.518167 1.67984,-0.358304 3.33572,0.7143 3.69392,2.394212 0.35827,1.679826 -0.7143,3.335689 -2.39412,3.693982 -0.32602,0.069 -1.07194,0.239882 -2.27135,0.516068 -1.04662,0.241298 -1.81665,0.422687 -2.27202,0.534182" >


                         <animateTransform attributeName="transform"
                                             attributeType="XML"
                                             type="rotate"
                                             from="0 200 200"
                                             to="360 200 200"
                                             dur="2s"
                                             repeatCount="indefinite"/>

       </path>
</svg>
