<?xml version="1.0" encoding="UTF-8" standalone="no"?>
<!-- Creator: CorelDRAW X7 -->

<svg
   xmlns:dc="http://purl.org/dc/elements/1.1/"
   xmlns:cc="http://creativecommons.org/ns#"
   xmlns:rdf="http://www.w3.org/1999/02/22-rdf-syntax-ns#"
   xmlns:svg="http://www.w3.org/2000/svg"
   xmlns="http://www.w3.org/2000/svg"
   xmlns:sodipodi="http://sodipodi.sourceforge.net/DTD/sodipodi-0.dtd"
   xmlns:inkscape="http://www.inkscape.org/namespaces/inkscape"
   xml:space="preserve"
   width="400px"
   height="400px"
   version="1.1"
   style="shape-rendering:geometricPrecision; text-rendering:geometricPrecision; image-rendering:optimizeQuality; fill-rule:evenodd; clip-rule:evenodd"
   viewBox="0 0 400 400"
   id="svg2"
   inkscape:version="0.91 r13725"
   sodipodi:docname="sart_print.svg"><metadata
     id="metadata69"><rdf:RDF><cc:Work
         rdf:about=""><dc:format>image/svg+xml</dc:format><dc:type
           rdf:resource="http://purl.org/dc/dcmitype/StillImage" /><dc:title></dc:title></cc:Work></rdf:RDF></metadata><sodipodi:namedview
     pagecolor="#ffffff"
     bordercolor="#666666"
     borderopacity="1"
     objecttolerance="10"
     gridtolerance="10"
     guidetolerance="10"
     inkscape:pageopacity="0"
     inkscape:pageshadow="2"
     inkscape:window-width="2304"
     inkscape:window-height="1233"
     id="namedview67"
     showgrid="false"
     inkscape:zoom="1.18"
     inkscape:cx="239.29884"
     inkscape:cy="263.16872"
     inkscape:window-x="-8"
     inkscape:window-y="-8"
     inkscape:window-maximized="1"
     inkscape:current-layer="Layer_x0020_1" /><defs
     id="defs4"><style
       type="text/css"
       id="style6"><![CDATA[
    .fil3 {fill:none}
    .fil7 {fill:#564A4C}
    .fil1 {fill:#CEC7C4}
    .fil0 {fill:#E6E6E6}
    .fil5 {fill:#F7A21C}
    .fil2 {fill:white}
    .fil4 {fill:#564A4C;fill-rule:nonzero}
    .fil6 {fill:white;fill-rule:nonzero}
   ]]></style><clipPath
       id="id0"><path
         d="M283 152c6,10 6,85 0,96 -5,10 -70,48 -83,48 -11,0 -77,-37 -83,-48 -6,-10 -6,-85 0,-96 5,-10 70,-48 83,-48 11,0 77,37 83,48z"
         id="path9" /></clipPath><clipPath
       id="clipPath3554"
       clipPathUnits="userSpaceOnUse"><path
         style="clip-rule:evenodd"
         inkscape:connector-curvature="0"
         id="path3556"
         d="M 67.913,59.6047 C 69.3544,57.2213 69.4483,39.1754 68.0066,36.557 66.6629,34.1172 51.0817,25.0129 48.0932,24.9523 45.3087,24.8958 29.6334,33.8374 28.0868,36.3951 c -1.4414,2.3834 -1.5352,20.4293 -0.0935,23.0477 1.3436,2.4398 16.9248,11.5441 19.9133,11.6048 2.7845,0.0564 18.4598,-8.8852 20.0064,-11.4429" /></clipPath></defs><g
     id="Layer_x0020_1"><metadata
       id="CorelCorpID_0Corel-Layer" /><g
       transform="matrix(4.1666753,0,0,-4.1666753,0,400)"
       inkscape:label="wizard_icon"
       id="g3544"><path
         inkscape:connector-curvature="0"
         id="path3546"
         style="fill:#e6e6e6;fill-opacity:1;fill-rule:evenodd;stroke:none"
         d="m 47.9999,95.9998 c 26.5096,0 47.9999,-21.4903 47.9999,-47.9999 C 95.9998,21.4903 74.5095,0 47.9999,0 21.4903,0 0,21.4903 0,47.9999 0,74.5095 21.4903,95.9998 47.9999,95.9998" /><path
         inkscape:connector-curvature="0"
         id="path3548"
         style="fill:#cec7c4;fill-opacity:1;fill-rule:evenodd;stroke:none"
         d="M 67.913,59.6047 C 69.3544,57.2213 69.4483,39.1754 68.0066,36.557 66.6629,34.1172 51.0817,25.0129 48.0932,24.9523 45.3087,24.8958 29.6334,33.8374 28.0868,36.3951 c -1.4414,2.3834 -1.5352,20.4293 -0.0935,23.0477 1.3436,2.4398 16.9248,11.5441 19.9133,11.6048 2.7845,0.0564 18.4598,-8.8852 20.0064,-11.4429" /><g
         id="g3550"><g
           clip-path="url(#clipPath3554)"
           id="g3552"><g
             id="g3558"><path
               inkscape:connector-curvature="0"
               id="path3560"
               style="fill:#ffffff;fill-opacity:1;fill-rule:evenodd;stroke:none"
               d="m 48.0932,50.8147 -12.0518,0 c -1.5112,0 -2.7474,-1.2362 -2.7474,-2.747 l 0,-26.6463 c 0,-0.7052 0.5772,-1.2821 1.2822,-1.2821 l 4.4396,0 c 0.7038,0 0.5782,1.2864 1.2821,1.2821 l 15.5905,0 c 0.7042,0.0043 0.578,-1.2821 1.2822,-1.2821 l 4.4396,0 c 0.7049,0 1.2821,0.5769 1.2821,1.2821 l 0,26.6463 c 0,1.5108 -1.2362,2.747 -2.7474,2.747 l -12.0517,0 z" /><path
               inkscape:connector-curvature="0"
               id="path3562"
               style="fill:#564a4c;fill-opacity:1;fill-rule:nonzero;stroke:none"
               d="m 48.0932,50.0647 -12.0518,0 c -0.5485,0 -1.0483,-0.2251 -1.4103,-0.5871 l -0.0028,0 C 34.268,49.1173 34.0441,48.6181 34.0441,48.0677 l 0,-26.6463 c 0,-0.1474 0.0592,-0.2806 0.1539,-0.3753 l 0.0029,0 c 0.0963,-0.0964 0.2296,-0.1567 0.3753,-0.1567 l 4.4396,0 c 0.1301,0 -0.0859,0.0986 -0.042,0.1967 l 0,0.0028 c 0.2441,0.5417 0.4887,1.0837 1.3241,1.0794 l 0,0.0032 15.5905,0 0,-0.0032 c 0.8357,0.0043 1.08,-0.5377 1.3241,-1.0794 l 0,-0.0028 c 0.0439,-0.0981 -0.1726,-0.1967 -0.0419,-0.1967 l 4.4396,0 c 0.1457,0 0.2789,0.0603 0.3753,0.1567 l 0.0028,0 c 0.0947,0.0947 0.1539,0.2279 0.1539,0.3753 l 0,26.6463 c 0,0.5504 -0.2239,1.0496 -0.5842,1.4099 l -0.0028,0 c -0.362,0.362 -0.8618,0.5871 -1.4103,0.5871 l -12.0517,0 z m -12.0518,1.5001 12.0518,0 12.0517,0 c 0.9621,0 1.8369,-0.3935 2.4704,-1.027 l -0.0014,-0.0015 c 0.6344,-0.6349 1.0284,-1.5091 1.0284,-2.4686 l 0,-26.6463 c 0,-0.5567 -0.2293,-1.0647 -0.5981,-1.434 l 0.0014,-0.0014 c -0.3679,-0.368 -0.8762,-0.5967 -1.4354,-0.5967 l -4.4396,0 c -0.8332,0 -1.0783,0.5425 -1.3221,1.0851 l -0.0012,-6e-4 c -0.0447,0.0995 0.1775,0.2015 0.044,0.2007 l -0.0029,-0.0031 -15.5905,0 -0.0028,0.0031 c -0.1338,8e-4 0.0887,-0.1012 0.0439,-0.2007 l -0.0011,6e-4 c -0.2441,-0.5429 -0.4896,-1.0851 -1.3221,-1.0851 l -4.4396,0 c -0.5593,0 -1.0676,0.2287 -1.4355,0.5967 l 0.0014,0.0014 c -0.3688,0.3693 -0.5981,0.8773 -0.5981,1.434 l 0,26.6463 c 0,0.9595 0.394,1.8337 1.0284,2.4686 l -0.0014,0.0015 c 0.6335,0.6335 1.5083,1.027 2.4704,1.027" /><path
               inkscape:connector-curvature="0"
               id="path3564"
               style="fill:#f7a21c;fill-opacity:1;fill-rule:evenodd;stroke:none"
               d="m 60.6146,32.6149 0,0.0088 0,13.1272 0,2.3168 c 0,0.2537 -0.2157,0.4691 -0.4694,0.4691 l -24.1038,0 c -0.2537,0 -0.4694,-0.2154 -0.4694,-0.4691 l 0,-2.3168 0,-13.1272 0,-0.0088 0,-2.3168 c 0,-0.2537 0.2157,-0.4691 0.4694,-0.4691 l 24.1038,0 c 0.2537,0 0.4694,0.2154 0.4694,0.4691 l 0,2.3168 z" /><path
               inkscape:connector-curvature="0"
               id="path3566"
               style="fill:#f7a21c;fill-opacity:1;fill-rule:evenodd;stroke:none"
               d="m 48.0932,28.2821 c 1.3116,0 2.3748,-1.0633 2.3748,-2.3749 0,-1.3115 -1.0632,-2.3748 -2.3748,-2.3748 -1.3116,0 -2.3749,1.0633 -2.3749,2.3748 0,1.3116 1.0633,2.3749 2.3749,2.3749" /><path
               inkscape:connector-curvature="0"
               id="path3568"
               style="fill:#564a4c;fill-opacity:1;fill-rule:nonzero;stroke:none"
               d="m 46.3008,50.9905 c 0.0068,0.0286 2.5143,10.0448 -3.5226,10.0448 -0.4445,0 -0.8459,-0.0524 -1.2039,-0.1522 -0.9728,-0.271 -1.7002,-0.9065 -2.1866,-1.8043 -0.5224,-0.964 -0.7804,-2.2331 -0.7804,-3.6938 0,-1.3567 0.2214,-2.8619 0.6585,-4.4305 l -1.4411,-0.3986 c -0.4763,1.7093 -0.7175,3.3497 -0.7175,4.8291 0,1.7022 0.3181,3.2134 0.9624,4.4025 0.6806,1.2557 1.713,2.1487 3.1062,2.5367 0.4969,0.1386 1.0318,0.2112 1.6024,0.2112 7.9628,0 4.9839,-11.8627 4.9757,-11.8964 l -1.4531,0.3515 z" /><path
               inkscape:connector-curvature="0"
               id="path3570"
               style="fill:#564a4c;fill-opacity:1;fill-rule:nonzero;stroke:none"
               d="m 38.9682,36.5655 c -0.4142,0 -0.7501,0.3359 -0.7501,0.7501 0,0.4141 0.3359,0.75 0.7501,0.75 l 18.25,0 c 0.4141,0 0.75,-0.3359 0.75,-0.75 0,-0.4142 -0.3359,-0.7501 -0.75,-0.7501 l -18.25,0 z" /><path
               inkscape:connector-curvature="0"
               id="path3572"
               style="fill:#ffffff;fill-opacity:1;fill-rule:nonzero;stroke:none"
               d="m 46.0712,41.3388 2.3102,-0.5052 c 0.2625,-0.0564 0.4289,-0.3152 0.3725,-0.5774 -0.0419,-0.1942 -0.1944,-0.3359 -0.3773,-0.3736 l -2.3054,-0.504 -0.5051,-2.3102 c -0.0567,-0.2625 -0.3152,-0.4289 -0.5777,-0.3725 -0.1942,0.042 -0.3356,0.1945 -0.3733,0.3773 l -0.504,2.3054 -2.3106,0.5051 c -0.2625,0.0567 -0.4288,0.3153 -0.3724,0.5777 0.0419,0.1942 0.1944,0.3357 0.3773,0.3734 l 2.3057,0.504 0.5051,2.3105 c 0.0564,0.2625 0.3152,0.4289 0.5774,0.3725 0.1942,-0.042 0.3359,-0.1945 0.3736,-0.3773 l 0.504,-2.3057 z" /><path
               inkscape:connector-curvature="0"
               id="path3574"
               style="fill:#ffffff;fill-opacity:1;fill-rule:nonzero;stroke:none"
               d="m 53.043,43.4208 1.3051,-0.2851 c 0.1482,-0.0321 0.2424,-0.1781 0.2103,-0.3263 -0.0238,-0.1097 -0.11,-0.1897 -0.2131,-0.2109 L 53.043,42.3139 52.7579,41.0088 c -0.0321,-0.1482 -0.1781,-0.2423 -0.3263,-0.2103 -0.1097,0.0238 -0.1896,0.11 -0.2109,0.2132 l -0.2846,1.3022 -1.3051,0.2852 c -0.1482,0.032 -0.2423,0.178 -0.2103,0.3262 0.0238,0.1097 0.11,0.1897 0.2132,0.2109 l 1.3022,0.2846 0.2852,1.3051 c 0.032,0.1482 0.178,0.2424 0.3262,0.2103 0.1097,-0.0238 0.1897,-0.11 0.2109,-0.2131 l 0.2846,-1.3023 z" /></g></g></g><path
         inkscape:connector-curvature="0"
         id="path3576"
         style="fill:#564a4c;fill-opacity:1;fill-rule:nonzero;stroke:none"
         d="m 68.5545,59.9913 c 0.7926,-1.3104 1.2124,-6.6076 1.2336,-11.8746 0.021,-5.2231 -0.3461,-10.5046 -1.1253,-11.92 -0.7407,-1.3444 -5.1185,-4.358 -9.6693,-7.0098 -4.5093,-2.6274 -9.2659,-4.9487 -10.8856,-4.9816 -1.5367,-0.0309 -6.3337,2.2524 -10.9026,4.8657 -4.5323,2.5923 -8.9221,5.5516 -9.76,6.9375 -0.7925,1.3105 -1.2124,6.6076 -1.2336,11.8746 -0.021,5.2231 0.3461,10.5046 1.1253,11.92 0.7407,1.3445 5.1186,4.358 9.6693,7.0098 4.5094,2.6274 9.2659,4.9487 10.8856,4.9816 1.5367,0.0309 6.3337,-2.2524 10.9026,-4.8657 4.5323,-2.5923 8.9221,-5.5516 9.76,-6.9375 z M 68.2943,48.111 c -0.0204,5.0429 -0.3691,10.0262 -1.0228,11.107 -0.7027,1.1619 -4.8682,3.9209 -9.2208,6.4103 -4.3812,2.5058 -8.8719,4.6976 -10.1293,4.6723 -1.3572,-0.0275 -5.8303,-2.2566 -10.1651,-4.7826 -4.3577,-2.5393 -8.4991,-5.3322 -9.1068,-6.4355 -0.6568,-1.1931 -0.9641,-6.1806 -0.944,-11.1937 0.0205,-5.0428 0.3691,-10.0262 1.0228,-11.107 0.7027,-1.1619 4.8682,-3.9209 9.2208,-6.4103 4.3812,-2.5058 8.8719,-4.6975 10.1293,-4.6723 1.3573,0.0275 5.8303,2.2566 10.1651,4.7826 4.3579,2.5393 8.4991,5.3322 9.1068,6.4355 0.6568,1.1931 0.9641,6.1807 0.944,11.1937" /><path
         inkscape:connector-curvature="0"
         id="path3578"
         style="fill:#564a4c;fill-opacity:1;fill-rule:nonzero;stroke:none"
         d="m 55.9763,61.6221 2.8967,-0.6336 c 0.3289,-0.0708 0.5378,-0.3951 0.4669,-0.7239 -0.0524,-0.2435 -0.2438,-0.421 -0.4731,-0.4683 l -2.8905,-0.6319 -0.6332,-2.8967 c -0.0709,-0.3288 -0.3952,-0.5377 -0.724,-0.4668 -0.2435,0.0524 -0.4212,0.2437 -0.4683,0.4731 l -0.6321,2.8904 -2.8967,0.6333 c -0.3289,0.0709 -0.5378,0.3952 -0.4669,0.724 0.0524,0.2435 0.2438,0.4212 0.4731,0.4683 l 2.8905,0.6321 0.6335,2.8967 c 0.0709,0.3288 0.3952,0.5377 0.724,0.4669 0.2435,-0.0525 0.4209,-0.2438 0.4683,-0.4731 l 0.6318,-2.8905 z" /><path
         inkscape:connector-curvature="0"
         id="path3580"
         style="fill:#564a4c;fill-opacity:1;fill-rule:nonzero;stroke:none"
         d="m 30.9892,68.8266 1.5596,-0.341 c 0.1772,-0.0383 0.2897,-0.2129 0.2515,-0.3898 -0.0284,-0.1312 -0.1313,-0.2267 -0.2549,-0.2522 l -1.5562,-0.3402 -0.341,-1.5596 c -0.0383,-0.1772 -0.2129,-0.2894 -0.3898,-0.2515 -0.1309,0.0284 -0.2267,0.1313 -0.252,0.2549 l -0.3404,1.5562 -1.5596,0.341 c -0.1772,0.0383 -0.2895,0.2129 -0.2515,0.3898 0.0284,0.1309 0.1313,0.2267 0.2549,0.252 l 1.5562,0.3404 0.341,1.5596 c 0.0383,0.1772 0.2129,0.2897 0.3898,0.2515 0.1312,-0.0284 0.2267,-0.1313 0.2522,-0.2549 l 0.3402,-1.5562 z" /><path
         inkscape:connector-curvature="0"
         id="path3582"
         style="fill:#564a4c;fill-opacity:1;fill-rule:nonzero;stroke:none"
         d="m 64.6685,69.2994 1.5596,-0.341 c 0.1772,-0.0382 0.2897,-0.2129 0.2514,-0.3897 -0.0283,-0.1313 -0.1312,-0.2268 -0.2548,-0.2523 l -1.5562,-0.3402 -0.341,-1.5596 c -0.0383,-0.1772 -0.2129,-0.2894 -0.3898,-0.2514 -0.131,0.0283 -0.2268,0.1312 -0.252,0.2548 l -0.3404,1.5562 -1.5597,0.341 c -0.1771,0.0383 -0.2894,0.2129 -0.2514,0.3898 0.0284,0.131 0.1312,0.2268 0.2548,0.252 l 1.5563,0.3404 0.341,1.5597 c 0.0382,0.1771 0.2128,0.2897 0.3897,0.2514 0.1313,-0.0284 0.2268,-0.1313 0.2523,-0.2548 l 0.3402,-1.5563 z" /><path
         inkscape:connector-curvature="0"
         id="path3584"
         style="fill:#564a4c;fill-opacity:1;fill-rule:nonzero;stroke:none"
         d="m 32.8263,57.937 1.3366,-0.2922 c 0.1519,-0.0326 0.2483,-0.1823 0.2154,-0.3342 -0.0241,-0.1123 -0.1125,-0.1942 -0.2183,-0.216 l -1.3337,-0.2917 -0.2922,-1.3368 c -0.0329,-0.1517 -0.1826,-0.2481 -0.3342,-0.2155 -0.1126,0.0244 -0.1945,0.1126 -0.216,0.2186 l -0.2917,1.3337 -1.3368,0.2922 c -0.152,0.0329 -0.2483,0.1826 -0.2155,0.3343 0.0241,0.1122 0.1126,0.1944 0.2183,0.216 l 1.334,0.2916 0.2922,1.3369 c 0.0326,0.1519 0.1823,0.2483 0.334,0.2154 0.1125,-0.0241 0.1944,-0.1125 0.2162,-0.2183 l 0.2917,-1.334 z" /><path
         inkscape:connector-curvature="0"
         id="path3586"
         style="fill:#564a4c;fill-opacity:1;fill-rule:evenodd;stroke:none"
         d="m 76.7812,49.195 2.1331,0 0,-0.002 c 0.3934,0 0.7237,-0.3064 0.7469,-0.7041 0.1602,-2.6615 -0.6117,-4.4331 -1.6586,-5.2798 l -2e-4,3e-4 c -0.512,-0.4136 -1.0888,-0.6203 -1.6711,-0.6203 -0.5856,0 -1.1644,0.207 -1.6747,0.6197 l 0.0014,0.0017 -0.0014,0.0011 c -1.0375,0.8399 -1.8048,2.5923 -1.6582,5.2231 l -3e-4,0.0102 c 0,0.4142 0.3359,0.7501 0.75,0.7501 l 3.0331,0 z" /><path
         inkscape:connector-curvature="0"
         id="path3588"
         style="fill:#564a4c;fill-opacity:1;fill-rule:nonzero;stroke:none"
         d="m 75.6369,48.6692 c 0,-0.4142 -0.336,-0.7501 -0.7501,-0.7501 -0.4141,0 -0.75,0.3359 -0.75,0.7501 l 0,2.2453 c 0,0.4141 0.3359,0.75 0.75,0.75 0.4141,0 0.7501,-0.3359 0.7501,-0.75 l 0,-2.2453 z" /><path
         inkscape:connector-curvature="0"
         id="path3590"
         style="fill:#564a4c;fill-opacity:1;fill-rule:nonzero;stroke:none"
         d="m 78.5027,48.6692 c 0,-0.4142 -0.3359,-0.7501 -0.7501,-0.7501 -0.4141,0 -0.75,0.3359 -0.75,0.7501 l 0,2.2453 c 0,0.4141 0.3359,0.75 0.75,0.75 0.4142,0 0.7501,-0.3359 0.7501,-0.75 l 0,-2.2453 z" /><path
         inkscape:connector-curvature="0"
         id="path3592"
         style="fill:#ffffff;fill-opacity:1;fill-rule:evenodd;stroke:none"
         d="m 19.1789,51.9324 c 0.5295,0.4649 1.1928,0.8291 2.0129,1.0171 0.1055,0.0246 0.2367,0.0493 0.3952,0.0725 0.1338,0.0205 0.271,0.0363 0.4113,0.048 3.7893,0.303 4.5184,-3.066 4.6006,-3.528 0.0448,-0.4695 0.413,-0.8504 0.8847,-0.883 0.2477,-0.017 0.4901,-0.0624 0.7242,-0.1319 0.2387,-0.0702 0.459,-0.1635 0.658,-0.2749 0.4943,-0.2789 0.8974,-0.686 1.1588,-1.1784 0.2469,-0.466 0.3696,-1.017 0.3248,-1.6191 -0.0456,-0.6151 -0.2035,-0.9961 -0.4717,-1.211 -0.32,-0.2557 -0.8453,-0.3776 -1.5508,-0.4291 -0.4655,-0.0341 -4.4167,-0.0718 -8.0328,-0.0774 -2.7099,-0.0051 -5.2367,0.0082 -5.9706,0.0538 -0.3804,0.0236 -0.7152,0.1072 -0.9879,0.2387 -0.2384,0.1154 -0.4246,0.2653 -0.5411,0.436 -0.0888,0.1306 -0.1341,0.2792 -0.1251,0.4379 0.0069,0.1157 0.0392,0.2415 0.0998,0.3756 0.0998,0.2197 0.239,0.3779 0.3918,0.4927 0.2177,0.1638 0.4728,0.2534 0.6894,0.3024 0.3787,0.063 0.6979,0.3606 0.7786,0.7713 0.1849,0.9168 0.5015,1.5126 0.8697,1.8896 0.4244,0.4348 0.94,0.5839 1.3813,0.608 0.3745,-0.009 0.7356,0.2112 0.8963,0.5865 0.3124,0.7331 0.7691,1.4434 1.4026,1.9996 l -0.002,0.0023 0.002,8e-4 z" /><path
         inkscape:connector-curvature="0"
         id="path3594"
         style="fill:#564a4c;fill-opacity:1;fill-rule:nonzero;stroke:none"
         d="m 18.7095,52.5146 c 0.3144,0.2727 0.669,0.5157 1.0647,0.7155 0.377,0.1911 0.7929,0.3439 1.2481,0.4482 l -3e-4,5e-4 c 0.0471,0.0111 0.1202,0.0258 0.2177,0.0437 0.0941,0.0173 0.1741,0.0309 0.2359,0.04 l 0,5e-4 c 0.068,0.0102 0.1448,0.0207 0.2296,0.0304 0.087,0.0099 0.1638,0.0178 0.2316,0.0235 l 0.028,0.0017 c 2.1963,0.1675 3.5243,-0.7447 4.3155,-1.7688 0.7736,-1.0012 1.0094,-2.1116 1.0567,-2.3789 0.0051,-0.0286 0.0083,-0.0572 0.01,-0.0856 0.0096,-0.0476 0.0331,-0.0901 0.0652,-0.1222 0.0326,-0.0325 0.0754,-0.0541 0.1213,-0.0572 0.1411,-0.0096 0.2902,-0.0292 0.445,-0.057 l 0.0029,-6e-4 0,6e-4 c 0.1519,-0.0278 0.2982,-0.0629 0.4373,-0.104 0.148,-0.0437 0.2875,-0.093 0.4167,-0.1471 0.1389,-0.0579 0.2719,-0.1228 0.3966,-0.1925 0.0204,-0.0113 0.0403,-0.0238 0.059,-0.0369 0.2888,-0.1698 0.5499,-0.3724 0.7767,-0.6029 0.2469,-0.2509 0.456,-0.534 0.6188,-0.8402 l 0.0226,-0.0465 c 0.1489,-0.2902 0.26,-0.6032 0.3257,-0.9326 0.0049,-0.0241 0.0085,-0.0482 0.0108,-0.072 0.057,-0.3143 0.0751,-0.6403 0.0507,-0.9722 l -2e-4,-0.0029 2e-4,0 C 31.0677,45.0142 31,44.6919 30.894,44.4237 l -0.0188,-0.0431 c -0.1272,-0.3033 -0.3044,-0.54 -0.5289,-0.7197 l -0.0034,-0.0025 6e-4,-6e-4 C 30.1,43.4633 29.7969,43.3244 29.4372,43.2292 29.1288,43.1473 28.7753,43.0965 28.3796,43.0676 28.1529,43.0512 27.0349,43.033 25.5118,43.0183 c -1.4989,-0.0142 -3.3999,-0.0252 -5.2177,-0.0281 -1.4499,-0.0028 -2.848,-2e-4 -3.9458,0.0097 -0.9848,0.0088 -1.7317,0.0235 -2.0688,0.0442 -0.2307,0.0142 -0.4529,0.0479 -0.661,0.0981 l -0.0312,0.0082 c -0.2112,0.053 -0.4051,0.1225 -0.5768,0.2055 -0.1701,0.0822 -0.3246,0.1797 -0.4598,0.2883 -0.1488,0.1196 -0.2753,0.2543 -0.3742,0.3997 -0.0125,0.0181 -0.0238,0.0368 -0.0346,0.0555 -0.0748,0.1199 -0.1315,0.2449 -0.1681,0.3728 -0.0425,0.1497 -0.0606,0.3078 -0.0513,0.4725 0.0063,0.1117 0.0244,0.2245 0.0539,0.3354 l 0.0119,0.0402 c 0.0258,0.0899 0.0587,0.1792 0.0983,0.2665 0.0769,0.1695 0.1724,0.3192 0.2787,0.4498 0.1057,0.1299 0.2236,0.2398 0.3475,0.3328 0.1661,0.125 0.3388,0.2186 0.506,0.288 0.1576,0.0652 0.3186,0.1126 0.4674,0.1463 l 0.0411,0.0079 0,9e-4 c 0.0389,0.0062 0.0749,0.0255 0.1027,0.053 0.0309,0.0306 0.0541,0.0734 0.0637,0.1236 0.0046,0.0232 0.0102,0.0462 0.0168,0.0686 0.0989,0.4717 0.2304,0.8694 0.3835,1.2027 0.1905,0.4136 0.4192,0.7407 0.6687,0.9961 0.267,0.2733 0.5593,0.4652 0.8541,0.595 0.3475,0.1528 0.7015,0.2214 1.0252,0.2387 0.0233,0.0011 0.0465,0.0014 0.0695,3e-4 0.0315,0.0022 0.0643,0.0138 0.0938,0.0331 0.0355,0.0233 0.0652,0.0573 0.0828,0.099 0.1814,0.426 0.4099,0.8492 0.6894,1.248 l 0.0014,0.002 -0.0014,9e-4 c 0.2421,0.345 0.5258,0.6726 0.8541,0.9689 0.0167,0.0178 0.0345,0.0351 0.0533,0.0516 l 0.0246,0.0206 z m 1.7382,-0.6202 c -0.2738,-0.138 -0.519,-0.3041 -0.7361,-0.4892 L 19.671,51.3669 c -0.252,-0.2211 -0.4745,-0.4776 -0.669,-0.7546 l -0.0014,9e-4 c -0.2134,-0.3048 -0.3912,-0.6364 -0.536,-0.9763 -0.14,-0.3274 -0.3668,-0.5885 -0.6389,-0.7668 -0.2707,-0.1768 -0.5902,-0.2732 -0.9187,-0.2744 -0.1545,-0.0096 -0.3226,-0.0428 -0.487,-0.115 -0.1344,-0.0593 -0.2668,-0.1455 -0.3853,-0.2668 -0.136,-0.1392 -0.2658,-0.3288 -0.3818,-0.5805 -0.1114,-0.2421 -0.2075,-0.5335 -0.2806,-0.8805 l -0.008,-0.0507 c -0.0691,-0.354 -0.2423,-0.6619 -0.4799,-0.8969 -0.2443,-0.2423 -0.5564,-0.4067 -0.8966,-0.4666 -0.0601,-0.015 -0.1264,-0.036 -0.1947,-0.064 -0.0683,-0.0284 -0.1332,-0.0621 -0.184,-0.1004 -0.0286,-0.0215 -0.0575,-0.0487 -0.0839,-0.081 -0.0258,-0.0318 -0.051,-0.0723 -0.0734,-0.1216 -0.0102,-0.0227 -0.0184,-0.0426 -0.0238,-0.059 l -0.0048,-0.0193 -0.004,-0.0153 c 0.0167,-0.0224 0.04,-0.0456 0.0686,-0.0683 0.0462,-0.0371 0.1046,-0.0734 0.1729,-0.1063 0.0862,-0.0414 0.1806,-0.0763 0.2804,-0.1021 L 13.97,44.5952 c 0.1188,-0.0286 0.2523,-0.0485 0.3974,-0.0572 0.3461,-0.0213 1.063,-0.0358 1.9928,-0.0443 1.0964,-0.0096 2.4899,-0.0122 3.9339,-0.0096 1.8085,0.0025 3.7054,0.0136 5.2058,0.0281 1.4581,0.0138 2.5379,0.032 2.7743,0.0493 0.3092,0.0224 0.5723,0.0589 0.7821,0.1145 0.1587,0.042 0.2792,0.0927 0.3557,0.1536 l 3e-4,-5e-4 c 0.0272,0.0232 0.053,0.0623 0.0777,0.1185 l 0.0099,0.0266 c 0.0513,0.1295 0.0856,0.3067 0.1026,0.536 l 3e-4,0 c 0.015,0.2089 0.0062,0.4045 -0.0247,0.5845 -0.0057,0.019 -0.0099,0.0386 -0.0139,0.0584 -0.0391,0.1956 -0.1023,0.3768 -0.1854,0.5406 l -0.0161,0.0286 c -0.0978,0.184 -0.22,0.3507 -0.3614,0.4944 -0.1367,0.1389 -0.2897,0.2596 -0.4556,0.3586 l -0.0462,0.0238 c -0.0759,0.0425 -0.1562,0.0816 -0.2384,0.1159 -0.0878,0.0369 -0.1766,0.0686 -0.2642,0.0944 -0.0972,0.0286 -0.1927,0.0522 -0.2848,0.0689 l 0,3e-4 c -0.0831,0.0147 -0.1764,0.0263 -0.2784,0.0334 -0.4218,0.0289 -0.7968,0.2121 -1.076,0.491 -0.2634,0.2622 -0.442,0.6126 -0.4947,0.9989 l -0.0022,0.0111 c -0.0343,0.1941 -0.2058,1.0009 -0.7637,1.7229 -0.5355,0.693 -1.4562,1.3082 -3.0234,1.1883 L 22.0598,52.323 c -0.0726,-0.0059 -0.1352,-0.0122 -0.1846,-0.0178 -0.0518,-0.006 -0.1114,-0.0142 -0.1768,-0.0241 l 0,5e-4 -0.0032,-5e-4 c -0.0918,-0.0134 -0.153,-0.0233 -0.1862,-0.0292 -0.0377,-0.0068 -0.0867,-0.0176 -0.1474,-0.0318 l -3e-4,6e-4 -0.0025,-6e-4 c -0.3351,-0.0765 -0.6387,-0.1879 -0.9111,-0.3257" /><path
         inkscape:connector-curvature="0"
         id="path3596"
         style="fill:#564a4c;fill-opacity:1;fill-rule:nonzero;stroke:none"
         d="m 75.0679,44.443 c -0.1082,0.3977 0.1267,0.8084 0.5244,0.9167 0.3977,0.1083 0.8085,-0.1267 0.9168,-0.5244 0.0031,-0.0122 1.1763,-4.2092 -0.4298,-6.6186 L 76.0487,38.1742 C 75.3678,37.1806 74.37,36.631 73.4051,36.0995 c -1.1075,-0.6106 -2.1602,-1.1908 -2.1602,-2.4276 0,-0.756 -0.1818,-1.6106 -0.5199,-2.4483 -0.4366,-1.0822 -1.143,-2.1503 -2.0605,-2.9506 -0.955,-0.8325 -2.1362,-1.3821 -3.4858,-1.3821 -0.6491,0 -1.3348,0.1295 -2.0489,0.4175 -0.6134,0.2475 -1.1724,0.5669 -1.6792,0.9335 -0.559,0.4042 -1.0585,0.8685 -1.501,1.3592 -0.2763,0.3072 -0.2517,0.7809 0.0556,1.0573 0.3073,0.2764 0.7809,0.2517 1.0573,-0.0556 0.3753,-0.4161 0.7974,-0.8087 1.2668,-1.1483 0.4159,-0.3007 0.8688,-0.5607 1.3573,-0.7577 0.5229,-0.2109 1.0224,-0.3058 1.4921,-0.3058 0.9564,0 1.806,0.4005 2.5016,1.0068 0.733,0.6392 1.3014,1.5027 1.6563,2.3825 0.2653,0.6577 0.4082,1.3179 0.4082,1.8916 0,2.1198 1.4326,2.9092 2.9398,3.74 0.8084,0.4454 1.6449,0.9063 2.1237,1.5991 l 0.0232,0.0374 c 1.228,1.8419 0.239,5.3847 0.2364,5.3946" /></g></g></svg>