<svg xmlns="http://www.w3.org/2000/svg" viewBox="0 0 170 170"><g transform="translate(0,-882.36216)"><g style="fill:#e8e9e7;fill-rule:evenodd"><path d="m84.999999 882.36215c46.943941 0 85 38.05606 85 85 0 46.94395-38.05606 84.99995-85 84.99995-46.943936 0-84.999999-38.056-84.999999-84.99995 0-46.94394 38.05606-85 84.999999-85"/><path d="m124.81147 948.90641c1.13958-2.01291 1.14083-3.65915.00083-5.67289-2.00665-3.53998-14.45993-10.9912-18.23241-13.13285-4.02873-2.28541-16.98533-9.23829-21.346142-9.32329-4.15248-.0804-17.022 6.6683-20.810731 8.76829-4.03123 2.23374-16.758668 9.68162-19.00157 13.28868-1.452493 2.33624-1.45166 4.13623 0 6.47247.119166.1925.274165.38.420414.55125l2.069573 2.41082-2.724986 1.81166c-.524581.92499-.897496 1.85791-.846663 2.9279.05292 1.07625.517081 2.03416 1.081662 2.94457.119166.19125.274165.37917.420414.55166l2.069573 2.41041-2.724986 1.81082c-.524581.92458-.897496 1.85916-.846663 2.92791.05292 1.07707.517081 2.03499 1.081662 2.94456.119166.19125.271665.37792.418331.54917l2.080823 2.41415-2.734153 1.81291c-.525414.925-.897496 1.85666-.846663 2.92582.05292 1.07708.517081 2.03499 1.081662 2.9454.119166.19125.274165.37917.420414.55167l2.069573 2.4104-2.724986 1.81083c-.524581.92457-.897496 1.85915-.846663 2.9279.05292 1.07708.515831 2.03499 1.081662 2.94332 2.244155 3.60706 14.969093 11.05495 19.00157 13.28955 3.788731 2.0991 16.658251 8.8478 20.810731 8.7674 4.360812-.085 17.317412-7.0383 21.346142-9.3237 3.77248-2.14 16.22451-9.59285 18.23241-13.13367.52458-.92458.89542-1.85791.84458-2.9254-.0529-1.07749-.51624-2.03499-1.10916-2.97999l-2.17207-1.83665 1.86166-2.13541c.20083-.23166.42416-.50208.57499-.76666.52333-.92458.89542-1.85916.84458-2.92665-.0529-1.07708-.51624-2.03499-1.11499-2.98457l-2.15916-1.83541 1.84999-2.12832c.20167-.23292.4275-.50542.57958-.7725.52333-.925.89542-1.85916.84458-2.92665-.0529-1.0775-.51624-2.03499-1.10916-2.97999l-2.17207-1.83541 1.86166-2.13665c.20083-.23167.42416-.50083.57499-.76666.52333-.92458.89542-1.85916.84458-2.92666-.0529-1.07707-.51624-2.03499-1.10916-2.97998l-2.17207-1.83666 1.86166-2.13541c.20083-.23124.42416-.50083.57416-.76749"/></g><path d="m121.78899 987.24955c-.88-1.41749-.41-3.26248 1.04999-4.11623 1.45958-.85499 3.3579-.39791 4.23748 1.01917.92249 1.48457 1.42916 2.8204 1.49916 4.28039.0708 1.48458-.325 2.87374-1.20375 4.4254-1.83082 3.2279-10.37369 9.13952-19.31782 14.21452-9.08162 5.1533-18.899905 9.6345-22.761136 9.7099-3.785398.073-13.322851-4.1562-22.316973-9.1395-9.152039-5.0725-18.06574-11.09286-20.05365-14.28534-.922495-1.48458-1.427909-2.82166-1.498742-4.27998-.07083-1.48833.325831-2.87499 1.203327-4.42581.819996-1.45041 2.696653-1.97958 4.189563-1.18458 1.494159.79624 2.039573 2.61957 1.219994 4.06998-.319999.56583-.468748.97458-.455831 1.28166.01542.33541.230415.80083.63083 1.44333 1.443326 2.31957 9.41912 7.52454 17.807412 12.17364 8.209543 4.5496 16.517419 8.4175 19.15366 8.3654 2.77332-.054 11.408278-4.1704 19.766982-8.9124 8.15663-4.62751 15.75451-9.6779 17.02284-11.91498.32041-.56666.47041-.97541.45625-1.28249-.0154-.33542-.23042-.80083-.62958-1.44208" style="fill:#45363b"/><path d="m124.43314 943.01602c.46083.73833.74916 1.61708.96624 2.45082l.19959.77-.22667.76416c-.17708.59291-.39791 1.18833-.70375 1.72916-3.13123 5.52289-32.863168 22.24739-39.434802 22.37614-6.487468.1275-36.26524-16.51909-39.665639-21.98156-.460831-.73916-.749162-1.61707-.966245-2.45082l-.199582-.77125.226665-.76291c.177083-.59291.397915-1.18916.704164-1.73041 3.130818-5.52164 32.862755-22.24697 39.434389-22.37572 6.487468-.1275 36.26524 16.51867 39.66564 21.98239" style="fill:#fff;fill-rule:evenodd"/><g style="fill:#45363b"><path d="m121.78899 976.60294c-.88-1.41708-.41-3.26082 1.04999-4.11623 1.45958-.85375 3.3579-.39667 4.23748 1.02083.92249 1.48457 1.42916 2.8204 1.49916 4.27873.0708 1.48582-.325 2.87498-1.20375 4.42581-1.83082 3.2279-10.37369 9.14037-19.31782 14.21576-9.08162 5.15286-18.899905 9.63286-22.761136 9.70956-3.785398.072-13.322851-4.1563-22.316973-9.14039-9.152039-5.0729-18.06574-11.09162-20.05365-14.28535-.922495-1.48458-1.427909-2.8204-1.498742-4.27915-.07083-1.48916.325831-2.87582 1.203327-4.42539.819996-1.45041 2.696653-1.98083 4.189563-1.185 1.494159.795 2.039573 2.61874 1.219994 4.06915-.319999.56666-.468748.97416-.455831 1.28249.01542.33417.230415.79958.63083 1.44208 1.443326 2.32082 9.41912 7.52496 17.807412 12.17494 8.209543 4.54956 16.517419 8.41662 19.15366 8.36582 2.77332-.055 11.408278-4.17042 19.766982-8.9129 8.15663-4.62873 15.75451-9.67787 17.02284-11.91577.32041-.56584.47041-.97458.45625-1.28291-.0154-.33417-.23042-.79958-.62958-1.44208"/><path d="m121.78899 965.95674c-.88-1.41749-.41-3.26248 1.04999-4.11623 1.45958-.85499 3.3579-.39791 4.23748 1.02041.92249 1.48333 1.42916 2.81916 1.49916 4.27915.0708 1.48582-.325 2.87498-1.20375 4.42539-1.83082 3.2279-10.37369 9.13954-19.31782 14.21452-9.08162 5.15331-18.899905 9.63453-22.761136 9.70995-3.785398.0733-13.322851-4.15498-22.316973-9.13954-9.152039-5.07247-18.06574-11.09161-20.05365-14.28535-.922495-1.48457-1.427909-2.82165-1.498742-4.27997-.07083-1.48833.325831-2.87499 1.203327-4.42582.819996-1.45041 2.696653-1.97957 4.189563-1.18457 1.494159.79624 2.039573 2.61957 1.219994 4.06998-.319999.56583-.468748.97457-.455831 1.28166.01542.33541.230415.80083.63083 1.44332 1.443326 2.32082 9.41912 7.52455 17.807412 12.17369 8.209543 4.54956 16.517419 8.41746 19.15366 8.36663 2.77332-.0554 11.408278-4.1704 19.766982-8.91371 8.15663-4.62747 15.75451-9.67787 17.02284-11.91494.32041-.56666.47041-.97541.45625-1.28249-.0154-.33542-.23042-.80083-.62958-1.44208"/><path d="m121.53732 944.15935c-2.06707-2.45416-9.09579-7.06747-16.59784-11.32411-8.358704-4.74206-16.993662-8.85829-19.766982-8.91288-2.636237-.0517-10.944113 3.81624-19.15366 8.3658-8.229959 4.56039-16.06075 9.65537-17.717829 12.03785-.473748 1.12458-.334165 2.35749 0 3.4879 1.657075 2.38333 9.48787 7.47747 17.717829 12.03744 8.209543 4.54957 16.517419 8.41788 19.15366 8.36705 2.77332-.0554 11.408278-4.1704 19.766982-8.91371 7.50205-4.25665 14.53077-8.86996 16.59784-11.32453.4725-.94708.37666-2.84748 0-3.82081m5.83455 6.11455c-1.83082 3.2279-10.37369 9.13954-19.31782 14.21451-9.08162 5.15331-18.899905 9.63412-22.761136 9.70996-3.785398.0733-13.322851-4.15498-22.316973-9.13954-9.152039-5.07248-18.06574-11.09161-20.05365-14.28535-2.01499-3.24207-2.01499-6.16413 0-9.4062 1.987907-3.19374 10.901613-9.21246 20.05365-14.28535 8.994122-4.98414 18.531575-9.21245 22.316973-9.14037 3.861231.0767 13.679517 4.55664 22.761136 9.70954 8.94413 5.07539 17.487 10.98786 19.31782 14.21451 1.62291 2.8679 1.62291 5.54081 0 8.40829"/><path d="m121.78899 955.31013c-.88-1.41708-.41-3.26082 1.04999-4.11623 1.45958-.85375 3.3579-.39667 4.23748 1.02083.92249 1.48457 1.42916 2.8204 1.49916 4.27872.0708 1.48583-.325 2.87499-1.20375 4.42707-1.83082 3.22665-10.37369 9.13912-19.31782 14.21451-9.08162 5.15289-18.899905 9.63287-22.761136 9.70953-3.785398.0721-13.322851-4.15622-22.316973-9.14037-9.152039-5.07289-18.06574-11.09161-20.05365-14.28534-.922495-1.48333-1.427909-2.82041-1.498742-4.27915-.07083-1.48916.325831-2.87582 1.203327-4.42539.819996-1.45041 2.696653-1.98083 4.189563-1.185 1.494159.795 2.039573 2.61874 1.219994 4.06915-.319999.56666-.468748.97541-.455831 1.28249.01542.33417.230415.79958.63083 1.44208 1.443326 2.32082 9.41912 7.52496 17.807412 12.17494 8.209543 4.54956 16.517419 8.41662 19.15366 8.36579 2.77332-.0546 11.408278-4.1704 19.766982-8.91287 8.15663-4.62748 15.75451-9.67787 17.02284-11.91578.32041-.56583.47041-.97458.45625-1.28291-.0154-.33416-.23042-.79958-.62958-1.44207"/><path d="m104.16907 946.24184c1.47999-.81625 3.36165-.31083 4.20123 1.12541.84125 1.43749.32125 3.26582-1.15874 4.08081l-20.606569 11.33036c-.464997.25625-.969578.3825-1.470409.39083-.974162.41459-2.14374.32709-3.063735-.32708-1.372493-.97708-1.669992-2.85248-.664997-4.18581l9.774952-12.90827-23.444885 8.56162c-1.593325.5825-3.372066-.19958-3.972064-1.7479-.419164-1.08291-.151249-2.25458.594164-3.05915l-.0012-.0001 8.930373-9.63621-3.33415 1.48916c-1.546243.685-3.374567.0237-4.079564-1.47749-.706246-1.50124-.025-3.27748 1.521243-3.96248l15.502007-6.92497c.764996-.34 1.602492-.34833 2.336239-.0875.60333.0733 1.19041.32042 1.677075.74417 1.265827 1.10666 1.367493 3.00248.227915 4.23331l-9.729952 10.4987 21.325729-7.7883c.942495-.3425 2.038738-.2325 2.910398.3875 1.3725.97666 1.67 2.85332.66375 4.18706l-7.917044 10.4537 9.778284-5.37622z"/></g></g></svg>