<svg xmlns="http://www.w3.org/2000/svg" viewBox="0 0 400 400.00001" height="400"><path d="m200 .000005c110.45689 0 200 89.5431 200 200 0 110.4569-89.54311 200-200 200-110.4569 0-200-89.5431-200-200 0-110.45689 89.5431-200 200-200" style="fill:#e6e6e6;fill-rule:evenodd"/><g transform="matrix(4.1666753,0,0,-4.1666753,0,400)"><path d="m67.8523 55.3286c.0366-.0856.0701-.1723.1018-.2597.0873-.2415.1548-.4745.2103-.6939l.0961-.3801c.044-.1749.0315-.3509-.0263-.5085l-.0927-.3195c-.0485-.1681-.1043-.3393-.1692-.5074-.0366-.0944-.0752-.1871-.1166-.2772.0332-.0786.0644-.1582.0942-.2387.089-.2446.1581-.4819.2145-.7064l.0961-.3798c.044-.1755.0309-.351-.0266-.5089l-.0927-.3194-.0111-.0352c-.0479-.1635-.1003-.3226-.1576-.4717-.0365-.0946-.0754-.1876-.1165-.2772.0332-.0785.0641-.1587.0939-.239.089-.244.1581-.4816.2145-.7061l.0961-.3795c.044-.1752.0309-.3515-.0266-.5088l-.0927-.3198-.0111-.0354c-.0479-.1633-.1003-.3226-.1576-.4717-.0365-.0947-.0754-.1874-.1165-.2775.0332-.0785.0641-.1585.0939-.2387.089-.2441.1581-.4816.2145-.7061l.0961-.3798c.044-.1752.0309-.351-.0266-.5089l-.0913-.3152.002-.0005c-.0448-.1562-.1006-.3257-.1721-.5109-.0365-.0946-.0754-.1873-.1165-.2772.0332-.0788.0641-.1587.0939-.2389.089-.2441.1581-.4816.2145-.7059l.0961-.3798c.044-.1755.0309-.3509-.0266-.5088l-.0913-.3152.002-.0006c-.0448-.1565-.1006-.3257-.1721-.5108-.0365-.095-.0754-.1877-.1165-.2778.0332-.0785.0641-.1582.0939-.2384.089-.2443.1581-.4819.2145-.7064l.0961-.3798c.044-.1749.0315-.351-.0263-.5086l-.0927-.3197c-.0485-.1681-.1043-.339-.1692-.5071-.0706-.1826-.1497-.3595-.2393-.5222-.8201-1.4899-4.8158-4.3152-9.0184-6.77-4.2755-2.4981-8.8572-4.6681-10.5976-4.7029-1.6983-.0343-6.141 2.0126-10.3677 4.424-4.3059 2.4568-8.4785 5.3393-9.3765 6.8244-.138.2285-.2511.4808-.3458.7393-.0893.2438-.1585.4816-.2149.7064l-.0961.3798c-.0436.1749-.0311.351.0264.5086l.0927.3197c.0487.1684.1043.3396.1695.5068.036.0944.0748.1871.1159.277-.0331.0791-.0643.1587-.0941.2395-.089.2438-.1581.4813-.2143.7058l-.0961.3799c-.0436.1752-.0311.3512.0264.5085l.0927.3198c.0487.1678.1043.339.1692.5074.0363.0944.0748.1868.1162.2766-.0331.0786-.0643.1585-.0941.2393-.089.2438-.1581.4813-.2143.7061l-.0961.3798c-.0436.1749-.0311.351.0264.5086l.0927.3197c.0487.1678.1043.3388.1692.5071.0363.0947.0751.188.1165.2775-.0337.0794-.0649.1591-.0944.2387-.089.2438-.1581.4819-.2143.7061l-.0961.3799c-.0436.1752-.0311.3512.0264.5085l.0927.3198c.0487.1678.1043.3384.1692.5074.0363.0944.0751.1873.1165.2775-.0337.0791-.0649.1584-.0944.2381-.089.2438-.1581.4819-.2143.7064l-.0961.3798c-.0436.1749-.0311.3509.0264.5086l.0927.3197c.0487.1678.1043.3385.1692.5071.0363.0947.0751.1874.1162.2772-.0331.0789-.064.1588-.0935.239-.0893.2438-.1585.4816-.2149.7061l-.0961.3799c-.0436.1751-.0311.3512.0264.5085l.0927.3197c.0487.1684.1043.3396.1695.5069.0374.0975.0771.1927.1199.2857-.0351.0819-.0675.1644-.0975.2469-.0893.2438-.1585.4816-.2149.7064l-.0961.3798c-.0436.1749-.0311.351.0264.5086l.0927.3197c.0487.1684.1043.3393.1695.5069.0706.1834.1497.36.239.5224.82 1.4899 4.816 4.3152 9.0184 6.77 4.2755 2.4981 8.8571 4.6681 10.5976 4.7029 1.6982.0343 6.1413-2.0126 10.368-4.424 4.3055-2.4568 8.4781-5.3393 9.3761-6.8244.1381-.2285.2515-.4808.3462-.7393.089-.2446.1581-.4819.2145-.7064l.0961-.3798c.044-.1749.0315-.3509-.0263-.5086l-.0927-.3197c-.0491-.1687-.1043-.3396-.1692-.5068-.0377-.0975-.0774-.1928-.12-.2852" style="fill:#f8f8f8"/><path d="m68.2424 58.405c.2361-.3906.3841-.8543.4955-1.2951l.1029-.4076-.1168-.4034c-.0907-.3132-.2038-.6282-.3614-.9142-1.607-2.9185-16.8693-11.7575-20.2428-11.8258-3.3304-.0675-18.6165 8.7304-20.3621 11.6175-.2361.3909-.3841.8546-.4958 1.2954l-.1029.4073.1171.4034c.0907.3135.2038.6282.3611.9145 1.607 2.9185 16.8696 11.7575 20.2431 11.8258 3.3304.0675 18.6165-8.7304 20.3621-11.6178" style="fill:#cec7c4;fill-rule:evenodd"/></g><path d="m281.35933 231.7859c.16292-.5325.4675-1.02417.8975-1.41042.20792-.4025.38626-.80667.54084-1.20792.21167-.54833.39708-1.12.5625-1.69167l.24792-.85625-.22667-.8975-.0367-.14667c-7.14459 6.8671-21.17504 16.38087-35.78632 24.91672-19.02171 11.11169-39.35092 20.76504-46.99718 20.91963-7.44835.15-27.15131-8.95127-45.9451-19.67338-15.67586-8.9446-30.93798-19.1292-38.12508-26.11088l-.0992.34125.22666.89791c.21376.84792.45834 1.69834.74084 2.47209.26333.72042.58083 1.42417.97084 2.07042 3.39667 5.6196 20.98212 17.55129 39.36008 28.03673 18.00003 10.27127 36.46091 18.99712 42.748 18.86962 6.54793-.1325 25.68172-9.40627 43.97134-20.09087 16.74087-9.77919 32.50965-20.58046 36.94966-26.43881zm-19.09045-65.5418c1.49542-.84917 3.39834-.32375 4.24751 1.17167.84916 1.495.32333 3.39792-1.17167 4.24709l-59.62929 33.75382c-1.03834.58917-6.4346 1.29417-7.47419-.0921-1.03083-1.37501-.75208-3.32626.62251-4.3571l33.2834-24.9063-44.04301 25.38339c-1.63584.93875-5.42501-.67-6.35085-1.89917-1.03708-1.375-.76416-3.33209.61042-4.36918l50.36344-37.94883-61.69596 35.52633c-1.75542 1.00667-5.67043-1.01209-6.55293-2.27334-.98375-1.40792-.63875-3.34959.76875-4.33376l53.73219-37.48799-64.11055 34.77507c-1.82583.99-5.80251-1.35584-6.64334-2.61376-.95709-1.42917-.57417-3.36375.855-4.32042l53.77428-35.90924-64.24722 31.99048c-1.9275.96-4.92043-1.18125-5.9446-2.58667-1.01083-1.38792-.70375-3.33418.68376-4.34543l48.20801-35.12716-23.57338 10.84003c-1.56292.71333-3.41126.025-4.12459-1.53751-.71334-1.56292-.0246-3.41125 1.53792-4.12459l44.85967-20.62796c1.41709-.64708 4.82126.22542 5.74252 1.49042 1.01083 1.38792.70375 3.33418-.68417 4.34543l-49.77385 36.26799 66.13097-32.92798c1.65-.82084 6.44876 1.6525 7.17043 2.73083.95667 1.42917.57417 3.36376-.855 4.32043l-42.81718 28.59214 50.95053-27.63672c1.26125-.68375 7.05793 2.3375 7.51751 2.99417.98375 1.40792.63917 3.34959-.76875 4.33334l-37.96925 26.49006 44.55135-25.6538c1.92542-1.10542 11.06919 3.67584 6.45834 7.15418l-42.97675 32.3834 50.90552-29.33756c3.16042-1.81417 8.06585 3.46417 4.50709 6.13376l-33.22465 24.86088 27.15006-15.36836zm24.74796-14.00461c.60001.99208 1.08417 2.06708 1.48334 3.15709l.0554.16333c.36042 1.005.64375 1.9925.88 2.93001l.42875 1.69875c.15708.62833.11208 1.26-.0946 1.82584l-.42875 1.47875c-.21125.73208-.45334 1.47417-.73459 2.20375-.20292.52709-.42375 1.04167-.6625 1.53542.20083.45001.385.91209.55625 1.37834.38625 1.05709.6875 2.09667.93542 3.08167l.42875 1.69834c.15708.62834.11125 1.26042-.0958 1.82625l-.4275 1.47751c-.21125.73208-.45334 1.47375-.73459 2.20375l-.0671.16209c-.18334.465-.37584.91416-.57875 1.33791.19458.43959.37291.88834.53958 1.34167.38625 1.05709.6875 2.09668.93542 3.08168l.42875 1.69833c.15708.62834.11125 1.26042-.0958 1.82584l-.4275 1.47792c-.21125.73209-.45334 1.47375-.73459 2.20376l-.0671.16166c-.18209.46542-.37584.91334-.57875 1.33709.19458.43958.37291.88833.53958 1.34167.38625 1.05708.6875 2.09667.93542 3.08167l.42875 1.69709c.15708.62833.11208 1.26042-.0946 1.82625l-.42875 1.47876c-.21125.73208-.45334 1.47375-.73459 2.20375-.19833.515-.41333 1.01834-.64583 1.50125.19458.43917.37291.88834.53958 1.34167.38625 1.05709.6875 2.09667.93542 3.08168l.42875 1.69833c.15708.62834.11125 1.26042-.0958 1.82584l-.4275 1.4775c-.21125.7325-.45334 1.47417-.73459 2.20417l-.0671.16167c-.18209.46542-.37584.91292-.57875 1.33709.19458.43958.37291.88833.53958 1.34167.38625 1.05708.6875 2.09667.93542 3.08167l.42875 1.69709c.15708.62833.11208 1.26042-.0946 1.82625l-.42875 1.47875c-.21125.73209-.45334 1.47376-.73459 2.20376-.19833.515-.41333 1.01792-.64583 1.5.19458.43833.37291.88834.53958 1.34167.38625 1.05709.6875 2.09667.93542 3.08167l.42875 1.69709c.15708.62833.11208 1.26042-.0946 1.82625l-.42875 1.47834c-.21125.7325-.45334 1.47417-.73459 2.20417-.30208.78417-.6425 1.54125-1.0275 2.24042-3.59751 6.53418-21.33421 19.05004-40.0205 29.9659-19.02171 11.11169-39.35092 20.76504-46.99718 20.91962-7.4496.15-27.15256-8.95126-45.94635-19.67462-19.15045-10.92669-37.68549-23.70713-41.6305-30.23381-.59167-.98042-1.07708-2.05876-1.48334-3.16918-.38625-1.05583-.6875-2.09417-.93666-3.08125l-.42876-1.69876c-.15708-.62833-.11083-1.26125.0958-1.82708l.42875-1.47751c.21125-.73125.45333-1.47292.73458-2.20292.19709-.51375.41209-1.01667.64584-1.5-.19458-.43792-.37292-.88792-.53959-1.34167-.38625-1.05583-.6875-2.09417-.93666-3.08126l-.42876-1.69875c-.15708-.62833-.11083-1.26125.0958-1.82709l.42875-1.4775c.21125-.73125.45333-1.47292.73458-2.20292.19709-.51375.41334-1.01792.64584-1.5-.19458-.43792-.37292-.88667-.53959-1.34042-.38625-1.05584-.6875-2.09417-.93666-3.08126l-.42876-1.69875c-.15708-.62959-.11083-1.26001.0958-1.82709l.42875-1.47625c.21125-.7325.45333-1.47417.73458-2.20417.19709-.51376.41334-1.01792.64584-1.50084-.19375-.43959-.37292-.88834-.53959-1.34209-.38625-1.05583-.6875-2.09375-.93666-3.08125l-.42876-1.69834c-.15708-.62833-.11083-1.26167.0958-1.8275l.42875-1.47751c.21125-.73083.45333-1.47292.73458-2.2025.19709-.51375.41334-1.01834.64584-1.5-.19458-.43834-.37292-.88709-.53959-1.34084-.38625-1.05584-.6875-2.09417-.93666-3.08126l-.42876-1.69875c-.15708-.62917-.11083-1.26.0958-1.82709l.42875-1.47625c.21125-.73209.45333-1.47417.73458-2.20376.19709-.51416.41209-1.01708.64584-1.5-.19458-.43958-.37292-.88833-.53959-1.34208-.38625-1.05584-.6875-2.09376-.93666-3.08126l-.42876-1.69834c-.15708-.62958-.11083-1.26042.0958-1.8275l.42875-1.47625c.21125-.73209.45333-1.47417.73458-2.20376.20167-.52708.42376-1.04208.66376-1.53542-.20084-.45125-.38626-.91333-.55751-1.37959-.38625-1.05583-.6875-2.09417-.93666-3.08167l-.42876-1.69709c-.15708-.62833-.11083-1.26166.0958-1.82708l.42875-1.47792c.21125-.73209.45333-1.47376.73458-2.20376.30125-.78291.64251-1.54 1.02626-2.24042 3.59667-6.53418 21.33546-19.05004 40.0205-29.96589 19.0217-11.11211 39.35216-20.76505 46.99843-20.91963 7.4496-.15 27.1538 8.95127 45.94634 19.67462 19.15046 10.92628 37.6855 23.70714 41.6305 30.23382zm-3.68875 20.76171c-7.14918 6.86584-21.1688 16.37253-35.76966 24.9013-19.02171 11.11169-39.35092 20.76504-46.99718 20.91962-7.44835.15-27.15131-8.95168-45.9451-19.67379-15.66378-8.93751-30.91423-19.11379-38.10716-26.09422l-.11708.40042.22666.89667c.21376.84792.45834 1.69834.74084 2.47209.26333.72167.58208 1.42667.97084 2.07167 3.39542 5.61834 20.98212 17.55087 39.36133 28.03672 18.00128 10.27002 36.45966 18.99588 42.74675 18.86838 6.54793-.1325 25.68172-9.40627 43.97134-20.09046 16.74087-9.77961 32.50965-20.58088 36.94966-26.43922.16292-.53251.4675-1.02417.89875-1.41126.18792-.36166.34834-.71333.48417-1.0525l.0554-.15458c.21167-.54834.39708-1.12001.5625-1.69167l.24792-.85625-.22667-.89751-.0533-.20541zm-.68625-15.45712c-.27042-.73958-.58917-1.45167-.97084-2.0825-3.39667-5.6196-20.98213-17.55129-39.36008-28.03714-18.00004-10.27086-36.46091-18.99671-42.74801-18.86921-6.54793.1325-25.68297 9.40627-43.97259 20.09046-17.88878 10.45044-34.67132 22.06921-37.70091 27.57297-.26792.49042-.49583.99125-.68583 1.48459-.21167.54833-.39709 1.12-.5625 1.69167l-.24917.8575.22666.89625c.21376.84792.45834 1.69834.74084 2.47209.26333.72167.58208 1.42667.97084 2.07167 3.39542 5.61835 20.98212 17.55129 39.36133 28.03714 18.00128 10.26961 36.45966 18.99546 42.74675 18.86796 6.54793-.13209 25.68172-9.40627 43.97134-20.09046 16.7942-9.81044 32.61132-20.65046 36.99216-26.49464.15959-.45125.42292-.86917.78084-1.21292.23833-.44625.44292-.9.615-1.34875.21167-.54792.39708-1.11959.5625-1.69125l.24792-.85626-.22667-.89916c-.20083-.80084-.43-1.60501-.69333-2.34334l-.0462-.11667zm.70166 28.64423c-7.14459 6.86668-21.17379 16.38045-35.78507 24.9163-19.02171 11.1121-39.35092 20.76504-46.99718 20.92004-7.44835.15-27.15131-8.95168-45.9451-19.67379-15.67586-8.94335-30.93798-19.12921-38.12383-26.11089l-.10041.34375.22666.89667c.21376.84792.45834 1.69834.74084 2.47209.26333.72167.58208 1.42667.97084 2.07167 3.39542 5.61835 20.98212 17.55087 39.36133 28.03673 18.00128 10.27002 36.45966 18.99587 42.74675 18.86837 6.54793-.1325 25.68172-9.40627 43.97134-20.09046 16.73962-9.7796 32.50965-20.57962 36.94966-26.43797.16167-.53375.4675-1.02542.9-1.41375.18667-.36167.34709-.7125.48292-1.05126l.0554-.15458c.21167-.54833.39708-1.12.5625-1.69167l.24792-.85625-.22667-.8975-.0379-.1475m.0001 13.12919c-7.14459 6.86668-21.17504 16.38045-35.78632 24.9163-19.02171 11.11211-39.35092 20.76505-46.99718 20.91963-7.44835.15-27.15131-8.95127-45.9451-19.67337-15.67586-8.94461-30.93798-19.12921-38.12508-26.11089l-.0992.34125.22666.89792c.21376.84792.45834 1.69833.74084 2.47209.26333.72041.58083 1.42416.97084 2.07042 3.39667 5.61959 20.98212 17.55128 39.36008 28.03714 18.00003 10.27085 36.46091 18.9967 42.748 18.8692 6.54793-.1325 25.68172-9.40627 43.97134-20.09045 16.74212-9.77961 32.5134-20.58213 36.95091-26.44048.16167-.53125.46625-1.02042.89625-1.40667.20792-.40166.38626-.80791.54084-1.21042.21167-.54833.39708-1.12.5625-1.69167l.24792-.85625-.22667-.8975-.0367-.14625zm-.0001 13.12794c-7.14459 6.86794-21.17379 16.38171-35.78507 24.91631-19.02171 11.1121-39.35092 20.76504-46.99718 20.92004-7.4496.15-27.15256-8.95169-45.94635-19.67504-15.67545-8.94335-30.93548-19.12796-38.12258-26.11089l-.10041.34625.22666.89667c.21376.84792.45834 1.69834.74084 2.47167.26333.72167.58208 1.42709.97084 2.07167 3.39542 5.61877 20.98212 17.55129 39.36133 28.03714 18.00128 10.26961 36.45966 18.99588 42.74675 18.86838 6.54793-.1325 25.68172-9.40627 43.97134-20.09088 16.73962-9.77918 32.50965-20.57921 36.94966-26.43755.16167-.53417.4675-1.02542.9-1.41376.18667-.36166.34709-.7125.48292-1.05125l.0554-.155c.21167-.54792.39708-1.11958.5625-1.69125l.24792-.85625-.22667-.8975-.0379-.14876m-166.85118 26.30881l-.10041.34375.22666.89792c.21376.84792.45834 1.69834.74084 2.47167.26333.72084.58083 1.42459.97084 2.07084 3.39667 5.61959 20.98212 17.55087 39.36008 28.03672 18.00003 10.27086 36.46091 18.99713 42.748 18.86963 6.54793-.13251 25.68172-9.40627 43.97134-20.09088 17.88879-10.45044 34.67007-22.06755 37.70091-27.57256.27042-.49166.49709-.99125.68709-1.485.21167-.54792.39708-1.11959.5625-1.69125l.24792-.85626-.22667-.8975-.0379-.14791c-7.14459 6.86709-21.17379 16.38086-35.78507 24.91671-19.02171 11.11169-39.35092 20.76505-46.99718 20.91963-7.4496.15-27.15256-8.95127-45.94635-19.67462-15.67545-8.94336-30.93548-19.12921-38.12258-26.11089" style="fill:#564a4c"/><g transform="matrix(4.1666753,0,0,-4.1666753,0,400)" style="fill-rule:evenodd"><path d="m68.3759 43.3284c.8118 0 1.476-.7843 1.476-1.7436v-10.2736c0-.9572-.6656-1.7433-1.476-1.7433h-2.2717c-.8104 0-1.476.7844-1.476 1.7433v10.2736c0 .9593.6639 1.7436 1.476 1.7436m2.2717 7.3752zm-2.2717 0h2.2717v-7.3752h-2.2717v7.3752" style="fill:#f7a21c"/><path d="m69.6614 47.4803h-4.1763c0 0-.928 0-.928 1.3921 0 1.3921-.4641 10.2084.928 13.4564 1.3921 3.2482 3.5175 3.4072 3.7123 3.2482.1944-.159.464-18.0967.464-18.0967" style="fill:#f8f8f8"/><path d="m66.8543 44.0785v2.6518h.7716v-2.6518h-.7716m-1.3717 2.6518c-.0108 0-.0576.0011-.1284.0105l.1284-.0105m-.1284.0105v-2.808c-.3308-.1333-.6256-.3518-.8637-.633-.3776-.4465-.6123-1.0542-.6123-1.715v-10.2736c0-.6607.2347-1.2682.6125-1.7141.4071-.4808.9783-.7792 1.6135-.7792h2.2717c.6355 0 1.2061.2987 1.6132.7795.3776.4459.6129 1.0539.6129 1.7138v10.2736c0 .6611-.235 1.2688-.6123 1.7147-.2381.2815-.5329.5003-.8637.6335v2.7973l.5354.0031h.0116c.4125.0062.7416.3461.7353.7585-.0008.0417-.1468 11.4358-.4563 16.4016-.0241.3889-.0306 1.6792-.095 1.927-.0468.1811-.1553.339-.3915.4592-.2315.0989-.8486.1338-1.5326-.1451-.5732-.2333-1.2802-.6883-1.9568-1.5169-.4147-.5079-.8215-1.1613-1.1792-1.9961-1.2654-2.9529-1.0797-10.0347-1.0066-12.82l.0167-.9292c0-1.7773 1.1523-2.0801 1.5472-2.1316m.75 1.4896h-.6191c-.0002 0-.0782 0-.1309.1868-.027.0952-.0471.2386-.0471.4552l-.0229.9644c-.0706 2.6929-.2503 9.54.8892 12.1991.2976.6948.629 1.2297.9626 1.6385.4867.5961.9729.9147 1.3592 1.0717l.2452.1001c.0718-1.1608.1265-8.8475.154-13.6009.0076-1.2784.013-2.3448.0164-3.0149h-.5349-.75-.7716-.7501m2.2717-5.652c.1755 0 .3433-.0941.4714-.2455.1568-.1851.2546-.4499.2546-.7481v-10.2736c0-.2971-.0978-.5615-.2552-.7472-.1281-.1514-.2959-.246-.4708-.246h-2.2717c-.1752 0-.343.0943-.4711.2457-.157.1851-.2548.4499-.2548.7475v10.2736c0 .2982.0978.563.2545.7484.1279.1511.2957.2452.4714.2452h2.2717" style="fill:#564a4c"/></g><path d="m321.21442 206.38752c-.0001.15458-.0142.30708-.0367.45583l-.10042 10.99711 4.61251.085c1.71834.0263 3.08959 1.44208 3.06376 3.16084-.008.53125-.14917 1.02875-.39 1.46208l-6.91543 13.47878c-.78167 1.52959-2.65751 2.13667-4.18668 1.35459-.5-.255-.9025-.62709-1.18834-1.06626l-.007.005-9.07585-13.86711c-.94334-1.44251-.53959-3.37709.9025-4.32085.61417-.40125 1.31709-.55833 1.99501-.49583l4.96542.0908.13667-14.93253c.0001-.155.0146-.30708.0367-.45583l.10041-10.99753-4.61209-.085c-1.71834-.0258-3.08959-1.44208-3.06376-3.16042.008-.53167.14875-1.02875.38959-1.4625l6.91543-13.47878c.78208-1.52959 2.6575-2.13667 4.18709-1.35459.49959.255.9025.62709 1.18834 1.06667l.007-.005 9.07544 13.86753c.94375 1.44209.54 3.37668-.90251 4.32043-.61416.40166-1.31667.55875-1.99458.49625l-4.96543-.0913-.13708 14.93295z" style="fill:#564a4c;fill-rule:evenodd"/><g transform="matrix(4.1666753,0,0,-4.1666753,0,400)"><path d="m24.0982 49.3115c.5295.4649 1.1928.8291 2.0129 1.0171.1054.0246.2366.0493.3951.0725.1338.0204.271.0363.4113.0479 3.7894.3031 4.5184-3.0659 4.6006-3.528.0448-.4694.413-.8504.8847-.883.2478-.017.4901-.0623.7243-.1318.2387-.0703.4589-.1635.6579-.2749.4944-.279.8975-.686 1.1588-1.1784.2469-.466.3696-1.0171.3249-1.6191-.0457-.6152-.2036-.9961-.4717-1.211-.3201-.2557-.8453-.3776-1.5509-.4292-.4654-.034-4.4166-.0717-8.0328-.0773-2.7099-.0052-5.2367.0082-5.9706.0538-.3804.0235-.7152.1072-.9879.2387-.2384.1154-.4246.2653-.5411.436-.0887.1306-.1341.2792-.125.4379.0068.1157.0391.2415.0998.3756.0998.2197.2389.3779.3917.4927.2177.1638.4728.2534.6894.3024.3787.0629.6979.3606.7787.7713.1848.9167.5014 1.5126.8697 1.8896.4243.4348.9399.5839 1.3813.608.3744-.009.7356.2112.8963.5865.3124.7331.769 1.4434 1.4026 1.9996l-.002.0022.002.0009" style="fill:#fff;fill-rule:evenodd"/><path d="m23.6288 49.8937c.3143.2727.6689.5157 1.0646.7155.3771.1911.7929.3438 1.2481.4482l-.0002.0005c.047.0111.1201.0258.2177.0437.0941.0173.174.0309.2358.0399v.0006c.068.0102.1449.0207.2296.0303.087.001.1639.0179.2316.0236l.0281.0017c2.1962.1675 3.5243-.7447 4.3154-1.7688.7736-1.0012 1.0094-2.1116 1.0568-2.3789.0051-.0286.0082-.0572.0099-.0856.0096-.0476.0332-.0901.0652-.1222.0326-.0326.0754-.0541.1213-.0572.1412-.0097.2903-.0292.4451-.057l.0028-.0006v.0006c.1519-.0278.2982-.0629.4374-.104.148-.0437.2874-.093.4167-.1471.1389-.0579.2718-.1228.3965-.1925.0205-.0114.0403-.0238.059-.0369.2889-.1698.5499-.3724.7767-.6029.2469-.2509.4561-.534.6188-.8402l.0227-.0465c.1488-.2902.2599-.6032.3257-.9326.0048-.0241.0085-.0482.0108-.072.0569-.3143.0751-.6403.0507-.9723l-.0003-.0028h.0003c-.0286-.3849-.0964-.7072-.2024-.9754l-.0187-.0431c-.1273-.3033-.3045-.54-.529-.7197l-.0034-.0026.0006-.0005c-.2435-.1945-.5465-.3334-.9062-.4286-.3084-.0819-.6619-.1327-1.0576-.1616-.2268-.0164-1.3448-.0346-2.8678-.0493-1.499-.0142-3.3999-.0252-5.2178-.0281-1.4499-.0028-2.8479-.0003-3.9458.0097-.9848.0087-1.7317.0235-2.0687.0442-.2308.0142-.453.0479-.6611.0981l-.0311.0082c-.2112.053-.4051.1224-.5769.2055-.1701.0822-.3246.1797-.4598.2883-.1488.1196-.2752.2542-.3742.3997-.0124.0181-.0238.0368-.0345.0555-.0749.1199-.1316.2449-.1681.3728-.0425.1496-.0607.3078-.0513.4725.0062.1117.0243.2245.0538.3353l.0119.0403c.0258.0899.0587.1792.0984.2665.0768.1695.1723.3191.2786.4498.1058.1298.2237.2398.3476.3328.1661.125.3387.2186.5059.288.1577.0652.3187.1125.4675.1463l.0411.0079v.0009c.0388.0062.0748.0255.1026.053.0309.0306.0541.0734.0638.1236.0045.0232.0102.0462.0167.0686.0989.4716.2305.8693.3835 1.2027.1905.4136.4193.7407.6687.9961.267.2733.5593.4652.8541.595.3475.1528.7016.2214 1.0253.2387.0232.0011.0465.0014.0694.0002.0315.0023.0644.0139.0939.0332.0354.0233.0652.0573.0827.0989.1815.4261.4099.8493.6894 1.2481l.0014.002-.0014.0009c.2421.3449.5259.6726.8541.9688.0167.0179.0346.0352.0533.0516l.0247.0207m1.7382-.6202c-.2739-.138-.5191-.3041-.7362-.4892l-.0405-.0383c-.252-.2211-.4746-.4777-.669-.7546l-.0014.0009c-.2135-.3048-.3912-.6364-.5361-.9763-.14-.3274-.3668-.5885-.6389-.7668-.2707-.1769-.5902-.2732-.9187-.2744-.1545-.0096-.3226-.0428-.487-.1151-.1343-.0592-.2667-.1454-.3852-.2667-.1361-.1392-.2659-.3288-.3818-.5805-.1114-.2421-.2075-.5335-.2807-.8805l-.0079-.0507c-.0692-.3541-.2424-.6619-.4799-.8969-.2444-.2424-.5565-.4068-.8966-.4666-.0601-.015-.1264-.036-.1948-.064-.0683-.0284-.1332-.0621-.1839-.1004-.0287-.0215-.0576-.0487-.0839-.0811-.0258-.0317-.0511-.0722-.0734-.1216-.0102-.0226-.0185-.0425-.0239-.0589l-.0048-.0193-.0039-.0153c.0167-.0224.0399-.0456.0686-.0683.0462-.0372.1046-.0734.1729-.1063.0861-.0414.1805-.0763.2803-.1021l.0289-.0062c.1188-.0286.2523-.0485.3974-.0573.3462-.0212 1.063-.0357 1.9928-.0442 1.0964-.0096 2.49-.0122 3.9339-.0096 1.8085.0025 3.7055.0136 5.2058.028 1.4582.0139 2.5379.0321 2.7743.0494.3093.0224.5723.0589.7821.1145.1587.0419.2792.0927.3557.1536l.0003-.0005c.0272.0232.053.0623.0777.1184l.0099.0267c.0513.1295.0856.3067.1026.536h.0003c.015.2089.0063.4045-.0246.5845-.0057.019-.001.0386-.0139.0584-.0392.1956-.1024.3767-.1854.5406l-.0162.0286c-.0978.184-.2199.3507-.3614.4944-.1366.1389-.2897.2596-.4555.3586l-.0462.0238c-.076.0425-.1562.0816-.2384.1159-.0879.0369-.1766.0686-.2642.0944-.0972.0286-.1928.0522-.2849.0689v.0003c-.083.0147-.1763.0263-.2784.0334-.4218.0289-.7968.212-1.076.491-.2633.2622-.4419.6125-.4946.9989l-.0023.0111c-.0343.1941-.2058 1.0009-.7637 1.7229-.5354.693-1.4561 1.3081-3.0234 1.1882l-.0139-.0011c-.0725-.0059-.1352-.0122-.1845-.0178-.0519-.006-.1114-.0142-.1769-.0241v.0005l-.0031-.0005c-.0919-.0134-.1531-.0233-.1862-.0292-.0377-.0068-.0868-.0176-.1474-.0318l-.0003.0006-.0026-.0006c-.335-.0765-.6386-.1879-.911-.3257" style="fill:#564a4c"/></g></svg>