<?xml version="1.0" encoding="UTF-8" standalone="no"?>
<svg
   xmlns:dc="http://purl.org/dc/elements/1.1/"
   xmlns:cc="http://creativecommons.org/ns#"
   xmlns:rdf="http://www.w3.org/1999/02/22-rdf-syntax-ns#"
   xmlns:svg="http://www.w3.org/2000/svg"
   xmlns="http://www.w3.org/2000/svg"
   version="1.1"
   id="statusflower"
   viewBox="0 0 110 90.000001"
   height="90"
   width="110">
  <defs
     id="#statusflower" />
  <metadata
     id="#metasvg">
    <rdf:RDF>
      <cc:Work
         rdf:about="">
        <dc:format>image/svg+xml</dc:format>
        <dc:type
           rdf:resource="http://purl.org/dc/dcmitype/StillImage" />
        <dc:title></dc:title>
      </cc:Work>
    </rdf:RDF>
  </metadata>
  <g
     id="layer1">
    <path
       id="bg"
       style="fill:#e6e6e6;fill-opacity:1;fill-rule:evenodd;stroke:none"
       d="m 64.999601,-9e-5 c 24.852917,0 44.999999,20.14708 44.999999,44.99999 0,24.8525 -20.147082,45.0001 -44.999999,45.0001 -24.852917,0 -45.000001,-20.1476 -45.000001,-45.0001 0,-24.85291 20.147084,-44.99999 45.000001,-44.99999" />
    <path
       id="flower"
       style="fill:#564a4c;fill-opacity:1;fill-rule:nonzero;stroke:none"
       d="m 40.236598,33.5883 c -1.503732,-0.83569 -2.045009,-2.73391 -1.209324,-4.23764 0.835684,-1.50373 2.734323,-2.04501 4.237638,-1.20933 l 7.882291,4.3961 c 1.503315,0.83569 2.045009,2.73433 1.209325,4.23764 -0.835685,1.50373 -2.734324,2.04503 -4.238056,1.20933 l -7.881874,-4.3961 z m 22.082258,-16.4368 c -0.02002,-1.71975 1.358196,-3.13132 3.077939,-3.15134 1.720159,-0.02 3.131315,1.3582 3.151749,3.07836 l 0.133442,9.02364 c 0.02002,1.72016 -1.358196,3.13132 -3.077938,3.15175 -1.720159,0.02 -3.131316,-1.35819 -3.151749,-3.07835 l -0.133443,-9.02406 z m 25.263198,10.92353 c 1.476627,-0.88281 3.39278,-0.40158 4.275587,1.07463 0.882806,1.47663 0.401996,3.39278 -1.074631,4.27559 l -7.748431,4.62795 c -1.47621,0.8828 -3.392363,0.4016 -4.275587,-1.07463 -0.882806,-1.47621 -0.401996,-3.39236 1.074631,-4.27558 l 7.748431,-4.62796 z m -11.170402,-8.83808 c 0.835685,-1.50373 2.733907,-2.045 4.237639,-1.20932 1.503732,0.83568 2.045009,2.73391 1.209324,4.23764 l -4.396102,7.88229 c -0.835684,1.50332 -2.734323,2.04501 -4.238055,1.20891 -1.503315,-0.83569 -2.044592,-2.73391 -1.208907,-4.23764 l 4.396101,-7.88188 z m 16.436383,22.08225 c 1.72016,-0.02 3.131316,1.3582 3.151749,3.078 0.02002,1.7201 -1.358196,3.1313 -3.078355,3.1513 l -9.02406,0.1338 c -1.719742,0.02 -3.130899,-1.3582 -3.151332,-3.0783 -0.02002,-1.7198 1.358196,-3.1313 3.078355,-3.1513 l 9.023643,-0.1335 z m -10.923533,25.2632 c 0.883224,1.4762 0.401996,3.3924 -1.074213,4.2756 -1.476626,0.8828 -3.39278,0.402 -4.275586,-1.0746 l -4.627959,-7.7485 c -0.882806,-1.4766 -0.401996,-3.3923 1.074631,-4.2756 1.476209,-0.8828 3.392363,-0.4019 4.275586,1.0747 l 4.627541,7.7484 z m 8.838492,-11.1708 c 1.503732,0.8361 2.045009,2.7343 1.209324,4.238 -0.835685,1.5034 -2.734324,2.0451 -4.237639,1.209 l -7.882291,-4.3961 c -1.503315,-0.8357 -2.045009,-2.734 -1.209324,-4.2377 0.836102,-1.5033 2.734324,-2.045 4.238056,-1.2093 l 7.881874,4.3961 z m -22.082259,16.4368 c 0.02002,1.7202 -1.358196,3.1313 -3.077938,3.1513 -1.72016,0.02 -3.131316,-1.3582 -3.151332,-3.0779 l -0.13386,-9.0241 c -0.02002,-1.7197 1.358196,-3.1313 3.078356,-3.1513 1.719742,-0.02 3.131315,1.3582 3.151332,3.0783 l 0.133442,9.0237 z m -25.263198,-10.9235 c -1.476209,0.8832 -3.392363,0.402 -4.275586,-1.0743 -0.882807,-1.4766 -0.401996,-3.3927 1.07463,-4.2755 l 7.748432,-4.628 c 1.476209,-0.8828 3.392363,-0.402 4.275586,1.0746 0.882807,1.4762 0.401996,3.3924 -1.07463,4.2756 l -7.748432,4.6276 z m 11.170402,8.8385 c -0.835685,1.5037 -2.733907,2.045 -4.237639,1.2093 -1.503314,-0.8357 -2.045008,-2.7343 -1.209324,-4.2377 l 4.396102,-7.8823 c 0.836102,-1.5037 2.734324,-2.045 4.238056,-1.2093 1.503315,0.8357 2.045008,2.7343 1.208907,4.2377 l -4.396102,7.8823 z m -16.436383,-22.0823 c -1.720159,0.02 -3.131315,-1.3582 -3.151332,-3.0784 -0.02043,-1.7197 1.358196,-3.1313 3.077939,-3.1513 l 9.02406,-0.1334 c 1.719742,-0.02 3.131315,1.3582 3.151332,3.0779 0.02002,1.7202 -1.358197,3.1313 -3.078356,3.1517 l -9.023643,0.1335 z m 10.923533,-25.26321 c -0.883224,-1.47662 -0.401996,-3.39278 1.074213,-4.27558 1.476627,-0.88323 3.39278,-0.402 4.275587,1.07463 l 4.627958,7.74843 c 0.882807,1.47621 0.401996,3.39236 -1.07463,4.27559 -1.47621,0.8828 -3.392363,0.40157 -4.275587,-1.07463 l -4.627541,-7.74844 z">

             <animateTransform attributeName="transform"
                                 attributeType="XML"
                                 type="rotate"
                                 from="0 65.5 45"
                                 to="360 65.5 45"
                                 dur="2s"
                                 repeatCount="indefinite"/>

       </path>
    <path
       id="mask"
       style="fill:#e6e6e6;fill-opacity:1;fill-rule:evenodd;stroke:none"
       d="m 30.845851,63.4912 c -2.734584,-5.5817 -4.270834,-11.8571 -4.270834,-18.4913 0,-6.6354 1.5375,-12.91203 4.271667,-18.4937 2.328333,-0.2125 4.645417,-2.59708 6.851667,-2.48167 2.133333,0.0192 23.976666,10.20959 23.976666,14.95627 0,4.6466 0,7.2946 0,11.9412 0,5.7709 -21.247083,14.8913 -23.579583,15.0304 -2.327083,0.1396 -4.78375,-2.2358 -7.249583,-2.4612" />
    <path
       id="fork"
       style="fill:#564a4c;fill-opacity:1;fill-rule:evenodd;stroke:none"
       d="m 40.755017,46.8741 0,0.9225 7.164584,0 c 1.725833,0 3.125416,1.3996 3.125416,3.1254 0,1.7254 -1.399583,3.125 -3.125416,3.125 l -7.164584,0 0,1.715 -0.0083,0 c 0,1.6396 -1.276667,3.0154 -2.93375,3.1121 -11.089167,0.6675 -18.47125,-2.5487 -21.999167,-6.9104 l 0.0012,0 c -0.975833,-1.207 -1.675,-2.5016 -2.0975,-3.8375 l -10.5925,0 c -1.7254167,0 -3.125,-1.3995 -3.125,-3.125 0,-1.7258 1.3995833,-3.1254 3.125,-3.1254 l 10.5875,0 c 0.422917,-1.345 1.123333,-2.6441 2.1,-3.8525 l 0.0071,0.01 0.005,-0.01 c 3.499584,-4.32288 10.800834,-7.51997 21.762917,-6.90955 l 0.0425,-0.001 c 1.725417,0 3.125,1.39958 3.125,3.12542 l 0,1.61916 7.164584,0 c 1.725833,0 3.125416,1.39959 3.125416,3.12507 0,1.7258 -1.399583,3.1254 -3.125416,3.1254 l -7.164584,0 0,4.7679 z" />
  </g>
</svg>
