<svg xmlns="http://www.w3.org/2000/svg" viewBox="0 0 170 170"><defs><clipPath id="0"><path d="m-9-9h59v59h-59v-59"/></clipPath><clipPath><path d="m28.5296 21.5889l-.6375 4.2169c-.2288 1.5148-.1361 2.7297-1.3303 2.209-1.5242-.6639-4.2044-1.4995-7.0178-.8133-2.6974.6577-4.5612-.0547-5.5797-.6817l1.446-9.5661c.928.6554 2.8922 1.6042 5.8753.8768 2.5838-.6299 5.0551.0229 6.6212.6477 1.2926.5159.8297 1.741.6228 3.1107"/></clipPath></defs><g transform="translate(0,-882.36216)"><g transform="matrix(4.1666462,0,0,-4.1666462,0.00124999,1052.3609)" style="clip-path:url(#0)"><g style="fill-rule:evenodd"><path d="m20.3998 40.7999c11.2666 0 20.4001-9.1335 20.4001-20.4001 0-11.2666-9.1335-20.4001-20.4001-20.4001-11.2666 0-20.4001 9.1335-20.4001 20.4001 0 11.2666 9.1335 20.4001 20.4001 20.4001" style="fill:#e6e6e6"/><path d="m25.3213 13.1675l3.1989-.0357c.3767 0 1.4664 1.6804 1.4664 4.888 0 3.2077-1.0897 4.8881-1.4664 4.8881l-2.7856.0306c.2035-1.262.3113-2.5568.3113-3.8778 0-2.0347-.2515-4.0093-.7246-5.8932" style="fill:#fff"/></g><g style="fill:#564a4c"><path d="m12.2885 16.7698c-.1837-.1188-.3011-.2713-.3597-.4315-.0539-.1468-.0621-.3027-.0304-.4453.0301-.1349.097-.2591.1945-.3518.0893-.0847.21-.1443.3563-.1601.4107-.0437.7087-.4125.665-.8232-.0167-.1562-.0802-.2959-.1752-.4071-.0501-.0623-.0822-.2069-.0822-.3883 0-.1318.0204-.2645.0663-.3796.0409-.1029.1046-.1992.1948-.2755.1437-.1222.3722-.2027.7115-.2027v-.0031l9.898.0105c.125.0054.2395.0493.3421.1242.4471.3257.7609 1.1313.9621 2.1302.2225 1.1055.2869 2.4123.235 3.611-.0643 1.4885-.2869 2.7508-.5853 3.1604l-.0032.0045-.0025-.0017c-.6557.9148-1.3008 1.6336-1.9035 2.3057-1.5335 1.7102-2.8219 3.147-3.2952 6.2102-.0156.1009-.0582.1805-.1151.2299-.0289.0249-.0615.0413-.0924.045l-.0063.0009c-.0306.0014-.068-.008-.1094-.0298-.1239-.0655-.2551-.2208-.375-.4921-.4493-1.0148-.434-2.0834-.1466-3.1096.3833-1.3697 1.2402-2.6699 2.1504-3.6989.2732-.309.2443-.7812-.0646-1.0545-.1421-.1259-.3189-.1874-.495-.1874v-.0031h-8.0915c-.1224 0-.2072-.0334-.2613-.0862-.0856-.0833-.1432-.2216-.1752-.3795-.04-.1959-.0369-.411.0003-.6049.0317-.1656.0626-.2818.0813-.2929.3541-.2117.4695-.6712.2577-1.0252-.0476-.0797-.1077-.1472-.1763-.2016l.0006-.0006c-.1154-.0921-.1936-.1899-.2393-.2877-.0598-.1281-.0711-.2721-.0453-.4138.0303-.1667.1091-.3297.2211-.4697l.0011-.0015.002.0015c.1097-.1375.2474-.2506.3997-.3218.3736-.1746.5349-.6193.3602-.9929-.0615-.1316-.1561-.2367-.2698-.3102l.0003-.0002m-1.7657.0839c.0581.1587.1355.3135.2316.4609-.0448.0482-.0873.0978-.1282.1488l.002.0014c-.2636.3305-.4501.722-.525 1.1305-.0793.4334-.0374.8884.1628 1.3158.0447.0964.0975.1905.1578.2821-.0901.1868-.1576.3943-.1992.612-.0709.3696-.0746.7897.0059 1.1848.0882.4326.2798.8442.597 1.1529.3237.3158.7537.5142 1.3039.5142h6.5503c-.6417.9198-1.1874 1.9551-1.4907 3.0396-.375 1.3396-.3881 2.7507.2168 4.117.2691.6083.6452.9992 1.0486 1.2127.3186.1684.6531.2256.9725.1902l.0281-.0031c.3285-.0417.6338-.1812.8833-.3966.3135-.2715.5408-.665.6128-1.1319.4057-2.6254 1.5591-3.9118 2.9319-5.4425.644-.7183 1.3337-1.4868 2.0089-2.4287l-.0025-.0017c.4646-.6426.7934-2.2201.8691-3.9699.0561-1.3023-.0162-2.7363-.2645-3.9688-.2699-1.3391-.7634-2.4724-1.5477-3.0441-.3393-.2472-.7246-.3924-1.1563-.4111v.0006l-.0323-.0006-9.9303-.0105v-.0031c-.7302 0-1.2799.2223-1.6781.5604-.2875.2435-.4884.5454-.6166.8674-.1233.3093-.178.6305-.178.9301 0 .148.0139.2948.0391.436-.121.0754-.2327.1624-.3342.2588-.3138.2987-.5275.6902-.6219 1.1137-.0927.4156-.0708.8637.0831 1.2827"/><path d="m27.072 15.0293c0 .3019.2449.5462.5465.5462.3016 0 .5463-.2443.5463-.5462 0-.3022-.2447-.5462-.5463-.5462-.3019 0-.5465.2443-.5465.5462" style="fill-rule:evenodd"/><path d="m25.268 12.3814c-.4141 0-.75.336-.75.7501 0 .4141.3359.75.75.75h3.2522c.0139 0 .0924.417.3356 1.2277.2175.7248.3807 1.6963.3807 2.9106 0 1.2144-.1632 2.1856-.3807 2.9104-.2432.8107-.3217 1.2277-.3356 1.2277h-3.4217c-.4141 0-.75.3359-.75.75 0 .4141.3359.7501.75.7501h3.4217c.4635 0 1.3156-.7813 1.7711-2.3004.2546-.8481.4453-1.9666.4453-3.3378 0-1.3711-.1907-2.4899-.4453-3.338-.4555-1.5191-1.307-2.3004-1.7711-2.3004h-3.2522"/></g></g></g></svg>