<svg xmlns="http://www.w3.org/2000/svg" viewBox="0 0 230 230"><defs><clipPath><path d="m-9-9h59v59h-59v-59"/></clipPath><clipPath><path d="m28.5296 21.5889l-.6375 4.2169c-.2288 1.5148-.1361 2.7297-1.3303 2.209-1.5242-.6639-4.2044-1.4995-7.0178-.8133-2.6974.6577-4.5612-.0547-5.5797-.6817l1.446-9.5661c.928.6554 2.8922 1.6042 5.8753.8768 2.5838-.6299 5.0551.0229 6.6212.6477 1.2926.5159.8297 1.741.6228 3.1107"/></clipPath></defs><g transform="translate(0,-822.36216)"><path d="m115.00003 822.3621c63.51241 0 115.00004 51.48763 115.00004 115.00003 0 63.51247-51.48763 114.99997-115.00004 114.99997-63.5124 0-115.00003-51.4875-115.00003-114.99997 0-63.5124 51.48763-115.00003 115.00003-115.00003" style="fill:#e6e6e6;fill-rule:evenodd"/><g transform="translate(0,-2)"><path d="m135.50615 969.63945l13.32868.14875c1.56958 0 6.10997-7.00164 6.10997-20.36657 0-13.36535-4.54039-20.36698-6.10997-20.36698l-11.60661-.1275c.84792 5.2583 1.29708 10.65328 1.29708 16.15742 0 8.47787-1.04791 16.70533-3.01915 24.55488" style="fill:#fff;fill-rule:evenodd"/><g style="fill:#564a4c"><path d="m81.20308 954.62994c-.765413.49499-1.254577 1.13041-1.498743 1.7979-.224582.61167-.258749 1.26125-.126666 1.85541.125416.56208.404165 1.07958.810413 1.46583.372081.35291.874996.60125 1.484576.66708 1.711241.18208 2.952902 1.71874 2.77082 3.42998-.06958.65083-.334165 1.23291-.729997 1.69624-.208749.25959-.342498.86208-.342498 1.61791 0 .54917.085 1.10208.276248 1.58166.170416.42875.435832.83.811663 1.14791.598747.50917 1.550826.84458 2.964569.84458v.0129l41.24146-.0438c.52083-.0225.99791-.20542 1.42541-.5175 1.86291-1.35708 3.1704-4.71373 4.00873-8.87579.92708-4.60623 1.19541-10.0512.97916-15.04576-.26791-6.20205-1.19541-11.46161-2.43874-13.16827l-.0133-.0188-.0104.007c-2.73206-3.81165-5.41997-6.80664-7.93121-9.60704-6.38955-7.1258-11.75786-13.11244-13.72993-25.87571-.065-.42041-.2425-.75208-.47958-.95791-.12042-.10375-.25625-.17208-.385-.1875l-.0263-.004c-.1275-.006-.28333.0333-.45583.12417-.51625.27291-1.06291.91999-1.56249 2.0504-1.87208 4.22832-1.80833 8.6808-.61083 12.95661 1.59707 5.70705 5.16747 11.12453 8.95995 15.41201 1.13833 1.28749 1.01792 3.25498-.26916 4.39372-.59208.52458-1.32874.78083-2.06249.78083v.0129h-33.714418c-.509998 0-.863329.13917-1.088745.35917-.356665.34708-.596664.92332-.729996 1.58124-.166666.81624-.15375 1.71249.0012 2.5204.132082.69.260832 1.17416.338748 1.22041 1.475409.88208 1.95624 2.79666 1.073745 4.27165-.198333.33208-.448748.61333-.73458.83999l.0025.002c-.480831.38375-.806663.79125-.997078 1.19875-.249166.53375-.296249 1.13374-.18875 1.72416.12625.69458.454582 1.37374.921246 1.95707l.0046.006.0083-.006c.457081.57291 1.030828 1.04416 1.665408 1.34083 1.556659.72749 2.228739 2.5804 1.500826 4.13706-.256249.54833-.650414.98624-1.124161 1.29249l.0012.00084zm-7.357047-.34959c.242082-.66124.56458-1.30624.964995-1.9204-.186666-.20083-.363748-.4075-.534164-.62l.0083-.006c-1.098328-1.37708-1.875407-3.00832-2.187489-4.7104-.330415-1.80582-.155833-3.70164.67833-5.48247.186249-.40166.406248-.79375.657497-1.17541-.375415-.77833-.656664-1.64291-.829996-2.54999-.295415-1.53999-.310832-3.2904.02458-4.93664.367498-1.80249 1.165828-3.51748 2.487488-4.80373 1.348743-1.31582 3.140401-2.14249 5.43289-2.14249h27.29278c-2.67374-3.83248-4.94748-8.14621-6.21122-12.66493-1.56249-5.58164-1.61708-11.4612.90333-17.15409 1.12124-2.53457 2.68832-4.16331 4.36914-5.05289 1.3275-.70166 2.72124-.93999 4.05207-.79249l.11708.0129c1.36874.17375 2.64082.755 3.6804 1.65249 1.30624 1.13125 2.25332 2.77082 2.55332 4.71623 1.69041 10.93911 6.49622 16.29909 12.21619 22.67697 2.68331 2.99291 5.55705 6.19497 8.37037 10.11954l-.0104.007c1.93583 2.67749 3.30582 9.25037 3.62124 16.54117.23374 5.42622-.0675 11.40119-1.10208 16.53658-1.12458 5.57956-3.18082 10.3016-6.44872 12.6837-1.41374 1.03-3.01915 1.635-4.81789 1.7129h-.13458l-41.37605.044v.013c-3.042485 0-5.332891-.9263-6.992049-2.335-1.197911-1.0146-2.03499-2.2725-2.569154-3.61417-.513748-1.28874-.741663-2.62707-.741663-3.8754 0-.61666.05792-1.22833.162916-1.81666-.504164-.31416-.969579-.67666-1.392493-1.07832-1.307494-1.24458-2.197906-2.87582-2.591238-4.6404-.386248-1.73166-.294998-3.59873.346249-5.34456"/><path d="m142.8007 961.88198c0-1.25791 1.02041-2.27582 2.27707-2.27582 1.25666 0 2.27624 1.01791 2.27624 2.27582 0 1.25916-1.01958 2.27583-2.27624 2.27583-1.25791 0-2.27707-1.01792-2.27707-2.27583" style="fill-rule:evenodd"/><path d="m135.28407 972.91486c-1.72541 0-3.12499-1.40001-3.12499-3.12541 0-1.72541 1.39958-3.12499 3.12499-3.12499h13.55076c.0579 0 .385-1.73749 1.39833-5.11539.90624-3.01999 1.58624-7.06788 1.58624-12.12744 0-5.05998-.68-9.10662-1.58624-12.12661-1.01333-3.3779-1.34041-5.11539-1.39833-5.11539h-14.25701c-1.72541 0-3.12499-1.39958-3.12499-3.12498 0-1.72541 1.39958-3.12541 3.12499-3.12541h14.25701c1.93124 0 5.48164 3.2554 7.37955 9.58496 1.06083 3.53373 1.85541 8.19412 1.85541 13.90743 0 5.71289-.79458 10.37453-1.85541 13.90826-1.89791 6.32956-5.44581 9.58497-7.37955 9.58497h-13.55076"/></g></g></g></svg>