solid OpenSCAD_Model
  facet normal 0 -1 0
    outer loop
      vertex 1 17 0
      vertex 11 17 0
      vertex 11 17 0.76
    endloop
  endfacet
  facet normal 0 -1 0
    outer loop
      vertex 1 17 0.76
      vertex 1 17 0
      vertex 11 17 0.76
    endloop
  endfacet
  facet normal 0 0 -1
    outer loop
      vertex 11 17 0
      vertex 12 25 0
      vertex 15 22 0
    endloop
  endfacet
  facet normal 0 0 -1
    outer loop
      vertex 13 2 0
      vertex 15 22 0
      vertex 15 0 0
    endloop
  endfacet
  facet normal 0 0 -1
    outer loop
      vertex 13 2 0
      vertex 0 0 0
      vertex 1 2 0
    endloop
  endfacet
  facet normal 0 0 -1
    outer loop
      vertex 13 14 0
      vertex 15 22 0
      vertex 13 2 0
    endloop
  endfacet
  facet normal 0 0 -1
    outer loop
      vertex 0 0 0
      vertex 13 2 0
      vertex 15 0 0
    endloop
  endfacet
  facet normal 0 0 -1
    outer loop
      vertex 11 17 0
      vertex 15 22 0
      vertex 13 14 0
    endloop
  endfacet
  facet normal 0 0 -1
    outer loop
      vertex 1 17 0
      vertex 12 25 0
      vertex 11 17 0
    endloop
  endfacet
  facet normal 0 0 -1
    outer loop
      vertex 0 25 0
      vertex 12 25 0
      vertex 1 17 0
    endloop
  endfacet
  facet normal 0 0 -1
    outer loop
      vertex 0 25 0
      vertex 1 17 0
      vertex 0 0 0
    endloop
  endfacet
  facet normal 0 0 -1
    outer loop
      vertex 1 2 0
      vertex 0 0 0
      vertex 1 17 0
    endloop
  endfacet
  facet normal 1 0 0
    outer loop
      vertex 1 2 0
      vertex 1 17 0
      vertex 1 17 0.76
    endloop
  endfacet
  facet normal 1 0 0
    outer loop
      vertex 1 2 0.76
      vertex 1 2 0
      vertex 1 17 0.76
    endloop
  endfacet
  facet normal 0 0 1
    outer loop
      vertex 13 14 0.76
      vertex 15 0 0.76
      vertex 15 22 0.76
    endloop
  endfacet
  facet normal 0 0 1
    outer loop
      vertex 11 17 0.76
      vertex 13 14 0.76
      vertex 15 22 0.76
    endloop
  endfacet
  facet normal 0 0 1
    outer loop
      vertex 1 17 0.76
      vertex 11 17 0.76
      vertex 12 25 0.76
    endloop
  endfacet
  facet normal 0 0 1
    outer loop
      vertex 0 25 0.76
      vertex 1 17 0.76
      vertex 12 25 0.76
    endloop
  endfacet
  facet normal 0 0 1
    outer loop
      vertex 0 25 0.76
      vertex 0 0 0.76
      vertex 1 17 0.76
    endloop
  endfacet
  facet normal 0 0 1
    outer loop
      vertex 12 25 0.76
      vertex 11 17 0.76
      vertex 15 22 0.76
    endloop
  endfacet
  facet normal 0 0 1
    outer loop
      vertex 1 2 0.76
      vertex 1 17 0.76
      vertex 0 0 0.76
    endloop
  endfacet
  facet normal 0 0 1
    outer loop
      vertex 13 2 0.76
      vertex 15 0 0.76
      vertex 13 14 0.76
    endloop
  endfacet
  facet normal 0 0 1
    outer loop
      vertex 0 0 0.76
      vertex 15 0 0.76
      vertex 13 2 0.76
    endloop
  endfacet
  facet normal 0 0 1
    outer loop
      vertex 13 2 0.76
      vertex 1 2 0.76
      vertex 0 0 0.76
    endloop
  endfacet
  facet normal -0.83205 -0.5547 0
    outer loop
      vertex 13 14 0
      vertex 13 14 0.76
      vertex 11 17 0
    endloop
  endfacet
  facet normal -0.83205 -0.5547 0
    outer loop
      vertex 11 17 0
      vertex 13 14 0.76
      vertex 11 17 0.76
    endloop
  endfacet
  facet normal 0 -1 0
    outer loop
      vertex 0 0 0
      vertex 15 0 0
      vertex 15 0 0.76
    endloop
  endfacet
  facet normal 0 -1 0
    outer loop
      vertex 0 0 0.76
      vertex 0 0 0
      vertex 15 0 0.76
    endloop
  endfacet
  facet normal -1 0 0
    outer loop
      vertex 0 0 0.76
      vertex 0 25 0.76
      vertex 0 0 0
    endloop
  endfacet
  facet normal -1 0 0
    outer loop
      vertex 0 0 0
      vertex 0 25 0.76
      vertex 0 25 0
    endloop
  endfacet
  facet normal 1 0 0
    outer loop
      vertex 15 0 0
      vertex 15 22 0
      vertex 15 22 0.76
    endloop
  endfacet
  facet normal 1 0 0
    outer loop
      vertex 15 0 0.76
      vertex 15 0 0
      vertex 15 22 0.76
    endloop
  endfacet
  facet normal 0.707107 0.707107 0
    outer loop
      vertex 12 25 0.76
      vertex 15 22 0.76
      vertex 12 25 0
    endloop
  endfacet
  facet normal 0.707107 0.707107 0
    outer loop
      vertex 12 25 0
      vertex 15 22 0.76
      vertex 15 22 0
    endloop
  endfacet
  facet normal 0 1 0
    outer loop
      vertex 0 25 0.76
      vertex 12 25 0.76
      vertex 0 25 0
    endloop
  endfacet
  facet normal 0 1 0
    outer loop
      vertex 0 25 0
      vertex 12 25 0.76
      vertex 12 25 0
    endloop
  endfacet
  facet normal 0 1 0
    outer loop
      vertex 1 2 0.76
      vertex 13 2 0.76
      vertex 1 2 0
    endloop
  endfacet
  facet normal 0 1 0
    outer loop
      vertex 1 2 0
      vertex 13 2 0.76
      vertex 13 2 0
    endloop
  endfacet
  facet normal -1 0 0
    outer loop
      vertex 13 2 0.76
      vertex 13 14 0.76
      vertex 13 2 0
    endloop
  endfacet
  facet normal -1 0 0
    outer loop
      vertex 13 2 0
      vertex 13 14 0.76
      vertex 13 14 0
    endloop
  endfacet
endsolid OpenSCAD_Model
